<svg xmlns="http://www.w3.org/2000/svg" viewBox="0 0 307.44 109.8"><defs><style>.cls-1{fill:#f1f6e5;}.cls-2,.cls-3{fill:#18190f;}.cls-3{font-size:60px;font-family:HelveticaNeueLTStd-Md, Helvetica Neue LT Std;font-weight:500;}</style></defs><g id="Layer_2" data-name="Layer 2"><g id="Layer_1-2" data-name="Layer 1"><rect class="cls-1" x="0.19" y="0.29" width="160.19" height="109.22" transform="translate(0.2 -0.29) rotate(0.2)"/><rect class="cls-1" x="200.84" y="20.54" width="13.03" height="72.85" transform="translate(0.2 -0.74) rotate(0.2)"/><rect class="cls-2" x="213.87" y="18.95" width="93.43" height="76.41" transform="translate(0.21 -0.93) rotate(0.2)"/><circle class="cls-1" cx="225.68" cy="86.67" r="5.44"/><path class="cls-2" d="M160.9,85.94c12.09,4.2,25.79,0,38,3.65"/><path class="cls-2" d="M161.43,23.09a263,263,0,0,1,38.49.45"/><path class="cls-2" d="M190.13,23.25l-12.68-4.86c-1.34-.51-2.68-1-4.06-1.44a50.5,50.5,0,0,0-12.87-1.61"/><path class="cls-2" d="M200.2,23.5c-5.56-.24-11-1.63-16.4-3-9.07-2.32-18.2-4.66-26.79-8.4-3.33-1.45-6.57-3.11-10-4.28a75.59,75.59,0,0,0-14.64-2.89c-12.49-1.63-25.73-3.15-37.23,2-4,1.78-7.58,4.3-11.52,6.15-4.1,1.94-8.62,3.18-12.17,6s-5.83,8-3.59,12a9.51,9.51,0,0,0,3.36,3.28c5.62,3.51,12.85,3.2,19.24,1.48s12.38-4.71,18.8-6.32,13.7-1.64,19.12,2.15c3,2.09,5.13,5.14,7.55,7.87,9.82,11.1,26,17.16,40.07,12.54"/><path class="cls-2" d="M124.78,29.39a19.83,19.83,0,0,0,18.12-3"/><path class="cls-2" d="M199.72,89.22a29.1,29.1,0,0,1-8.53.6c-2.57-.2-5.14-.73-7.71-.51-4.64.4-8.68,3.2-13,4.93A29.34,29.34,0,0,1,160,96.33"/><rect class="cls-2" x="160.38" y="23.43" width="40.46" height="65.72" transform="translate(0.2 -0.65) rotate(0.2)"/><path class="cls-2" d="M188,90.59c3.84-.91,7.91-.32,11.76-1.2.22,0,.5-.26.36-.43-1.13.1-2.23.44-3.36.58a19.15,19.15,0,0,1-3,0L180.29,89a14.39,14.39,0,0,0-2,0c-.86.09-1.7.33-2.55.5a33.12,33.12,0,0,1-4.88.54"/><path class="cls-2" d="M161.07,95.53a.33.33,0,0,1-.2.2,42.34,42.34,0,0,0,.06-6.47l-.06.26"/><path class="cls-2" d="M161.08,95.77c1.46-.72,3.16-.66,4.78-.81a29.6,29.6,0,0,0,5.07-1,32.92,32.92,0,0,0,6-2.17,20.11,20.11,0,0,0,3.94-2.58"/><path class="cls-2" d="M161,95.88a31.67,31.67,0,0,0,3.63-.5c4.58-.84,9.17-1.67,13.64-2.94,2.23-.63,4.43-1.36,6.59-2.21"/><path class="cls-2" d="M162.21,94.58a48.39,48.39,0,0,0,0-5.11l.18,3.65a8.11,8.11,0,0,1,.71-5,10.84,10.84,0,0,1,.64,6.19c-.35,0-.48-.45-.53-.78a9,9,0,0,1,0-4.32,8.28,8.28,0,0,1,.54,5.26,12.45,12.45,0,0,1,.76-5.2,6.4,6.4,0,0,1,.95,3.69c0,.4-.19.91-.59.9a10.3,10.3,0,0,1,.52-5.33,13.78,13.78,0,0,1,.76,5.25c0,.62-.18,1.36-.76,1.61a7.91,7.91,0,0,1,1-6,.53.53,0,0,1,.24-.23c.29-.1.48.31.51.62.19,1.63.3,3.5-.84,4.67a14.42,14.42,0,0,1,2.09-5.54.68.68,0,0,1,.33-.32c.37-.12.63.37.67.76a4.73,4.73,0,0,1-2.29,4.48,4.17,4.17,0,0,1,2-1.93,11.45,11.45,0,0,1,4.41-1.36c-1.2,1.87-3.44,2.72-5.56,3.37a36.43,36.43,0,0,1,8.5-3.29A58.47,58.47,0,0,1,169,93.6a48.41,48.41,0,0,1,9-4,2.59,2.59,0,0,0,1.56-1,34.93,34.93,0,0,1-8.88,3.09l5.83-1.5L168.71,90a48.84,48.84,0,0,0,5.92-.34,30,30,0,0,0-5.1.31l1.56.5c.26.09.57.24.58.51a.66.66,0,0,1-.32.48,7.22,7.22,0,0,1-3.63,1.45l1.77-.23a22,22,0,0,1-2.58,1.48l1.37-.06a2.5,2.5,0,0,1-1.08.44,5.73,5.73,0,0,0,2.28-3.27,1.08,1.08,0,0,1-1.09-.64,1.06,1.06,0,0,1,.33-1.21l-.51,1.52a1.77,1.77,0,0,1,1.45-1.57,6.3,6.3,0,0,1,2.29.05,17.89,17.89,0,0,0,5.93-.27,2.91,2.91,0,0,0-1.84.18l2.85.27a4.16,4.16,0,0,1-1.83.49,7.29,7.29,0,0,1,2.33,0,4.16,4.16,0,0,1-2.24.49,2.11,2.11,0,0,0,1.92-.37"/><rect class="cls-2" x="160.91" y="68.91" width="39.85" height="19.52" transform="translate(0.28 -0.65) rotate(0.2)"/><rect class="cls-2" x="160.27" y="84.72" width="38.31" height="4.79" transform="translate(0.31 -0.64) rotate(0.2)"/><rect class="cls-2" x="160.25" y="88.96" width="19.39" height="3.71" transform="translate(0.33 -0.61) rotate(0.2)"/><rect class="cls-2" x="160.25" y="88.14" width="10.52" height="5.45" transform="translate(0.33 -0.59) rotate(0.2)"/><rect class="cls-2" x="160.25" y="91.68" width="10.25" height="2.67" transform="translate(0.33 -0.59) rotate(0.2)"/><rect class="cls-2" x="160.24" y="91.76" width="5.57" height="3.63" transform="translate(0.34 -0.58) rotate(0.2)"/><path class="cls-2" d="M162.8,93.94a41.73,41.73,0,0,0,5.2-.85c1.16-.29,2.29-.68,3.42-1.07"/><path class="cls-2" d="M161,95.51a2.68,2.68,0,0,1,.27.07,1.42,1.42,0,0,0,.68,0"/><path class="cls-2" d="M161.29,95.67l-.45.06h0s0,0,0-.06v-.34"/><rect class="cls-2" x="160.24" y="95.33" width="0.77" height="0.94" transform="translate(0.34 -0.57) rotate(0.2)"/><rect class="cls-2" x="160.85" y="95.34" width="0.7" height="0.83" transform="translate(0.34 -0.58) rotate(0.2)"/><rect class="cls-2" x="160.23" y="96.21" width="0.19" height="0.1" transform="translate(0.34 -0.57) rotate(0.2)"/><rect class="cls-2" x="160.93" y="95.34" width="2.22" height="0.74" transform="translate(0.34 -0.58) rotate(0.2)"/><rect class="cls-2" x="162.96" y="94.49" width="7.41" height="0.74" transform="translate(-16.85 39.19) rotate(-12.77)"/><rect class="cls-2" x="168.6" y="93.93" width="1.12" height="0.77" transform="translate(-17.94 44.29) rotate(-14.17)"/><rect class="cls-1" x="159.82" y="95.75" width="0.41" height="1.42" transform="translate(0.35 -0.57) rotate(0.2)"/><text class="cls-3" transform="translate(21.89 75.82) rotate(-0.31)">5</text></g></g></svg>