<svg xmlns="http://www.w3.org/2000/svg" viewBox="0 0 242.16 86.43"><defs><style>.cls-1{fill:#f1f6e5;}.cls-2,.cls-3{fill:#18190f;}.cls-3{font-size:50px;font-family:HelveticaNeueLTStd-Md, Helvetica Neue LT Std;font-weight:500;}</style></defs><g id="Layer_2" data-name="Layer 2"><g id="Layer_1-2" data-name="Layer 1"><rect class="cls-1" x="0.15" y="0.23" width="126.09" height="85.98" transform="translate(0.15 -0.23) rotate(0.2)"/><path class="cls-2" d="M126.81,66.38c9.52,3.3,20.3,0,29.95,2.87"/><path class="cls-2" d="M127.23,16.9a207.07,207.07,0,0,1,30.3.36"/><path class="cls-2" d="M149.83,17l-10-3.83c-1.05-.41-2.11-.81-3.19-1.13a39.62,39.62,0,0,0-10.13-1.28"/><path class="cls-2" d="M157.75,17.23a63.37,63.37,0,0,1-12.91-2.37c-7.14-1.83-14.32-3.67-21.09-6.61-2.62-1.15-5.17-2.45-7.88-3.37A59.79,59.79,0,0,0,104.35,2.6C94.52,1.32,84.1.13,75.05,4.17,71.92,5.57,69.08,7.55,66,9s-6.79,2.51-9.58,4.74-4.6,6.32-2.84,9.43a7.7,7.7,0,0,0,2.65,2.58c4.42,2.75,10.11,2.51,15.14,1.16s9.76-3.71,14.81-5,10.78-1.3,15,1.69c2.35,1.64,4,4,5.94,6.19,7.73,8.74,20.46,13.51,31.54,9.88"/><path class="cls-2" d="M98.39,21.87a15.63,15.63,0,0,0,14.26-2.35"/><path class="cls-2" d="M157.37,69a22.94,22.94,0,0,1-6.71.48,37.61,37.61,0,0,0-6.07-.41c-3.65.32-6.83,2.52-10.24,3.88a22.94,22.94,0,0,1-8.21,1.65"/><rect class="cls-2" x="126.4" y="17.18" width="31.85" height="51.73" transform="translate(0.15 -0.51) rotate(0.2)"/><path class="cls-2" d="M148.11,70c3-.71,6.23-.25,9.26-.94.17,0,.39-.21.28-.34-.89.08-1.76.35-2.65.45a14.66,14.66,0,0,1-2.39,0l-10.53-.47a11.44,11.44,0,0,0-1.55,0,17.39,17.39,0,0,0-2,.39,27.33,27.33,0,0,1-3.84.42"/><path class="cls-2" d="M127,73.93a.31.31,0,0,1-.16.16,32.16,32.16,0,0,0,0-5.1l0,.21"/><path class="cls-2" d="M127,74.12a10.47,10.47,0,0,1,3.76-.64,23.72,23.72,0,0,0,4-.81A25.44,25.44,0,0,0,139.44,71a15.48,15.48,0,0,0,3.1-2"/><path class="cls-2" d="M126.89,74.21a24.6,24.6,0,0,0,2.86-.4c3.61-.66,7.22-1.31,10.74-2.31,1.75-.5,3.49-1.08,5.18-1.74"/><path class="cls-2" d="M127.84,73.18a35.94,35.94,0,0,0,0-4L128,72a6.43,6.43,0,0,1,.55-3.93,8.5,8.5,0,0,1,.51,4.88c-.27,0-.38-.35-.42-.62a7.19,7.19,0,0,1,0-3.39,6.45,6.45,0,0,1,.42,4.13A9.85,9.85,0,0,1,129.7,69a5.1,5.1,0,0,1,.75,2.9c0,.32-.16.72-.47.71a8,8,0,0,1,.41-4.19,10.74,10.74,0,0,1,.6,4.13c0,.49-.15,1.07-.6,1.27a6.24,6.24,0,0,1,.81-4.71.41.41,0,0,1,.19-.18c.23-.08.38.25.4.49.15,1.28.23,2.75-.66,3.67a11.17,11.17,0,0,1,1.64-4.35.57.57,0,0,1,.27-.26c.29-.09.49.29.52.6a3.74,3.74,0,0,1-1.8,3.53,3.31,3.31,0,0,1,1.56-1.53A9,9,0,0,1,136.79,70c-.94,1.47-2.71,2.14-4.38,2.65a28.8,28.8,0,0,1,6.69-2.59,46.42,46.42,0,0,1-5.93,2.32,38.17,38.17,0,0,1,7.08-3.19,2,2,0,0,0,1.23-.77,27.48,27.48,0,0,1-7,2.43l4.59-1.18L133,69.56a38.2,38.2,0,0,0,4.66-.26,22.44,22.44,0,0,0-4,.24l1.23.39c.2.07.45.19.45.4s-.13.28-.25.38a5.71,5.71,0,0,1-2.85,1.14l1.39-.18a18.59,18.59,0,0,1-2,1.17l1.08,0a1.82,1.82,0,0,1-.85.34,4.5,4.5,0,0,0,1.8-2.57.85.85,0,0,1-.86-.5.86.86,0,0,1,.26-1l-.4,1.2a1.41,1.41,0,0,1,1.14-1.24,5.25,5.25,0,0,1,1.81,0,14.3,14.3,0,0,0,4.66-.2,2.26,2.26,0,0,0-1.45.13l2.25.21a3.17,3.17,0,0,1-1.45.39,5.68,5.68,0,0,1,1.84,0,3.29,3.29,0,0,1-1.76.38,1.62,1.62,0,0,0,1.51-.28"/><rect class="cls-1" x="158.25" y="14.9" width="10.26" height="57.35" transform="translate(0.16 -0.58) rotate(0.2)"/><rect class="cls-2" x="168.51" y="13.65" width="73.55" height="60.15" transform="translate(0.16 -0.73) rotate(0.2)"/><circle class="cls-1" cx="176.66" cy="66.95" r="4.28"/><text class="cls-3" transform="translate(21.4 60.91) rotate(-0.31)">7</text></g></g></svg>