<svg xmlns="http://www.w3.org/2000/svg" viewBox="0 0 190.61 68.37"><defs><style>.cls-1{fill:#18190f;}.cls-2,.cls-3{fill:#f1f6e5;}.cls-3{font-size:39.38px;font-family:HelveticaNeueLTStd-Md, Helvetica Neue LT Std;font-weight:500;}</style></defs><g id="Layer_2" data-name="Layer 2"><g id="Layer_1-2" data-name="Layer 1"><rect class="cls-1" x="0.09" y="0.13" width="99.34" height="68.1" transform="translate(0.09 -0.13) rotate(0.15)"/><path class="cls-2" d="M99.77,53.49c7.5,2.61,16,0,23.6,2.25"/><path class="cls-2" d="M100.06,14.3a162.7,162.7,0,0,1,23.88.26"/><path class="cls-2" d="M117.86,14.39l-7.87-3c-.83-.32-1.66-.64-2.51-.9a31.06,31.06,0,0,0-8-1"/><path class="cls-2" d="M124.11,14.54a49.76,49.76,0,0,1-10.17-1.87A109,109,0,0,1,97.32,7.45c-2.07-.9-4.08-1.94-6.21-2.66A46.6,46.6,0,0,0,82,3C74.28,2,66.07,1,58.94,4.26c-2.46,1.11-4.7,2.68-7.14,3.84s-5.35,2-7.54,3.75-3.62,5-2.23,7.47a6,6,0,0,0,2.09,2.05c3.48,2.18,8,2,11.93.91s7.68-3,11.66-4,8.49-1,11.86,1.33c1.85,1.3,3.18,3.2,4.68,4.9,6.1,6.91,16.13,10.68,24.86,7.8"/><path class="cls-2" d="M77.34,18.26a12.28,12.28,0,0,0,11.24-1.87"/><path class="cls-2" d="M123.85,55.51a17.76,17.76,0,0,1-5.29.38,29.6,29.6,0,0,0-4.78-.31c-2.88.25-5.38,2-8.07,3.08A18.17,18.17,0,0,1,99.24,60"/><rect class="cls-2" x="99.43" y="14.51" width="25.09" height="40.97" transform="translate(0.09 -0.3) rotate(0.15)"/><path class="cls-2" d="M116.55,56.37c2.38-.56,4.91-.2,7.29-.75.14,0,.31-.16.22-.27-.7.07-1.38.28-2.08.36a11.79,11.79,0,0,1-1.88,0l-8.3-.36a8.28,8.28,0,0,0-1.22,0,14.4,14.4,0,0,0-1.59.31,20.38,20.38,0,0,1-3,.34"/><path class="cls-2" d="M99.88,59.47a.22.22,0,0,1-.12.13,27.23,27.23,0,0,0,0-4l0,.16"/><path class="cls-2" d="M99.89,59.62a8.38,8.38,0,0,1,3-.51,18.8,18.8,0,0,0,3.14-.64,20.28,20.28,0,0,0,3.73-1.36,12.72,12.72,0,0,0,2.44-1.61"/><path class="cls-2" d="M99.84,59.69a17.16,17.16,0,0,0,2.25-.32c2.84-.52,5.68-1,8.46-1.83q2.07-.6,4.08-1.38"/><path class="cls-2" d="M100.59,58.88c0-1.06,0-2.13,0-3.19L100.7,58a5.12,5.12,0,0,1,.43-3.11,6.68,6.68,0,0,1,.4,3.85c-.21,0-.29-.27-.32-.48a5.56,5.56,0,0,1,0-2.69,5.17,5.17,0,0,1,.33,3.27,8,8,0,0,1,.47-3.24,4.15,4.15,0,0,1,.6,2.3c0,.25-.13.57-.38.56a6.47,6.47,0,0,1,.33-3.32,8.46,8.46,0,0,1,.47,3.27c0,.39-.11.85-.47,1a4.94,4.94,0,0,1,.64-3.73.41.41,0,0,1,.14-.15c.19-.06.3.2.32.39a3.51,3.51,0,0,1-.52,2.91,8.93,8.93,0,0,1,1.3-3.45.43.43,0,0,1,.2-.2c.23-.07.39.23.42.47a3,3,0,0,1-1.42,2.8,2.58,2.58,0,0,1,1.23-1.21,7,7,0,0,1,2.73-.85,5.91,5.91,0,0,1-3.45,2.11,22.35,22.35,0,0,1,5.28-2.06,36.5,36.5,0,0,1-4.67,1.84,29.75,29.75,0,0,1,5.57-2.53,1.55,1.55,0,0,0,1-.61,21.41,21.41,0,0,1-5.5,1.93l3.62-.94-4.82-.1a29.84,29.84,0,0,0,3.66-.22,18.46,18.46,0,0,0-3.15.2l1,.31c.16.05.36.14.36.32s-.1.22-.2.29a4.3,4.3,0,0,1-2.24.91l1.09-.14a14.1,14.1,0,0,1-1.6.92l.85,0a1.48,1.48,0,0,1-.67.28,3.55,3.55,0,0,0,1.41-2,.65.65,0,0,1-.47-1.16l-.32,1a1.12,1.12,0,0,1,.9-1,4,4,0,0,1,1.43,0,11,11,0,0,0,3.67-.17,1.86,1.86,0,0,0-1.14.11l1.77.17a2.66,2.66,0,0,1-1.14.31,4.41,4.41,0,0,1,1.45,0,2.58,2.58,0,0,1-1.39.3,1.28,1.28,0,0,0,1.19-.23"/><rect class="cls-1" x="124.52" y="12.69" width="8.08" height="45.42" transform="translate(0.1 -0.34) rotate(0.15)"/><rect class="cls-2" x="132.6" y="11.67" width="57.94" height="47.64" transform="translate(0.1 -0.43) rotate(0.15)"/><text class="cls-3" transform="translate(16.85 49.14) rotate(-0.31)">9</text></g></g></svg>