<svg xmlns="http://www.w3.org/2000/svg" viewBox="0 0 415.62 148.27"><defs><style>.cls-1,.cls-3{fill:#f1f6e5;}.cls-2{fill:#18190f;}.cls-3{font-size:86.88px;font-family:HelveticaNeueLTStd-Md, Helvetica Neue LT Std;font-weight:500;}</style></defs><g id="Layer_2" data-name="Layer 2"><g id="Layer_1-2" data-name="Layer 1"><rect class="cls-1" x="216.67" y="123.77" width="13.86" height="3.61" transform="translate(0.34 -0.6) rotate(0.15)"/><rect class="cls-1" x="216.67" y="123.88" width="7.53" height="4.91" transform="translate(0.34 -0.59) rotate(0.15)"/><path class="cls-1" d="M219.77,129.35c3.22,0,3.23-5,0-5s-3.22,5,0,5Z"/><path class="cls-1" d="M220.12,129.34c2.18-.27,4.36-.53,6.51-1a49,49,0,0,0,5.81-1.72,2.56,2.56,0,0,0,1.75-3.08,2.54,2.54,0,0,0-3.08-1.74,49.36,49.36,0,0,1-5.6,1.67c-.94.21-1.89.37-2.85.52l-.77.11c.45-.07,0,0-.22,0l-1.55.2a2.56,2.56,0,0,0-2.5,2.5c.06,1.21,1.11,2.66,2.5,2.5Z"/><path class="cls-1" d="M217.51,129.56l.33.08a3.55,3.55,0,0,0,.47.08,2.53,2.53,0,0,0,.82-.06.63.63,0,0,0,.37-.29.62.62,0,0,0,.06-.48.65.65,0,0,0-.28-.37.7.7,0,0,0-.49-.06l-.16,0,.16,0a1.88,1.88,0,0,1-.53,0l.17,0c-.2,0-.39-.1-.59-.14a.68.68,0,0,0-.48.07.58.58,0,0,0-.28.37.62.62,0,0,0,.06.48.6.6,0,0,0,.37.29Z"/><path class="cls-1" d="M218.09,128.55l-.33,0-.17,0a.71.71,0,0,1-.15,0l.17,0h0l.15.06s0,0,0,0l.13.1h0l.1.12h0l.06.15v0l0,.17a1.92,1.92,0,0,1,0-.24v-.24a.47.47,0,0,0-.05-.24.46.46,0,0,0-.13-.2.49.49,0,0,0-.2-.13.53.53,0,0,0-.24-.06.64.64,0,0,0-.45.19.65.65,0,0,0-.18.44v.34a1.67,1.67,0,0,0,0,.31l0,.09a.48.48,0,0,0,.14.22.62.62,0,0,0,.3.18.77.77,0,0,0,.3,0l.18,0,.34,0a.47.47,0,0,0,.24-.05.46.46,0,0,0,.2-.13.49.49,0,0,0,.13-.2.53.53,0,0,0,.06-.24.68.68,0,0,0-.19-.45l-.12-.09a.62.62,0,0,0-.32-.09Z"/><rect class="cls-1" x="216.66" y="128.72" width="1.04" height="1.27" transform="translate(0.35 -0.58) rotate(0.15)"/><rect class="cls-1" x="216.66" y="129.9" width="0.26" height="0.13" transform="translate(0.35 -0.58) rotate(0.15)"/><rect class="cls-2" x="216.2" y="129.82" width="0.46" height="0.39" transform="translate(0.35 -0.58) rotate(0.15)"/><circle class="cls-2" cx="303.17" cy="116.92" r="7.35"/><rect class="cls-2" x="0.2" y="0.29" width="216.61" height="147.7" transform="translate(0.2 -0.29) rotate(0.15)"/><path class="cls-1" d="M217.54,116c16.36,5.65,34.88-.1,51.46,4.88"/><path class="cls-1" d="M218.18,31a356.17,356.17,0,0,1,52.06.56"/><path class="cls-1" d="M257,31.21l-17.16-6.56c-1.81-.69-3.62-1.39-5.48-1.94-5.63-1.66-11.55-2-17.41-2.17"/><path class="cls-1" d="M270.61,31.54c-7.52-.32-14.88-2.19-22.17-4.05-12.28-3.14-24.62-6.29-36.24-11.34-4.5-1.95-8.89-4.19-13.54-5.77-6.39-2.16-13.12-3-19.81-3.89C162,4.31,144.06,2.27,128.52,9.23c-5.37,2.41-10.25,5.82-15.57,8.33-5.55,2.62-11.66,4.31-16.45,8.15s-7.89,10.86-4.85,16.2a13,13,0,0,0,4.55,4.43c7.6,4.73,17.38,4.31,26,2s16.75-6.38,25.43-8.56,18.52-2.24,25.86,2.88c4,2.82,6.94,6.94,10.21,10.63,13.29,15,35.16,23.17,54.19,16.91"/><path class="cls-1" d="M168.64,39.59a26.81,26.81,0,0,0,24.5-4.05"/><path class="cls-1" d="M270,120.4a39.51,39.51,0,0,1-11.53.83c-3.48-.27-6.95-1-10.42-.69-6.28.55-11.74,4.34-17.59,6.68a39.41,39.41,0,0,1-14.11,2.84"/><rect class="cls-1" x="216.8" y="31.47" width="54.72" height="88.86" transform="translate(0.2 -0.65) rotate(0.15)"/><path class="cls-1" d="M254.13,122.26c5.2-1.22,10.7-.44,15.91-1.63.29-.06.67-.35.48-.58-1.53.14-3,.6-4.54.79a25.63,25.63,0,0,1-4.11,0l-18.1-.78a18.17,18.17,0,0,0-2.66,0,31.39,31.39,0,0,0-3.45.68,47.09,47.09,0,0,1-6.6.73"/><path class="cls-1" d="M217.79,129a.51.51,0,0,1-.27.27,56.8,56.8,0,0,0,.07-8.75l-.08.35"/><path class="cls-1" d="M217.8,129.31c2-1,4.27-.9,6.46-1.11a40.19,40.19,0,0,0,6.85-1.39,44.66,44.66,0,0,0,8.14-2.94,27.58,27.58,0,0,0,5.32-3.49"/><path class="cls-1" d="M217.7,129.46a40.84,40.84,0,0,0,4.91-.69c6.18-1.13,12.38-2.26,18.44-4q4.51-1.29,8.9-3"/><path class="cls-1" d="M219.33,127.69a66.17,66.17,0,0,0,0-6.9l.24,4.93a11,11,0,0,1,1-6.75,14.63,14.63,0,0,1,.87,8.37c-.46,0-.65-.6-.71-1.06a12.22,12.22,0,0,1,.06-5.83,11.08,11.08,0,0,1,.73,7.11,17.16,17.16,0,0,1,1-7,8.65,8.65,0,0,1,1.29,5c0,.54-.26,1.23-.8,1.22a13.85,13.85,0,0,1,.7-7.21,18.45,18.45,0,0,1,1,7.1c0,.85-.24,1.84-1,2.18a10.63,10.63,0,0,1,1.39-8.08.66.66,0,0,1,.32-.32c.39-.13.65.42.69.84.26,2.2.41,4.73-1.13,6.32a19.35,19.35,0,0,1,2.81-7.49,1,1,0,0,1,.46-.44c.49-.16.84.5.9,1a6.4,6.4,0,0,1-3.09,6.07,5.64,5.64,0,0,1,2.68-2.62,15.41,15.41,0,0,1,6-1.84c-1.62,2.53-4.66,3.69-7.52,4.56a49.38,49.38,0,0,1,11.49-4.45,80.23,80.23,0,0,1-10.18,4,64.77,64.77,0,0,1,12.15-5.5,3.46,3.46,0,0,0,2.11-1.33,46.89,46.89,0,0,1-12,4.2l7.88-2-10.51-.23a68.83,68.83,0,0,0,8-.46,40.62,40.62,0,0,0-6.88.41l2.1.68c.36.12.78.32.79.69a.91.91,0,0,1-.44.65,9.74,9.74,0,0,1-4.9,2l2.39-.32a29.49,29.49,0,0,1-3.49,2l1.86-.09a3.29,3.29,0,0,1-1.46.6,7.71,7.71,0,0,0,3.07-4.42,1.41,1.41,0,0,1-1-2.51l-.69,2.06a2.41,2.41,0,0,1,2-2.13,8.57,8.57,0,0,1,3.11.07,24.21,24.21,0,0,0,8-.37,4,4,0,0,0-2.49.24l3.86.36a5.64,5.64,0,0,1-2.48.67,9.79,9.79,0,0,1,3.15,0,5.67,5.67,0,0,1-3,.66,2.87,2.87,0,0,0,2.59-.49"/><rect class="cls-2" x="271.52" y="27.52" width="17.62" height="98.52" transform="matrix(1, 0, 0, 1, 0.21, -0.75)"/><rect class="cls-1" x="289.14" y="25.3" width="126.34" height="103.33" transform="translate(0.21 -0.94) rotate(0.15)"/><rect class="cls-1" x="217.55" y="92.97" width="53.89" height="26.4" transform="translate(0.28 -0.65) rotate(0.15)"/><rect class="cls-1" x="216.69" y="114.35" width="51.81" height="6.48" transform="translate(0.31 -0.65) rotate(0.15)"/><rect class="cls-1" x="216.68" y="120.09" width="26.21" height="5.01" transform="translate(0.33 -0.61) rotate(0.15)"/><rect class="cls-1" x="216.68" y="118.98" width="14.23" height="7.36" transform="translate(0.33 -0.6) rotate(0.15)"/><circle class="cls-2" cx="303.17" cy="116.92" r="7.35"/><rect class="cls-2" x="216.2" y="129.81" width="0.46" height="0.88" transform="translate(0.35 -0.58) rotate(0.15)"/><text class="cls-3" transform="translate(27.6 103.4) rotate(0.15)">2</text></g></g></svg>