<svg xmlns="http://www.w3.org/2000/svg" viewBox="0 0 422.85 316.41"><defs><style>.cls-1,.cls-3{fill:#f1f6e5;}.cls-2{fill:#18190f;}.cls-3{font-size:86.88px;font-family:HelveticaNeueLTStd-Md, Helvetica Neue LT Std;font-weight:500;}</style></defs><g id="Layer_2" data-name="Layer 2"><g id="Layer_1-2" data-name="Layer 1"><rect class="cls-1" x="249.12" y="181.96" width="13.86" height="3.61" transform="translate(-57.78 154.72) rotate(-30.38)"/><rect class="cls-1" x="249.95" y="183.58" width="7.53" height="4.91" transform="translate(-59.24 153.84) rotate(-30.38)"/><path class="cls-1" d="M253.4,189.31c3.22,0,3.23-5,0-5s-3.22,5,0,5Z"/><path class="cls-1" d="M255,188.78c1.71-1.31,3.44-2.62,5-4.07a48.09,48.09,0,0,0,4.19-4.49,2.68,2.68,0,0,0,.73-1.76,2.5,2.5,0,0,0-4.27-1.77,49.42,49.42,0,0,1-4.06,4.38c-.7.64-1.42,1.25-2.16,1.84-.38.3-.76.61-1.14.9l-.32.25c.1-.08.37-.29.12-.09l-.65.49a2.78,2.78,0,0,0-1.15,1.5,2.53,2.53,0,0,0,.26,1.92A2.46,2.46,0,0,0,253,189a2.41,2.41,0,0,0,1.93-.25Z"/><path class="cls-1" d="M252.84,190.29l.33-.1a2.61,2.61,0,0,0,1.1-.62.63.63,0,0,0-.44-1.07.75.75,0,0,0-.45.18.86.86,0,0,1-.14.13l.12-.1a1.76,1.76,0,0,1-.44.26l.15-.06c-.18.07-.38.1-.57.18a.43.43,0,0,0-.21.11.44.44,0,0,0-.16.17.62.62,0,0,0,.71.92Z"/><path class="cls-1" d="M252.69,189.23l-.48.38.12-.1,0,0,.15-.06h0l.17,0h0l.16,0h0l.15.06h0l.13.1,0,0,.1.13a1.32,1.32,0,0,1-.12-.2l-.13-.22a.62.62,0,0,0-.37-.28.43.43,0,0,0-.25,0,.39.39,0,0,0-.23.07.67.67,0,0,0-.29.37.61.61,0,0,0,.07.48l.17.3a1.1,1.1,0,0,0,.17.25.71.71,0,0,0,.3.18h0l.17,0h.09l.1,0a.92.92,0,0,0,.3-.18l.07-.05.14-.11.28-.22a.53.53,0,0,0,.13-.2.6.6,0,0,0,0-.48.46.46,0,0,0-.13-.2.68.68,0,0,0-.44-.19l-.17,0a.61.61,0,0,0-.28.16Z"/><rect class="cls-1" x="251.92" y="189.65" width="1.04" height="1.27" transform="translate(-61.57 153.78) rotate(-30.38)"/><rect class="cls-1" x="252.28" y="190.94" width="0.26" height="0.13" transform="translate(-61.94 153.87) rotate(-30.38)"/><rect class="cls-2" x="251.9" y="191.04" width="0.46" height="0.39" transform="matrix(0.86, -0.51, 0.51, 0.86, -62.09, 153.76)"/><circle class="cls-2" cx="320.19" cy="135.9" r="7.35"/><rect class="cls-2" x="22.48" y="124.08" width="216.61" height="147.7" transform="translate(-82.14 93.31) rotate(-30.38)"/><path class="cls-1" d="M246,178.62c17-3.45,30-17.81,46.8-21.94"/><path class="cls-1" d="M203.35,105.08a356.24,356.24,0,0,1,45.13-26"/><path class="cls-1" d="M236.88,85.52l-18.11,3.07c-1.91.32-3.83.64-5.71,1.11-5.69,1.42-11,4.15-16.09,7"/><path class="cls-1" d="M248.77,78.89c-6.64,3.54-13.92,5.67-21.15,7.77-12.17,3.54-24.4,7.09-37,8.65-4.88.6-9.79.91-14.6,1.91-6.6,1.38-12.84,4-19,6.7-15.65,6.71-32.11,14-42,27.94-3.4,4.8-5.87,10.21-9.18,15.08-3.45,5.08-7.85,9.64-10,15.38s-1.27,13.36,4,16.41a13,13,0,0,0,6.18,1.51c8.94.21,17.15-5.12,23.4-11.52s11.19-14,17.55-20.29,14.82-11.34,23.74-10.65c4.91.38,9.51,2.45,14.2,4,19.06,6.16,42,2.09,55.27-13"/><path class="cls-1" d="M165,137.63a26.81,26.81,0,0,0,19-15.94"/><path class="cls-1" d="M293.43,155.72a39.52,39.52,0,0,1-9.52,6.57c-3.12,1.54-6.48,2.68-9.32,4.7-5.13,3.66-7.91,9.7-11.75,14.69a40,40,0,0,1-10.71,9.62"/><rect class="cls-1" x="221.17" y="86.1" width="54.72" height="88.86" transform="translate(-31.89 143.6) rotate(-30.38)"/><path class="cls-1" d="M280.67,165.41c3.85-3.7,9-5.82,12.87-9.49.22-.21.41-.64.12-.75-1.25.9-2.29,2.06-3.51,3a25.09,25.09,0,0,1-3.52,2.12l-16,8.53a18.1,18.1,0,0,0-2.29,1.35,34.33,34.33,0,0,0-2.63,2.34,48.11,48.11,0,0,1-5.31,4"/><path class="cls-1" d="M252.78,189.66a.48.48,0,0,1-.09.37,57.56,57.56,0,0,0-4.39-7.57l.11.34"/><path class="cls-1" d="M253,189.93c1.2-1.84,3.21-2.94,5-4.23a39.84,39.84,0,0,0,5.2-4.69,43.33,43.33,0,0,0,5.51-6.66,27,27,0,0,0,2.81-5.71"/><path class="cls-1" d="M252.94,190.12a42.73,42.73,0,0,0,3.88-3.09c4.75-4.12,9.52-8.25,13.86-12.8q3.24-3.4,6.15-7.11"/><path class="cls-1" d="M253.45,187.77a63.17,63.17,0,0,0-3.51-6l2.71,4.12a11,11,0,0,1-2.6-6.29,14.59,14.59,0,0,1,5,6.76c-.41.21-.87-.19-1.16-.55a12.25,12.25,0,0,1-2.9-5.05,11.12,11.12,0,0,1,4.24,5.75,17,17,0,0,1-2.69-6.58,8.77,8.77,0,0,1,3.65,3.64c.25.47.39,1.19-.08,1.45a13.83,13.83,0,0,1-3.05-6.56,18.55,18.55,0,0,1,4.49,5.59,2.37,2.37,0,0,1,.23,2.39,10.68,10.68,0,0,1-2.92-7.66.7.7,0,0,1,.12-.43c.27-.32.77,0,1,.37,1.33,1.76,2.74,3.86,2.23,6a19.13,19.13,0,0,1-1.38-7.88,1,1,0,0,1,.17-.61c.35-.39,1,0,1.29.43a6.39,6.39,0,0,1,.42,6.79,5.66,5.66,0,0,1,1-3.62,15.14,15.14,0,0,1,4.2-4.6c-.11,3-2.14,5.53-4.16,7.74a49.3,49.3,0,0,1,7.64-9.68,80.21,80.21,0,0,1-6.74,8.62,65.05,65.05,0,0,1,7.67-10.9,3.46,3.46,0,0,0,1.14-2.22,46.48,46.48,0,0,1-8.2,9.71L267,172.8l-9.17,5.14a68.86,68.86,0,0,0,6.65-4.46,40.88,40.88,0,0,0-5.72,3.85l2.16-.48c.36-.08.83-.12,1,.19a.86.86,0,0,1,0,.78,9.72,9.72,0,0,1-3.22,4.19l1.9-1.49a30.93,30.93,0,0,1-2,3.5l1.55-1a3.23,3.23,0,0,1-.95,1.25,7.71,7.71,0,0,0,.4-5.37,1.41,1.41,0,0,1-2.16-1.63l.46,2.12a2.38,2.38,0,0,1,.6-2.83,8.81,8.81,0,0,1,2.71-1.52,24.25,24.25,0,0,0,6.72-4.38,4,4,0,0,0-2,1.46l3.51-1.65a5.55,5.55,0,0,1-1.8,1.84,9.55,9.55,0,0,1,2.72-1.6,5.63,5.63,0,0,1-2.28,2.1,2.82,2.82,0,0,0,2-1.74"/><rect class="cls-2" x="271.32" y="63.66" width="17.62" height="98.52" transform="translate(-18.64 157.16) rotate(-30.38)"/><rect class="cls-1" x="279.06" y="24.85" width="126.34" height="103.33" transform="translate(8.29 183.57) rotate(-30.38)"/><rect class="cls-1" x="237.24" y="143.24" width="53.89" height="26.4" transform="translate(-42.84 155.08) rotate(-30.38)"/><rect class="cls-1" x="242.45" y="164" width="51.81" height="6.48" transform="translate(-47.73 158.67) rotate(-30.38)"/><rect class="cls-1" x="246.76" y="175.55" width="26.21" height="5.01" transform="translate(-54.37 155.86) rotate(-30.38)"/><rect class="cls-1" x="247.62" y="177.48" width="14.23" height="7.36" transform="translate(-56.64 153.69) rotate(-30.38)"/><circle class="cls-2" cx="320.19" cy="135.9" r="7.35"/><rect class="cls-2" x="252.02" y="191" width="0.46" height="0.88" transform="translate(-62.18 153.84) rotate(-30.38)"/><text class="cls-3" transform="matrix(0.86, -0.51, 0.51, 0.86, 75.92, 264.21)">2</text></g></g></svg>