<svg xmlns="http://www.w3.org/2000/svg" viewBox="0 0 415.97 148.87"><defs><style>.cls-1{fill:#f1f6e5;}.cls-2,.cls-3{fill:#18190f;}.cls-3{font-size:86.88px;font-family:HelveticaNeueLTStd-Md, Helvetica Neue LT Std;font-weight:500;}</style></defs><g id="Layer_2" data-name="Layer 2"><g id="Layer_1-2" data-name="Layer 1"><rect class="cls-1" x="0.4" y="0.58" width="216.61" height="147.7" transform="translate(-0.4 0.59) rotate(-0.31)"/><rect class="cls-1" x="271.73" y="26.43" width="17.62" height="98.52" transform="translate(-0.41 1.52) rotate(-0.31)"/><rect class="cls-2" x="289.36" y="23.63" width="126.34" height="103.33" transform="translate(-0.4 1.91) rotate(-0.31)"/><circle class="cls-1" cx="305.68" cy="115.63" r="7.35"/><path class="cls-2" d="M218.08,115.43c16.41,5.52,34.87-.38,51.49,4.47"/><path class="cls-2" d="M218,30.43a356.15,356.15,0,0,1,52.06.14"/><path class="cls-2" d="M256.85,30.31l-17.21-6.42c-1.82-.68-3.64-1.36-5.5-1.9-5.64-1.62-11.56-1.9-17.43-2"/><path class="cls-2" d="M270.46,30.53c-7.52-.26-14.89-2.07-22.2-3.88-12.3-3-24.67-6.08-36.33-11-4.52-1.92-8.93-4.12-13.59-5.66C191.94,7.84,185.2,7,178.5,6.22c-16.9-2-34.82-3.94-50.31,3.15-5.35,2.45-10.19,5.9-15.5,8.45-5.53,2.67-11.62,4.41-16.38,8.28S88.51,37,91.59,42.34a13,13,0,0,0,4.59,4.4c7.64,4.66,17.41,4.16,26,1.76S138.9,42,147.56,39.73s18.51-2.39,25.88,2.67c4.07,2.79,7,6.89,10.3,10.55,13.41,14.89,35.35,22.89,54.33,16.48"/><path class="cls-2" d="M168.56,39.41A26.82,26.82,0,0,0,193,35.15"/><path class="cls-2" d="M270.61,119.39a39.49,39.49,0,0,1-11.52.92c-3.48-.24-7-.93-10.43-.6-6.28.6-11.7,4.43-17.53,6.82a39.82,39.82,0,0,1-14.09,3"/><rect class="cls-2" x="217.01" y="30.67" width="54.72" height="88.86" transform="translate(-0.4 1.32) rotate(-0.31)"/><path class="cls-2" d="M254.72,121.38c5.18-1.26,10.69-.53,15.89-1.76.3-.07.67-.35.48-.59-1.53.16-3,.63-4.54.83a25.53,25.53,0,0,1-4.1.08l-18.11-.64a19.66,19.66,0,0,0-2.66,0,34,34,0,0,0-3.45.71,46.86,46.86,0,0,1-6.59.79"/><path class="cls-2" d="M218.43,128.4a.48.48,0,0,1-.27.27,56.8,56.8,0,0,0,0-8.75l-.07.35"/><path class="cls-2" d="M218.45,128.72c2-1,4.26-.93,6.44-1.16a40.14,40.14,0,0,0,6.85-1.45,44.75,44.75,0,0,0,8.1-3,27.37,27.37,0,0,0,5.3-3.54"/><path class="cls-2" d="M218.34,128.87a40.49,40.49,0,0,0,4.9-.73c6.18-1.18,12.37-2.36,18.41-4.13q4.51-1.32,8.88-3.07"/><path class="cls-2" d="M220,127.09a66.18,66.18,0,0,0-.06-6.9l.28,4.93a11.09,11.09,0,0,1,.9-6.76,14.53,14.53,0,0,1,.94,8.36c-.46,0-.65-.59-.73-1a12.35,12.35,0,0,1,0-5.83,11.06,11.06,0,0,1,.79,7.1,17.19,17.19,0,0,1,1-7,8.72,8.72,0,0,1,1.34,5c0,.55-.26,1.24-.8,1.23a13.93,13.93,0,0,1,.64-7.21,18.38,18.38,0,0,1,1.09,7.09c0,.84-.23,1.84-1,2.18a10.69,10.69,0,0,1,1.32-8.09.66.66,0,0,1,.32-.32c.39-.14.65.42.7.84.27,2.2.44,4.72-1.09,6.32a19.42,19.42,0,0,1,2.76-7.51,1,1,0,0,1,.45-.44c.5-.16.85.49.91,1a6.41,6.41,0,0,1-3,6.1,5.7,5.7,0,0,1,2.66-2.65,15.37,15.37,0,0,1,5.94-1.88c-1.59,2.54-4.62,3.72-7.48,4.62a49.28,49.28,0,0,1,11.46-4.55,80.25,80.25,0,0,1-10.15,4.08,65,65,0,0,1,12.1-5.59,3.44,3.44,0,0,0,2.1-1.35,46.33,46.33,0,0,1-12,4.29l7.87-2.09-10.52-.15a69,69,0,0,0,8-.53,40.6,40.6,0,0,0-6.88.47l2.11.67c.35.11.77.3.79.68a.92.92,0,0,1-.43.65,9.85,9.85,0,0,1-4.89,2l2.39-.34a27.47,27.47,0,0,1-3.48,2l1.86-.1a3.22,3.22,0,0,1-1.45.61,7.68,7.68,0,0,0,3-4.44,1.4,1.4,0,0,1-1-2.5l-.68,2.07a2.41,2.41,0,0,1,1.94-2.15,8.79,8.79,0,0,1,3.11,0,24.23,24.23,0,0,0,8-.43,4,4,0,0,0-2.49.26l3.87.33a5.68,5.68,0,0,1-2.48.68,10.09,10.09,0,0,1,3.15,0,5.64,5.64,0,0,1-3,.68,2.83,2.83,0,0,0,2.6-.51"/><rect class="cls-2" x="218" y="92.17" width="53.89" height="26.4" transform="translate(-0.57 1.33) rotate(-0.31)"/><rect class="cls-2" x="217.24" y="113.56" width="51.81" height="6.48" transform="translate(-0.63 1.32) rotate(-0.31)"/><rect class="cls-2" x="217.27" y="119.4" width="26.21" height="5.01" transform="translate(-0.66 1.25) rotate(-0.31)"/><rect class="cls-2" x="217.27" y="118.34" width="14.23" height="7.36" transform="translate(-0.66 1.21) rotate(-0.31)"/><rect class="cls-2" x="217.28" y="123.13" width="13.86" height="3.61" transform="translate(-0.67 1.21) rotate(-0.31)"/><rect class="cls-2" x="217.29" y="123.27" width="7.53" height="4.91" transform="translate(-0.68 1.2) rotate(-0.31)"/><path class="cls-2" d="M220.74,126.23a57.39,57.39,0,0,0,7-1.22c1.56-.4,3.08-.94,4.61-1.48"/><path class="cls-2" d="M218.32,128.37c.13,0,.25.06.37.09a2,2,0,0,0,.91,0"/><path class="cls-2" d="M218.73,128.58l-.61.09h-.06s0,0,0-.08v-.45"/><rect class="cls-2" x="217.3" y="128.14" width="1.04" height="1.27" transform="translate(-0.69 1.18) rotate(-0.31)"/><rect class="cls-2" x="218.14" y="128.13" width="0.94" height="1.13" transform="translate(-0.69 1.18) rotate(-0.31)"/><rect class="cls-2" x="217.31" y="129.32" width="0.26" height="0.13" transform="translate(-0.7 1.18) rotate(-0.31)"/><rect class="cls-2" x="218.24" y="128.12" width="3" height="0.99" transform="translate(-0.69 1.19) rotate(-0.31)"/><rect class="cls-2" x="220.97" y="126.92" width="10.02" height="0.99" transform="translate(-23.24 55.35) rotate(-13.29)"/><rect class="cls-2" x="228.6" y="126.13" width="1.52" height="1.04" transform="translate(-24.62 62.29) rotate(-14.69)"/><rect class="cls-1" x="216.75" y="128.7" width="0.56" height="1.92" transform="translate(-0.7 1.18) rotate(-0.31)"/><text class="cls-3" transform="translate(23.45 104.33) rotate(-0.31)">1</text></g></g></svg>