<svg xmlns="http://www.w3.org/2000/svg" viewBox="0 0 242 86.8"><defs><style>.cls-1,.cls-3{fill:#f1f6e5;}.cls-2{fill:#18190f;}.cls-3{font-size:50px;font-family:HelveticaNeueLTStd-Md, Helvetica Neue LT Std;font-weight:500;}</style></defs><g id="Layer_2" data-name="Layer 2"><g id="Layer_1-2" data-name="Layer 1"><rect class="cls-1" x="126.15" y="75.35" width="0.6" height="0.74" transform="translate(0.2 -0.34) rotate(0.15)"/><rect class="cls-1" x="126.15" y="76.04" width="0.15" height="0.08" transform="translate(0.2 -0.34) rotate(0.15)"/><rect class="cls-2" x="125.89" y="76" width="0.27" height="0.23" transform="translate(0.2 -0.34) rotate(0.15)"/><rect class="cls-2" x="125.89" y="75.99" width="0.27" height="0.51" transform="translate(0.2 -0.34) rotate(0.15)"/><rect class="cls-1" x="126.65" y="75.3" width="1.97" height="0.49"/><rect class="cls-1" x="126.42" y="75.76" width="1.27" height="0.24"/><rect class="cls-1" x="127.57" y="75.62" width="0.36" height="0.29"/><rect class="cls-1" x="127.82" y="75.56" width="0.29" height="0.31"/><rect class="cls-1" x="128.47" y="75.27" width="1.52" height="0.43"/><rect class="cls-1" x="129.8" y="75.14" width="0.44" height="0.36"/><rect class="cls-1" x="130.47" y="74.95" width="0.71" height="0.49"/><rect class="cls-1" x="130.95" y="74.92" width="0.93" height="0.32"/><rect class="cls-1" x="132.43" y="74.87" width="0.2" height="0.12"/><rect class="cls-1" x="126.16" y="72.45" width="8.07" height="2.11" transform="translate(0.2 -0.35) rotate(0.15)"/><rect class="cls-1" x="126.16" y="72.52" width="4.39" height="2.87" transform="translate(0.2 -0.34) rotate(0.15)"/><rect class="cls-1" x="126.16" y="70.3" width="15.26" height="2.93" transform="translate(0.19 -0.36) rotate(0.15)"/><rect class="cls-1" x="126.16" y="69.65" width="8.28" height="4.31" transform="translate(0.19 -0.35) rotate(0.15)"/><ellipse class="cls-2" cx="176.53" cy="68.45" rx="4.28" ry="4.3"/><rect class="cls-2" x="0.11" y="0.17" width="126.13" height="86.46" transform="translate(0.12 -0.17) rotate(0.15)"/><path class="cls-1" d="M126.67,67.92c9.53,3.31,20.3-.06,30,2.85"/><path class="cls-1" d="M127,18.16a204.43,204.43,0,0,1,30.31.33"/><path class="cls-1" d="M149.64,18.27l-10-3.84c-1.05-.41-2.11-.81-3.19-1.13A39.25,39.25,0,0,0,126.32,12"/><path class="cls-1" d="M157.57,18.46a62.57,62.57,0,0,1-12.91-2.37c-7.15-1.83-14.34-3.68-21.1-6.63-2.62-1.15-5.18-2.46-7.89-3.38A58.56,58.56,0,0,0,104.14,3.8C94.3,2.52,83.88,1.33,74.83,5.4c-3.13,1.41-6,3.41-9.06,4.88S59,12.8,56.19,15.05s-4.59,6.36-2.83,9.48A7.61,7.61,0,0,0,56,27.13c4.42,2.77,10.11,2.52,15.14,1.15s9.75-3.74,14.81-5S96.75,22,101,25c2.35,1.65,4,4.06,6,6.22,7.74,8.78,20.47,13.56,31.55,9.9"/><path class="cls-1" d="M98.19,23.18a15.56,15.56,0,0,0,14.27-2.37"/><path class="cls-1" d="M157.24,70.48a23,23,0,0,1-6.72.49,37.46,37.46,0,0,0-6.07-.41c-3.65.32-6.83,2.54-10.24,3.92A23.08,23.08,0,0,1,126,76.14"/><rect class="cls-1" x="126.24" y="18.42" width="31.86" height="52.02" transform="translate(0.12 -0.38) rotate(0.15)"/><path class="cls-1" d="M148,71.57c3-.71,6.23-.26,9.26-.95.18,0,.4-.21.28-.35-.89.09-1.75.36-2.64.47a14.66,14.66,0,0,1-2.39,0l-10.54-.45a10,10,0,0,0-1.55,0,19.84,19.84,0,0,0-2,.4,27.35,27.35,0,0,1-3.84.43"/><path class="cls-1" d="M126.81,75.51a.29.29,0,0,1-.15.16,33.79,33.79,0,0,0,0-5.13l0,.21"/><path class="cls-1" d="M126.82,75.7a10.51,10.51,0,0,1,3.76-.65,23.75,23.75,0,0,0,4-.82,25.83,25.83,0,0,0,4.74-1.72,16.2,16.2,0,0,0,3.09-2"/><path class="cls-1" d="M126.76,75.79a25.25,25.25,0,0,0,2.86-.41c3.6-.66,7.21-1.32,10.73-2.33,1.76-.5,3.49-1.09,5.19-1.75"/><path class="cls-1" d="M127.71,74.75a38.89,38.89,0,0,0,0-4l.14,2.89a6.47,6.47,0,0,1,.55-3.95,8.61,8.61,0,0,1,.51,4.89c-.27,0-.38-.35-.42-.62a7.27,7.27,0,0,1,0-3.41,6.62,6.62,0,0,1,.43,4.16,10.09,10.09,0,0,1,.59-4.11,5,5,0,0,1,.76,2.91c0,.32-.16.72-.47.71a8.06,8.06,0,0,1,.41-4.21,11.06,11.06,0,0,1,.6,4.15c0,.5-.15,1.08-.6,1.28a6.29,6.29,0,0,1,.81-4.73.39.39,0,0,1,.19-.19c.23-.08.37.25.4.49.15,1.29.24,2.77-.66,3.7a11.47,11.47,0,0,1,1.64-4.38.57.57,0,0,1,.27-.26c.28-.09.49.29.52.6a3.74,3.74,0,0,1-1.8,3.55,3.31,3.31,0,0,1,1.56-1.53,9.07,9.07,0,0,1,3.47-1.08c-.94,1.48-2.71,2.16-4.38,2.67a29.21,29.21,0,0,1,6.7-2.61A45.64,45.64,0,0,1,133,74a37.52,37.52,0,0,1,7.07-3.21,2,2,0,0,0,1.23-.78,27,27,0,0,1-7,2.45l4.59-1.19-6.12-.13a40.32,40.32,0,0,0,4.66-.27,23.41,23.41,0,0,0-4,.24l1.23.4c.2.07.45.18.45.4s-.12.28-.25.38a5.63,5.63,0,0,1-2.85,1.15l1.39-.18a17.8,17.8,0,0,1-2,1.17l1.08-.05a1.82,1.82,0,0,1-.85.35,4.57,4.57,0,0,0,1.79-2.59.82.82,0,0,1-.6-1.46l-.4,1.2a1.41,1.41,0,0,1,1.14-1.25,5.25,5.25,0,0,1,1.81,0,14,14,0,0,0,4.66-.21,2.33,2.33,0,0,0-1.45.14l2.25.21a3.17,3.17,0,0,1-1.44.39,5.62,5.62,0,0,1,1.83,0,3.27,3.27,0,0,1-1.76.39,1.64,1.64,0,0,0,1.51-.29"/><rect class="cls-2" x="158.1" y="16.11" width="10.26" height="57.67" transform="translate(0.12 -0.44) rotate(0.15)"/><rect class="cls-1" x="168.36" y="14.81" width="73.56" height="60.49" transform="translate(0.12 -0.55) rotate(0.15)"/><rect class="cls-1" x="126.67" y="54.42" width="31.38" height="15.45" transform="translate(0.17 -0.38) rotate(0.15)"/><rect class="cls-1" x="126.17" y="66.94" width="30.17" height="3.8" transform="translate(0.19 -0.38) rotate(0.15)"/><ellipse class="cls-2" cx="176.53" cy="68.45" rx="4.28" ry="4.3"/><text class="cls-3" transform="translate(21.4 62.39) rotate(-0.31)">8</text><rect class="cls-1" x="130.38" y="74.73" width="1.77" height="0.36"/><rect class="cls-1" x="132.01" y="74.78" width="0.51" height="0.28"/><rect class="cls-1" x="132.49" y="74.63" width="0.49" height="0.25"/><rect class="cls-1" x="132.17" y="74.8" width="0.74" height="0.15"/><rect class="cls-1" x="133.37" y="74.35" width="0.84" height="0.26"/><rect class="cls-1" x="133.05" y="74.48" width="0.87" height="0.13"/><rect class="cls-1" x="132.81" y="74.5" width="1.06" height="0.19"/><rect class="cls-1" x="132.69" y="74.67" width="0.97" height="0.07"/><rect class="cls-1" x="132.8" y="74.65" width="0.83" height="0.16" transform="translate(-18.58 57.71) rotate(-22.9)"/><rect class="cls-1" x="133.16" y="74.71" width="0.38" height="0.06"/><rect class="cls-1" x="133.21" y="74.72" width="0.21" height="0.07"/><rect class="cls-1" x="133.4" y="74.69" width="0.05" height="0.09"/><rect class="cls-1" x="133.18" y="74.74" width="0.19" height="0.06"/><rect class="cls-1" x="133.16" y="74.69" width="0.08" height="0.14"/><rect class="cls-1" x="133.35" y="74.78" width="0.03" height="0.01"/><rect class="cls-1" x="133.24" y="74.77" width="0.04" height="0.06"/><rect class="cls-1" x="133.21" y="74.78" width="0.17" height="0.03" transform="translate(-13.15 31.04) rotate(-12.66)"/><rect class="cls-1" x="133.27" y="74.81" width="0.03" height="0.01"/><rect class="cls-1" x="133.27" y="74.79" width="0.1" height="0.02" transform="translate(-13.16 31.05) rotate(-12.66)"/></g></g></svg>