<svg xmlns="http://www.w3.org/2000/svg" viewBox="0 0 415.29 147.7"><defs><style>.cls-1,.cls-3{fill:#f1f6e5;}.cls-2{fill:#18190f;}.cls-3{font-size:86.88px;font-family:HelveticaNeueLTStd-Md, Helvetica Neue LT Std;font-weight:500;}</style></defs><g id="Layer_2" data-name="Layer 2"><g id="Layer_1-2" data-name="Layer 1"><rect class="cls-1" x="216.61" y="123.17" width="13.86" height="3.61"/><rect class="cls-1" x="216.61" y="123.29" width="7.53" height="4.91"/><path class="cls-1" d="M219.72,128.76c3.22,0,3.22-5,0-5s-3.22,5,0,5Z"/><path class="cls-1" d="M220.06,128.75c2.18-.27,4.36-.53,6.51-1a47.81,47.81,0,0,0,5.81-1.74,2.5,2.5,0,0,0-1.33-4.82,49.45,49.45,0,0,1-5.6,1.69c-.94.21-1.89.38-2.84.52l-.78.11-.22,0-1.55.2a2.57,2.57,0,0,0-2.5,2.5c.06,1.21,1.11,2.67,2.5,2.5Z"/><path class="cls-1" d="M217.46,129l.33.08a3.55,3.55,0,0,0,.47.08,2.53,2.53,0,0,0,.82-.06.67.67,0,0,0,.37-.29.62.62,0,0,0,.06-.48.65.65,0,0,0-.77-.44l-.19,0,.17,0a1.74,1.74,0,0,1-.51,0l.17,0c-.2,0-.39-.1-.59-.14a.52.52,0,0,0-.25,0,.49.49,0,0,0-.23.08.58.58,0,0,0-.28.37.62.62,0,0,0,.06.48.6.6,0,0,0,.37.29Z"/><path class="cls-1" d="M218,128l-.33,0-.17,0a.71.71,0,0,1-.15,0l.17,0h0l.15.07h0l.13.09h0l.1.12h0l.06.15v0l0,.17a1.76,1.76,0,0,1,0-.23v-.25a.48.48,0,0,0-.06-.24.37.37,0,0,0-.12-.2.46.46,0,0,0-.21-.13.39.39,0,0,0-.24,0,.6.6,0,0,0-.44.18.65.65,0,0,0-.18.44v.34a1.62,1.62,0,0,0,0,.31l0,.09a.48.48,0,0,0,.14.22.62.62,0,0,0,.3.18.77.77,0,0,0,.3,0l.18,0,.34,0a.47.47,0,0,0,.24-.05.46.46,0,0,0,.2-.13.49.49,0,0,0,.13-.2.43.43,0,0,0,0-.25.62.62,0,0,0-.18-.44l-.12-.09A.62.62,0,0,0,218,128Z"/><rect class="cls-1" x="216.61" y="128.14" width="1.04" height="1.27"/><rect class="cls-1" x="216.61" y="129.32" width="0.26" height="0.13"/><rect class="cls-2" x="216.15" y="129.24" width="0.46" height="0.39"/><circle class="cls-2" cx="303.09" cy="116.12" r="7.35"/><rect class="cls-2" width="216.61" height="147.7"/><path class="cls-1" d="M217.46,115.44c16.37,5.61,34.87-.2,51.46,4.74"/><path class="cls-1" d="M217.87,30.44a356.16,356.16,0,0,1,52.06.42"/><path class="cls-1" d="M256.69,30.53,239.51,24c-1.81-.69-3.63-1.38-5.49-1.92-5.62-1.65-11.55-2-17.41-2.12"/><path class="cls-1" d="M270.3,30.82c-7.52-.3-14.88-2.15-22.18-4-12.29-3.11-24.64-6.23-36.27-11.24-4.51-1.95-8.91-4.17-13.56-5.73-6.39-2.15-13.13-3-19.81-3.85-16.9-2.13-34.81-4.13-50.33,2.88-5.37,2.42-10.23,5.84-15.55,8.37C107.06,19.9,101,21.6,96.17,25.45s-7.85,10.89-4.81,16.22a13.16,13.16,0,0,0,4.57,4.42c7.61,4.7,17.39,4.26,26,1.9s16.73-6.43,25.4-8.63,18.52-2.29,25.87,2.81c4,2.81,7,6.92,10.24,10.6,13.33,15,35.22,23.08,54.24,16.77"/><path class="cls-1" d="M168.35,39.15A26.87,26.87,0,0,0,192.84,35"/><path class="cls-1" d="M270,119.68a39.52,39.52,0,0,1-11.53.86c-3.48-.26-6.95-1-10.42-.66-6.28.56-11.73,4.37-17.57,6.73a39.66,39.66,0,0,1-14.1,2.88"/><rect class="cls-1" x="216.61" y="30.82" width="54.72" height="88.86"/><path class="cls-1" d="M254.07,121.59c5.19-1.24,10.69-.47,15.89-1.67.3-.07.68-.36.49-.59-1.54.15-3,.61-4.54.8a24.52,24.52,0,0,1-4.11.05l-18.1-.73a18.16,18.16,0,0,0-2.66,0,28.85,28.85,0,0,0-3.45.69,48.66,48.66,0,0,1-6.6.75"/><path class="cls-1" d="M217.74,128.41a.51.51,0,0,1-.27.27,56.8,56.8,0,0,0,0-8.75l-.07.35"/><path class="cls-1" d="M217.75,128.73c2-1,4.27-.91,6.46-1.13a39.3,39.3,0,0,0,6.85-1.41,44.06,44.06,0,0,0,8.12-3,27.25,27.25,0,0,0,5.31-3.5"/><path class="cls-1" d="M217.65,128.88a40.42,40.42,0,0,0,4.9-.7c6.19-1.15,12.39-2.3,18.43-4q4.53-1.31,8.9-3"/><path class="cls-1" d="M219.27,127.11a63.71,63.71,0,0,0,0-6.91l.26,4.94a11.05,11.05,0,0,1,.93-6.75,14.59,14.59,0,0,1,.9,8.36c-.46,0-.65-.6-.72-1.06a12.18,12.18,0,0,1,0-5.82,11.11,11.11,0,0,1,.75,7.1,17,17,0,0,1,1-7,8.69,8.69,0,0,1,1.3,5c0,.55-.26,1.24-.8,1.22a14,14,0,0,1,.68-7.2,18.63,18.63,0,0,1,1.06,7.1c0,.84-.25,1.83-1,2.17a10.67,10.67,0,0,1,1.36-8.08.71.71,0,0,1,.32-.32c.4-.13.65.42.7.84.26,2.2.42,4.72-1.12,6.32a19.44,19.44,0,0,1,2.8-7.5,1,1,0,0,1,.45-.44c.5-.16.85.5.91,1a6.42,6.42,0,0,1-3.08,6.08,5.68,5.68,0,0,1,2.67-2.63,15.42,15.42,0,0,1,6-1.85c-1.61,2.53-4.65,3.69-7.51,4.58a49.33,49.33,0,0,1,11.49-4.49,81,81,0,0,1-10.18,4,65.15,65.15,0,0,1,12.14-5.53,3.44,3.44,0,0,0,2.1-1.33,46.74,46.74,0,0,1-12,4.22l7.88-2.05-10.51-.2a68.86,68.86,0,0,0,8-.49,41.63,41.63,0,0,0-6.88.43l2.1.68c.36.11.78.31.79.68a.87.87,0,0,1-.43.65,9.7,9.7,0,0,1-4.9,2l2.39-.32a30.16,30.16,0,0,1-3.49,2l1.86-.1a3.09,3.09,0,0,1-1.46.6,7.65,7.65,0,0,0,3.06-4.42,1.41,1.41,0,0,1-1-2.5l-.68,2.06a2.4,2.4,0,0,1,1.95-2.14,8.8,8.8,0,0,1,3.11.06,24,24,0,0,0,8-.39,4.08,4.08,0,0,0-2.49.24l3.86.36a5.67,5.67,0,0,1-2.48.67,10.08,10.08,0,0,1,3.15,0,5.68,5.68,0,0,1-3,.67,2.84,2.84,0,0,0,2.59-.5"/><rect class="cls-2" x="271.33" y="26.77" width="17.62" height="98.52"/><rect class="cls-1" x="288.95" y="24.37" width="126.34" height="103.33"/><rect class="cls-1" x="217.44" y="92.32" width="53.89" height="26.4"/><rect class="cls-1" x="216.61" y="113.7" width="51.81" height="6.48"/><rect class="cls-1" x="216.61" y="119.48" width="26.21" height="5.01"/><rect class="cls-1" x="216.61" y="118.39" width="14.23" height="7.36"/><circle class="cls-2" cx="303.09" cy="116.12" r="7.35"/><rect class="cls-2" x="216.15" y="129.23" width="0.46" height="0.88"/><text class="cls-3" transform="translate(27.46 103.28)">1</text></g></g></svg>