<svg xmlns="http://www.w3.org/2000/svg" viewBox="0 0 415.29 147.7"><defs><style>.cls-1{fill:#f1f6e5;}.cls-2,.cls-3{fill:#18190f;}.cls-3{font-size:86.88px;font-family:HelveticaNeueLTStd-Md, Helvetica Neue LT Std;font-weight:500;}</style></defs><g id="Layer_2" data-name="Layer 2"><g id="Layer_1-2" data-name="Layer 1"><rect class="cls-1" width="216.61" height="147.7"/><rect class="cls-1" x="271.33" y="26.77" width="17.62" height="98.52"/><rect class="cls-2" x="288.95" y="24.37" width="126.34" height="103.33"/><circle class="cls-1" cx="305.06" cy="116.12" r="7.35"/><path class="cls-2" d="M217.46,115.44c16.38,5.61,34.87-.19,51.46,4.75"/><path class="cls-2" d="M217.87,30.44a356.15,356.15,0,0,1,52.06.42"/><path class="cls-2" d="M256.69,30.53,239.51,24c-1.81-.68-3.63-1.37-5.49-1.92-5.62-1.65-11.55-2-17.41-2.12"/><path class="cls-2" d="M270.3,30.82c-7.52-.3-14.88-2.15-22.18-4-12.29-3.1-24.63-6.22-36.27-11.24-4.51-1.94-8.91-4.17-13.56-5.73-6.39-2.15-13.13-3-19.81-3.85-16.9-2.13-34.81-4.13-50.33,2.88-5.37,2.42-10.23,5.84-15.55,8.37C107.06,19.9,101,21.6,96.17,25.45s-7.85,10.89-4.8,16.22a13,13,0,0,0,4.56,4.42c7.61,4.7,17.39,4.26,26,1.9s16.73-6.43,25.4-8.63,18.52-2.29,25.87,2.81c4.05,2.81,7,6.93,10.24,10.61,13.33,15,35.22,23.07,54.24,16.76"/><path class="cls-2" d="M168.35,39.15A26.86,26.86,0,0,0,192.84,35"/><path class="cls-2" d="M270,119.69a39.86,39.86,0,0,1-11.53.85c-3.48-.25-6.95-1-10.42-.66-6.28.57-11.73,4.37-17.57,6.73a39.66,39.66,0,0,1-14.1,2.88"/><rect class="cls-2" x="216.61" y="30.82" width="54.72" height="88.86"/><path class="cls-2" d="M254.07,121.59c5.19-1.24,10.69-.47,15.89-1.67.3-.07.68-.35.49-.59-1.53.15-3,.61-4.54.8a25.63,25.63,0,0,1-4.11.06l-18.1-.74a19.67,19.67,0,0,0-2.66,0,34,34,0,0,0-3.45.69,47.12,47.12,0,0,1-6.6.75"/><path class="cls-2" d="M217.74,128.41a.51.51,0,0,1-.27.27,56.8,56.8,0,0,0,0-8.75l-.07.35"/><path class="cls-2" d="M217.75,128.73c2-1,4.27-.91,6.46-1.12a40.27,40.27,0,0,0,6.85-1.42,44.06,44.06,0,0,0,8.12-3,26.8,26.8,0,0,0,5.31-3.5"/><path class="cls-2" d="M217.65,128.88a40.87,40.87,0,0,0,4.91-.7c6.18-1.15,12.38-2.3,18.42-4,3-.87,6-1.87,8.9-3"/><path class="cls-2" d="M219.27,127.11a63.53,63.53,0,0,0,0-6.9l.26,4.93a11.05,11.05,0,0,1,.93-6.75,14.6,14.6,0,0,1,.9,8.36c-.46,0-.65-.6-.72-1a12.22,12.22,0,0,1,0-5.83,11.13,11.13,0,0,1,.75,7.1,17,17,0,0,1,1-7,8.74,8.74,0,0,1,1.3,5c0,.54-.26,1.23-.8,1.22a14,14,0,0,1,.68-7.21,18.63,18.63,0,0,1,1.06,7.1c0,.84-.25,1.83-1,2.18a10.69,10.69,0,0,1,1.36-8.09.69.69,0,0,1,.32-.31c.4-.14.65.42.7.83.26,2.2.42,4.73-1.12,6.32a19.44,19.44,0,0,1,2.8-7.5.94.94,0,0,1,.45-.43c.5-.16.85.5.91,1a6.42,6.42,0,0,1-3.08,6.08,5.66,5.66,0,0,1,2.68-2.63,15.32,15.32,0,0,1,6-1.85c-1.61,2.53-4.65,3.7-7.51,4.58a49.33,49.33,0,0,1,11.49-4.49,79.49,79.49,0,0,1-10.18,4,64.47,64.47,0,0,1,12.14-5.52,3.47,3.47,0,0,0,2.1-1.34,46.8,46.8,0,0,1-12,4.22l7.87-2.05-10.51-.2a68.86,68.86,0,0,0,8-.49,40.58,40.58,0,0,0-6.88.44l2.1.67c.36.11.78.31.79.68a.87.87,0,0,1-.43.65,9.8,9.8,0,0,1-4.9,2l2.39-.33a28.78,28.78,0,0,1-3.49,2l1.86-.09a3.31,3.31,0,0,1-1.46.6,7.7,7.7,0,0,0,3.06-4.43,1.41,1.41,0,0,1-1-2.5l-.68,2.06a2.4,2.4,0,0,1,1.95-2.14,8.8,8.8,0,0,1,3.11.06,24.24,24.24,0,0,0,8-.38,4,4,0,0,0-2.49.24l3.86.35a5.64,5.64,0,0,1-2.48.67,9.79,9.79,0,0,1,3.15,0,5.67,5.67,0,0,1-3,.66,2.82,2.82,0,0,0,2.59-.5"/><rect class="cls-2" x="217.44" y="92.32" width="53.89" height="26.4"/><rect class="cls-2" x="216.61" y="113.7" width="51.81" height="6.48"/><rect class="cls-2" x="216.61" y="119.48" width="26.21" height="5.01"/><rect class="cls-2" x="216.61" y="118.39" width="14.23" height="7.36"/><rect class="cls-2" x="216.61" y="123.17" width="13.86" height="3.61"/><rect class="cls-2" x="216.61" y="123.3" width="7.53" height="4.91"/><path class="cls-2" d="M220.06,126.25a55.9,55.9,0,0,0,7-1.18c1.56-.39,3.09-.93,4.61-1.46"/><path class="cls-2" d="M217.63,128.38l.37.09a1.87,1.87,0,0,0,.91,0"/><path class="cls-2" d="M218,128.6l-.61.08h-.06s0,0,0-.08v-.45"/><rect class="cls-2" x="216.61" y="128.14" width="1.04" height="1.27"/><rect class="cls-2" x="217.45" y="128.14" width="0.94" height="1.13"/><rect class="cls-2" x="216.61" y="129.32" width="0.26" height="0.13"/><rect class="cls-2" x="217.55" y="128.14" width="3" height="0.99"/><rect class="cls-2" x="220.29" y="126.97" width="10.02" height="0.99" transform="translate(-22.87 53.85) rotate(-12.98)"/><rect class="cls-2" x="227.92" y="126.2" width="1.52" height="1.04" transform="translate(-24.3 60.75) rotate(-14.38)"/><rect class="cls-1" x="216.05" y="128.71" width="0.56" height="1.92"/><text class="cls-3" transform="translate(23.05 103.22)">2</text></g></g></svg>