<svg xmlns="http://www.w3.org/2000/svg" viewBox="0 0 190.8 68.14"><defs><style>.cls-1{fill:#f1f6e5;}.cls-2,.cls-3{fill:#18190f;}.cls-3{font-size:39.38px;font-family:HelveticaNeueLTStd-Md, Helvetica Neue LT Std;font-weight:500;}</style></defs><g id="Layer_2" data-name="Layer 2"><g id="Layer_1-2" data-name="Layer 1"><rect class="cls-1" x="0.12" y="0.18" width="99.41" height="67.79" transform="translate(0.12 -0.18) rotate(0.2)"/><rect class="cls-1" x="124.64" y="12.75" width="8.09" height="45.21" transform="translate(0.13 -0.46) rotate(0.2)"/><rect class="cls-2" x="132.73" y="11.76" width="57.98" height="47.42" transform="translate(0.13 -0.58) rotate(0.2)"/><circle class="cls-1" cx="140.06" cy="53.79" r="3.37"/><path class="cls-2" d="M99.85,53.34c7.51,2.6,16,0,23.62,2.26"/><path class="cls-2" d="M100.18,14.33a163,163,0,0,1,23.9.28"/><path class="cls-2" d="M118,14.43l-7.87-3c-.84-.32-1.67-.64-2.52-.89a31.08,31.08,0,0,0-8-1"/><path class="cls-2" d="M124.24,14.59a49.89,49.89,0,0,1-10.17-1.87A110.62,110.62,0,0,1,97.44,7.5c-2.06-.9-4.08-1.93-6.21-2.65a46.6,46.6,0,0,0-9.09-1.8C74.39,2,66.18,1.1,59,4.29c-2.47,1.1-4.7,2.66-7.15,3.82s-5.35,2-7.55,3.73-3.62,5-2.23,7.43a5.89,5.89,0,0,0,2.08,2c3.49,2.17,8,2,11.94.91S63.82,19.3,67.8,18.3s8.51-1,11.87,1.34c1.85,1.29,3.18,3.19,4.68,4.88,6.1,6.89,16.13,10.65,24.87,7.79"/><path class="cls-2" d="M77.44,18.24a12.31,12.31,0,0,0,11.25-1.85"/><path class="cls-2" d="M124,55.37a18.16,18.16,0,0,1-5.3.37,30.63,30.63,0,0,0-4.78-.32c-2.88.25-5.39,2-8.07,3.06a18,18,0,0,1-6.48,1.3"/><rect class="cls-2" x="99.53" y="14.54" width="25.11" height="40.78" transform="translate(0.13 -0.4) rotate(0.2)"/><path class="cls-2" d="M116.64,56.22c2.39-.56,4.92-.2,7.3-.74.14,0,.31-.16.23-.27-.71.06-1.39.27-2.09.36a11.79,11.79,0,0,1-1.88,0l-8.31-.37a9.93,9.93,0,0,0-1.22,0c-.54.06-1.06.21-1.59.31a21.81,21.81,0,0,1-3,.34"/><path class="cls-2" d="M100,59.29a.23.23,0,0,1-.12.12,26.84,26.84,0,0,0,0-4l0,.16"/><path class="cls-2" d="M100,59.44a8.16,8.16,0,0,1,3-.51,18,18,0,0,0,3.15-.64A20.21,20.21,0,0,0,109.81,57a12.84,12.84,0,0,0,2.44-1.6"/><path class="cls-2" d="M99.92,59.51a18.75,18.75,0,0,0,2.25-.32c2.84-.52,5.69-1,8.47-1.82,1.38-.39,2.75-.85,4.09-1.37"/><path class="cls-2" d="M100.67,58.7a27.94,27.94,0,0,0,0-3.17l.11,2.26a5,5,0,0,1,.44-3.1,6.65,6.65,0,0,1,.4,3.84c-.22,0-.3-.27-.33-.48a5.52,5.52,0,0,1,0-2.68,5.08,5.08,0,0,1,.33,3.26,7.68,7.68,0,0,1,.48-3.22,4,4,0,0,1,.59,2.29c0,.24-.12.56-.37.55a6.4,6.4,0,0,1,.32-3.3,8.58,8.58,0,0,1,.48,3.26c0,.38-.12.84-.48,1a4.91,4.91,0,0,1,.64-3.7.43.43,0,0,1,.15-.15c.18-.06.3.2.32.39a3.54,3.54,0,0,1-.52,2.9,8.87,8.87,0,0,1,1.29-3.44.5.5,0,0,1,.21-.2c.23-.07.39.23.41.47a2.92,2.92,0,0,1-1.42,2.78,2.61,2.61,0,0,1,1.23-1.2,7.17,7.17,0,0,1,2.74-.84,5.91,5.91,0,0,1-3.45,2.09,22.56,22.56,0,0,1,5.28-2,36,36,0,0,1-4.68,1.83,30.09,30.09,0,0,1,5.58-2.52,1.59,1.59,0,0,0,1-.6,21.56,21.56,0,0,1-5.51,1.91l3.62-.93-4.83-.11a28,28,0,0,0,3.67-.21,19.72,19.72,0,0,0-3.16.19l1,.32c.16,0,.36.14.36.31a.43.43,0,0,1-.2.3,4.53,4.53,0,0,1-2.25.9l1.1-.14a12.78,12.78,0,0,1-1.61.91l.86,0a1.51,1.51,0,0,1-.67.27,3.57,3.57,0,0,0,1.41-2,.64.64,0,0,1-.47-1.15l-.32,1a1.1,1.1,0,0,1,.9-1,4,4,0,0,1,1.43,0,11,11,0,0,0,3.67-.16,1.86,1.86,0,0,0-1.14.1l1.77.17a2.53,2.53,0,0,1-1.14.31,4.41,4.41,0,0,1,1.45,0,2.58,2.58,0,0,1-1.39.3,1.3,1.3,0,0,0,1.19-.22"/><rect class="cls-2" x="99.86" y="42.77" width="24.73" height="12.11" transform="translate(0.18 -0.4) rotate(0.2)"/><text class="cls-3" transform="translate(16.85 49) rotate(-0.31)">9</text></g></g></svg>