<svg xmlns="http://www.w3.org/2000/svg" viewBox="0 0 357.35 127.62"><defs><style>.cls-1{fill:#f1f6e5;}.cls-2,.cls-3{fill:#18190f;}.cls-3{font-size:76px;font-family:HelveticaNeueLTStd-Md, Helvetica Neue LT Std;font-weight:500;}</style></defs><g id="Layer_2" data-name="Layer 2"><g id="Layer_1-2" data-name="Layer 1"><rect class="cls-1" x="0.23" y="0.33" width="186.2" height="126.96" transform="translate(0.23 -0.33) rotate(0.2)"/><rect class="cls-1" x="233.45" y="23.87" width="15.15" height="84.68" transform="translate(0.24 -0.86) rotate(0.2)"/><rect class="cls-2" x="248.6" y="22.03" width="108.6" height="88.82" transform="translate(0.24 -1.08) rotate(0.2)"/><circle class="cls-1" cx="262.32" cy="100.75" r="6.32"/><path class="cls-2" d="M187,99.9c14.06,4.87,30-.06,44.23,4.23"/><path class="cls-2" d="M187.64,26.84a305.24,305.24,0,0,1,44.75.52"/><path class="cls-2" d="M221,27l-14.74-5.65c-1.56-.6-3.12-1.2-4.71-1.68-4.84-1.43-9.93-1.72-15-1.87"/><path class="cls-2" d="M232.7,27.32c-6.46-.28-12.78-1.89-19-3.5-10.55-2.7-21.16-5.42-31.14-9.77-3.87-1.68-7.65-3.61-11.64-5-5.49-1.86-11.28-2.62-17-3.37C139.33,3.83,123.94,2.06,110.58,8c-4.62,2.07-8.81,5-13.39,7.15-4.77,2.25-10,3.7-14.15,7S76.26,31.5,78.86,36.1a11.15,11.15,0,0,0,3.91,3.81C89.3,44,97.7,43.62,105.13,41.62s14.4-5.47,21.86-7.34,15.93-1.91,22.23,2.5c3.47,2.43,6,6,8.77,9.15,11.41,12.9,30.2,19.94,46.57,14.58"/><path class="cls-2" d="M145.05,34.17a23,23,0,0,0,21-3.47"/><path class="cls-2" d="M232.15,103.71a34.43,34.43,0,0,1-9.92.7c-3-.23-6-.86-8.95-.6-5.4.46-10.1,3.72-15.13,5.73A34.07,34.07,0,0,1,186,112"/><rect class="cls-2" x="186.42" y="27.24" width="47.03" height="76.39" transform="translate(0.24 -0.75) rotate(0.2)"/><path class="cls-2" d="M218.47,105.29c4.47-1,9.2-.37,13.67-1.38.26-.06.58-.3.42-.51-1.32.12-2.6.52-3.91.68a21.89,21.89,0,0,1-3.53,0l-15.56-.68a15.77,15.77,0,0,0-2.28,0,30,30,0,0,0-3,.58,39.82,39.82,0,0,1-5.67.63"/><path class="cls-2" d="M187.22,111a.39.39,0,0,1-.23.24,47.32,47.32,0,0,0,.06-7.53l-.06.31"/><path class="cls-2" d="M187.24,111.32c1.69-.83,3.66-.77,5.55-.95a34.17,34.17,0,0,0,5.89-1.19,38.35,38.35,0,0,0,7-2.52,22.74,22.74,0,0,0,4.58-3"/><path class="cls-2" d="M187.14,111.45a33.46,33.46,0,0,0,4.22-.59c5.32-1,10.65-1.93,15.86-3.41,2.59-.73,5.14-1.59,7.65-2.56"/><path class="cls-2" d="M188.54,109.94a53.51,53.51,0,0,0,0-5.94l.2,4.24a9.51,9.51,0,0,1,.83-5.8,12.46,12.46,0,0,1,.74,7.19c-.4,0-.56-.51-.61-.91a10.47,10.47,0,0,1,.06-5,9.58,9.58,0,0,1,.62,6.11,14.61,14.61,0,0,1,.89-6,7.51,7.51,0,0,1,1.11,4.28c0,.47-.23,1.06-.7,1a12,12,0,0,1,.61-6.19,16,16,0,0,1,.89,6.1c0,.72-.22,1.58-.89,1.87a9.23,9.23,0,0,1,1.2-7,.57.57,0,0,1,.28-.27c.34-.11.55.37.6.72.21,1.9.34,4.07-1,5.43a16.71,16.71,0,0,1,2.43-6.43.84.84,0,0,1,.39-.38c.43-.13.73.43.77.88a5.48,5.48,0,0,1-2.66,5.21,4.9,4.9,0,0,1,2.31-2.25,13.22,13.22,0,0,1,5.12-1.57c-1.39,2.17-4,3.16-6.46,3.91a42,42,0,0,1,9.88-3.82,68.42,68.42,0,0,1-8.75,3.43,55.36,55.36,0,0,1,10.44-4.71,3,3,0,0,0,1.82-1.14,40.27,40.27,0,0,1-10.32,3.59l6.78-1.74-9-.21a58.52,58.52,0,0,0,6.88-.39,35.52,35.52,0,0,0-5.92.35l1.81.59c.3.1.66.27.67.59s-.19.42-.37.56A8.41,8.41,0,0,1,195,108l2-.26a26.16,26.16,0,0,1-3,1.72l1.59-.08a2.7,2.7,0,0,1-1.25.51,6.56,6.56,0,0,0,2.64-3.79,1.21,1.21,0,0,1-.88-2.15l-.59,1.77a2.07,2.07,0,0,1,1.68-1.84,7.5,7.5,0,0,1,2.67.07,21,21,0,0,0,6.89-.31,3.35,3.35,0,0,0-2.14.2l3.32.31a4.8,4.8,0,0,1-2.13.57,8.5,8.5,0,0,1,2.71,0,4.94,4.94,0,0,1-2.61.56,2.45,2.45,0,0,0,2.24-.42"/><rect class="cls-2" x="187.03" y="80.1" width="46.32" height="22.69" transform="translate(0.33 -0.75) rotate(0.2)"/><rect class="cls-2" x="186.29" y="98.48" width="44.54" height="5.57" transform="translate(0.36 -0.74) rotate(0.2)"/><rect class="cls-2" x="186.27" y="103.4" width="22.53" height="4.31" transform="translate(0.38 -0.71) rotate(0.2)"/><rect class="cls-2" x="186.27" y="102.45" width="12.23" height="6.33" transform="translate(0.38 -0.69) rotate(0.2)"/><rect class="cls-2" x="186.26" y="106.56" width="11.92" height="3.11" transform="translate(0.39 -0.69) rotate(0.2)"/><rect class="cls-2" x="186.26" y="106.66" width="6.48" height="4.22" transform="translate(0.39 -0.68) rotate(0.2)"/><path class="cls-2" d="M189.23,109.2a51.53,51.53,0,0,0,6.05-1c1.34-.34,2.66-.79,4-1.25"/><path class="cls-2" d="M187.13,111a1.87,1.87,0,0,1,.32.08,1.71,1.71,0,0,0,.78,0"/><path class="cls-2" d="M187.48,111.21l-.52.07h-.05s0,0,0-.07v-.39"/><rect class="cls-2" x="186.25" y="110.81" width="0.89" height="1.09" transform="translate(0.4 -0.67) rotate(0.2)"/><rect class="cls-2" x="186.97" y="110.82" width="0.81" height="0.97" transform="translate(0.4 -0.67) rotate(0.2)"/><rect class="cls-2" x="186.25" y="111.83" width="0.22" height="0.11" transform="translate(0.4 -0.67) rotate(0.2)"/><rect class="cls-2" x="187.06" y="110.82" width="2.58" height="0.86" transform="translate(0.4 -0.67) rotate(0.2)"/><rect class="cls-2" x="189.42" y="109.83" width="8.61" height="0.86" transform="translate(-19.58 45.56) rotate(-12.77)"/><rect class="cls-2" x="195.98" y="109.18" width="1.31" height="0.9" transform="translate(-20.86 51.48) rotate(-14.17)"/><rect class="cls-1" x="185.77" y="111.3" width="0.48" height="1.65" transform="translate(0.4 -0.66) rotate(0.2)"/><text class="cls-3" transform="translate(21.5 88.04) rotate(-0.31)">4</text></g></g></svg>