<svg xmlns="http://www.w3.org/2000/svg" viewBox="0 0 357.42 127.51"><defs><style>.cls-1,.cls-3{fill:#f1f6e5;}.cls-2{fill:#18190f;}.cls-3{font-size:76px;font-family:HelveticaNeueLTStd-Md, Helvetica Neue LT Std;font-weight:500;}</style></defs><g id="Layer_2" data-name="Layer 2"><g id="Layer_1-2" data-name="Layer 1"><rect class="cls-1" x="186.33" y="106.44" width="11.92" height="3.11" transform="translate(0.29 -0.51) rotate(0.15)"/><rect class="cls-1" x="186.33" y="106.53" width="6.48" height="4.22" transform="matrix(1, 0, 0, 1, 0.29, -0.51)"/><path class="cls-1" d="M189,111.58c3.22,0,3.22-5,0-5s-3.22,5,0,5Z"/><path class="cls-1" d="M189.3,111.57c1.9-.23,3.81-.45,5.68-.84a41.05,41.05,0,0,0,5-1.49,2.5,2.5,0,1,0-1.32-4.82,41,41,0,0,1-4.82,1.44c-.81.18-1.63.32-2.45.44l-.66.1.28,0-.38,0-1.33.16a2.77,2.77,0,0,0-1.77.74,2.52,2.52,0,0,0-.73,1.76c0,1.22,1.11,2.67,2.5,2.5Z"/><path class="cls-1" d="M187,111.5l.28.07a2.14,2.14,0,0,0,.43.07,2.25,2.25,0,0,0,.73,0,.63.63,0,0,0,.37-.29.63.63,0,0,0-.22-.85.76.76,0,0,0-.49-.07.58.58,0,0,1-.14,0l.17,0a1.77,1.77,0,0,1-.46,0l.17,0c-.17,0-.34-.09-.51-.11a.52.52,0,0,0-.25,0,.49.49,0,0,0-.23.08.58.58,0,0,0-.28.37.62.62,0,0,0,.06.48.57.57,0,0,0,.37.29Z"/><path class="cls-1" d="M187.55,110.46l-.28,0-.14,0a.66.66,0,0,1-.14,0l.17,0h0l.15.07h0l.12.09h0l.1.13v0l.06.15v0l0,.17a1.33,1.33,0,0,1,0-.2v-.21a.7.7,0,0,0-.05-.25.57.57,0,0,0-.33-.33.53.53,0,0,0-.25-.05l-.16,0a.71.71,0,0,0-.28.16l-.1.13a.69.69,0,0,0-.08.32V111a1.46,1.46,0,0,0,0,.29l0,.09a.52.52,0,0,0,.13.21.65.65,0,0,0,.31.18.67.67,0,0,0,.28,0l.15,0,.29,0a.39.39,0,0,0,.24,0,.46.46,0,0,0,.2-.13.44.44,0,0,0,.13-.2.53.53,0,0,0,.06-.24l0-.17a.57.57,0,0,0-.16-.27l-.12-.1a.62.62,0,0,0-.32-.09Z"/><rect class="cls-1" x="186.32" y="110.69" width="0.89" height="1.09" transform="matrix(1, 0, 0, 1, 0.3, -0.5)"/><rect class="cls-1" x="186.32" y="111.71" width="0.22" height="0.11" transform="matrix(1, 0, 0, 1, 0.3, -0.5)"/><rect class="cls-2" x="185.93" y="111.64" width="0.4" height="0.33" transform="translate(0.3 -0.5) rotate(0.15)"/><circle class="cls-2" cx="260.72" cy="100.55" r="6.32"/><rect class="cls-2" x="0.17" y="0.25" width="186.28" height="127.02" transform="translate(0.17 -0.25) rotate(0.15)"/><path class="cls-1" d="M187.08,99.77c14.07,4.87,30-.09,44.25,4.2"/><path class="cls-1" d="M187.63,26.68a305.49,305.49,0,0,1,44.77.48"/><path class="cls-1" d="M221,26.84,206.26,21.2c-1.56-.6-3.12-1.19-4.72-1.67a58.38,58.38,0,0,0-15-1.86"/><path class="cls-1" d="M232.72,27.12c-6.47-.27-12.8-1.88-19.07-3.48-10.56-2.7-21.17-5.41-31.16-9.75-3.88-1.68-7.65-3.6-11.65-5-5.49-1.86-11.28-2.61-17-3.35C139.28,3.7,123.89,2,110.52,7.94c-4.62,2.07-8.81,5-13.39,7.16-4.77,2.26-10,3.71-14.14,7S76.21,31.45,78.81,36a11.18,11.18,0,0,0,3.92,3.81c6.54,4.07,14.94,3.71,22.37,1.7s14.4-5.49,21.87-7.37,15.93-1.92,22.23,2.48c3.48,2.43,6,6,8.79,9.14,11.42,12.9,30.23,19.93,46.6,14.55"/><path class="cls-1" d="M145,34.05a23,23,0,0,0,21.06-3.49"/><path class="cls-1" d="M232.23,103.54a34.08,34.08,0,0,1-9.92.71c-3-.22-6-.85-9-.59-5.4.47-10.09,3.73-15.12,5.75a34.13,34.13,0,0,1-12.14,2.44"/><rect class="cls-1" x="186.45" y="27.06" width="47.06" height="76.42" transform="translate(0.17 -0.56) rotate(0.15)"/><path class="cls-1" d="M218.55,105.14c4.47-1,9.2-.38,13.67-1.4.26-.06.59-.3.42-.5-1.32.12-2.59.52-3.91.68a21.89,21.89,0,0,1-3.53,0l-15.56-.68a17.5,17.5,0,0,0-2.29,0,27.85,27.85,0,0,0-3,.59,41.31,41.31,0,0,1-5.67.62"/><path class="cls-1" d="M187.29,110.93a.4.4,0,0,1-.23.23,49.8,49.8,0,0,0,.06-7.53l-.07.3"/><path class="cls-1" d="M187.31,111.21c1.69-.84,3.67-.78,5.55-1a34.76,34.76,0,0,0,5.89-1.2,37.49,37.49,0,0,0,7-2.53,23,23,0,0,0,4.57-3"/><path class="cls-1" d="M187.21,111.33a35.56,35.56,0,0,0,4.23-.59c5.32-1,10.65-1.95,15.85-3.43q3.9-1.09,7.66-2.57"/><path class="cls-1" d="M188.61,109.81a56,56,0,0,0,0-5.94l.2,4.25a9.55,9.55,0,0,1,.82-5.81,12.51,12.51,0,0,1,.75,7.2c-.4,0-.56-.52-.61-.91a10.47,10.47,0,0,1,.05-5,9.49,9.49,0,0,1,.63,6.1,14.79,14.79,0,0,1,.88-6,7.45,7.45,0,0,1,1.12,4.29c0,.46-.23,1-.7,1a11.87,11.87,0,0,1,.61-6.19,16,16,0,0,1,.89,6.1c0,.73-.22,1.58-.88,1.87a9.19,9.19,0,0,1,1.19-7,.64.64,0,0,1,.27-.27c.35-.11.56.37.6.73.22,1.89.35,4.06-1,5.43a16.36,16.36,0,0,1,2.42-6.44.8.8,0,0,1,.39-.38c.43-.14.73.43.77.88A5.52,5.52,0,0,1,194.4,109a4.81,4.81,0,0,1,2.3-2.26,13.23,13.23,0,0,1,5.12-1.58c-1.38,2.17-4,3.17-6.46,3.93a42.34,42.34,0,0,1,9.89-3.84,67.73,67.73,0,0,1-8.76,3.44A55.48,55.48,0,0,1,206.94,104a3,3,0,0,0,1.81-1.14,40.67,40.67,0,0,1-10.32,3.6l6.78-1.75-9-.2a58.53,58.53,0,0,0,6.88-.4,36.63,36.63,0,0,0-5.92.36l1.81.59c.3.1.67.27.67.59a.72.72,0,0,1-.37.55,8.34,8.34,0,0,1-4.21,1.7l2.05-.27a26.16,26.16,0,0,1-3,1.72l1.6-.08a2.69,2.69,0,0,1-1.26.52,6.61,6.61,0,0,0,2.64-3.8,1.25,1.25,0,0,1-1.26-.74,1.28,1.28,0,0,1,.38-1.42l-.59,1.78a2.07,2.07,0,0,1,1.68-1.84,7.5,7.5,0,0,1,2.67.06,21,21,0,0,0,6.89-.31,3.42,3.42,0,0,0-2.14.2L208,104a4.8,4.8,0,0,1-2.13.57,8.8,8.8,0,0,1,2.71,0,4.82,4.82,0,0,1-2.6.57,2.42,2.42,0,0,0,2.23-.42"/><rect class="cls-2" x="233.5" y="23.66" width="15.16" height="84.72" transform="translate(0.18 -0.64) rotate(0.15)"/><rect class="cls-1" x="248.65" y="21.76" width="108.65" height="88.86" transform="translate(0.18 -0.81) rotate(0.15)"/><rect class="cls-1" x="187.09" y="79.95" width="46.35" height="22.7" transform="translate(0.24 -0.56) rotate(0.15)"/><rect class="cls-1" x="186.35" y="98.33" width="44.56" height="5.58" transform="translate(0.27 -0.56) rotate(0.15)"/><rect class="cls-1" x="186.34" y="103.27" width="22.54" height="4.31" transform="translate(0.28 -0.53) rotate(0.15)"/><rect class="cls-1" x="186.34" y="102.32" width="12.24" height="6.33" transform="translate(0.28 -0.51) rotate(0.15)"/><circle class="cls-2" cx="260.72" cy="100.55" r="6.32"/><rect class="cls-2" x="185.93" y="111.63" width="0.4" height="0.75" transform="translate(0.3 -0.5) rotate(0.15)"/><text class="cls-3" transform="translate(21.57 87.56) rotate(-0.31)">4</text></g></g></svg>