<svg xmlns="http://www.w3.org/2000/svg" viewBox="0 0 242.24 86.51"><defs><style>.cls-1{fill:#f1f6e5;}.cls-2,.cls-3{fill:#18190f;}.cls-3{font-size:50px;font-family:HelveticaNeueLTStd-Md, Helvetica Neue LT Std;font-weight:500;}</style></defs><g id="Layer_2" data-name="Layer 2"><g id="Layer_1-2" data-name="Layer 1"><rect class="cls-1" x="0.15" y="0.23" width="126.22" height="86.06" transform="translate(0.16 -0.23) rotate(0.2)"/><rect class="cls-1" x="158.25" y="16.18" width="10.27" height="57.4" transform="translate(0.16 -0.58) rotate(0.2)"/><rect class="cls-2" x="168.52" y="14.93" width="73.62" height="60.21" transform="translate(0.16 -0.73) rotate(0.2)"/><circle class="cls-1" cx="177.82" cy="68.29" r="4.28"/><path class="cls-2" d="M126.78,67.72c9.53,3.3,20.32,0,30,2.87"/><path class="cls-2" d="M127.2,18.19a208.9,208.9,0,0,1,30.33.35"/><path class="cls-2" d="M149.81,18.32l-10-3.83c-1.06-.41-2.11-.81-3.2-1.13a39.65,39.65,0,0,0-10.14-1.28"/><path class="cls-2" d="M157.74,18.52a63.37,63.37,0,0,1-12.91-2.37c-7.16-1.84-14.34-3.68-21.11-6.63-2.63-1.14-5.18-2.44-7.89-3.36a59.41,59.41,0,0,0-11.54-2.29C94.45,2.6,84,1.4,75,5.45c-3.13,1.4-6,3.38-9.08,4.84S59.09,12.8,56.29,15s-4.6,6.33-2.83,9.44a7.53,7.53,0,0,0,2.65,2.58c4.42,2.76,10.12,2.52,15.16,1.17s9.76-3.72,14.81-5,10.8-1.3,15.07,1.69c2.35,1.65,4,4.05,5.95,6.2,7.73,8.75,20.47,13.52,31.57,9.89"/><path class="cls-2" d="M98.32,23.16a15.64,15.64,0,0,0,14.28-2.35"/><path class="cls-2" d="M157.37,70.3a22.66,22.66,0,0,1-6.72.47,37.64,37.64,0,0,0-6.08-.4c-3.66.31-6.84,2.52-10.25,3.88a23,23,0,0,1-8.22,1.65"/><rect class="cls-2" x="126.37" y="18.46" width="31.88" height="51.78" transform="translate(0.16 -0.51) rotate(0.2)"/><path class="cls-2" d="M148.09,71.38c3-.71,6.24-.26,9.27-.95.18,0,.4-.2.28-.34-.89.09-1.75.35-2.64.46a13.74,13.74,0,0,1-2.4,0l-10.54-.46a11.45,11.45,0,0,0-1.55,0,19.84,19.84,0,0,0-2,.4,27.64,27.64,0,0,1-3.85.42"/><path class="cls-2" d="M126.91,75.27a.24.24,0,0,1-.15.16,33.39,33.39,0,0,0,0-5.1l0,.21"/><path class="cls-2" d="M126.92,75.46a10.77,10.77,0,0,1,3.76-.64,23.63,23.63,0,0,0,4-.81,25.08,25.08,0,0,0,4.74-1.71,15.48,15.48,0,0,0,3.1-2"/><path class="cls-2" d="M126.86,75.55a25.22,25.22,0,0,0,2.86-.4c3.61-.66,7.22-1.31,10.75-2.31,1.75-.5,3.49-1.08,5.19-1.74"/><path class="cls-2" d="M127.81,74.52a38.5,38.5,0,0,0,0-4l.14,2.87a6.5,6.5,0,0,1,.56-3.93,8.49,8.49,0,0,1,.5,4.88c-.27,0-.37-.35-.41-.62a7.1,7.1,0,0,1,0-3.4,6.49,6.49,0,0,1,.42,4.14,10,10,0,0,1,.6-4.09,5,5,0,0,1,.75,2.9c0,.32-.15.72-.47.71a8.13,8.13,0,0,1,.42-4.2,11,11,0,0,1,.6,4.14c0,.49-.15,1.07-.6,1.27a6.24,6.24,0,0,1,.81-4.71.37.37,0,0,1,.19-.18c.23-.08.37.24.4.49.15,1.28.23,2.75-.66,3.68a11.26,11.26,0,0,1,1.64-4.37.59.59,0,0,1,.27-.25c.29-.09.49.29.52.59a3.73,3.73,0,0,1-1.8,3.54,3.27,3.27,0,0,1,1.56-1.53,8.87,8.87,0,0,1,3.47-1.06c-.94,1.47-2.71,2.14-4.38,2.65a28.7,28.7,0,0,1,6.7-2.59,47,47,0,0,1-5.93,2.32,38.17,38.17,0,0,1,7.08-3.19,2.06,2.06,0,0,0,1.23-.77,27.55,27.55,0,0,1-7,2.43l4.6-1.18-6.13-.14a40.19,40.19,0,0,0,4.66-.27,24.47,24.47,0,0,0-4,.24l1.23.4c.2.07.45.18.45.4s-.12.28-.25.38a5.71,5.71,0,0,1-2.85,1.14l1.39-.18a15.83,15.83,0,0,1-2,1.17l1.08-.05a1.82,1.82,0,0,1-.85.34,4.5,4.5,0,0,0,1.8-2.57.85.85,0,0,1-.86-.5.86.86,0,0,1,.26-1l-.4,1.2a1.39,1.39,0,0,1,1.14-1.24,5.25,5.25,0,0,1,1.81,0,14.1,14.1,0,0,0,4.67-.21,2.33,2.33,0,0,0-1.45.14l2.25.21a3.38,3.38,0,0,1-1.45.39,5.68,5.68,0,0,1,1.84,0,3.3,3.3,0,0,1-1.77.38,1.69,1.69,0,0,0,1.52-.28"/><rect class="cls-2" x="126.79" y="54.3" width="31.4" height="15.38" transform="translate(0.22 -0.51) rotate(0.2)"/><rect class="cls-2" x="126.28" y="66.76" width="30.19" height="3.78" transform="translate(0.25 -0.5) rotate(0.2)"/><rect class="cls-2" x="126.27" y="70.09" width="15.27" height="2.92" transform="translate(0.26 -0.48) rotate(0.2)"/><rect class="cls-2" x="126.27" y="69.45" width="8.29" height="4.29" transform="translate(0.26 -0.47) rotate(0.2)"/><rect class="cls-2" x="126.26" y="72.24" width="8.08" height="2.11" transform="translate(0.26 -0.47) rotate(0.2)"/><rect class="cls-2" x="126.26" y="72.3" width="4.39" height="2.86" transform="translate(0.26 -0.46) rotate(0.2)"/><path class="cls-2" d="M128.27,74a31.28,31.28,0,0,0,4.1-.67c.91-.23,1.81-.54,2.7-.84"/><path class="cls-2" d="M126.85,75.26l.22,0a1.18,1.18,0,0,0,.53,0"/><path class="cls-2" d="M127.09,75.38l-.36.05h0s0,0,0-.05v-.26"/><rect class="cls-2" x="126.26" y="75.12" width="0.6" height="0.74" transform="translate(0.27 -0.45) rotate(0.2)"/><rect class="cls-2" x="126.74" y="75.12" width="0.55" height="0.66" transform="translate(0.27 -0.45) rotate(0.2)"/><rect class="cls-2" x="126.25" y="75.8" width="0.15" height="0.08" transform="translate(0.27 -0.45) rotate(0.2)"/><rect class="cls-2" x="126.8" y="75.12" width="1.75" height="0.58" transform="translate(0.27 -0.46) rotate(0.2)"/><rect class="cls-2" x="128.4" y="74.45" width="5.84" height="0.58" transform="translate(-13.28 30.88) rotate(-12.77)"/><rect class="cls-2" x="132.85" y="74.01" width="0.89" height="0.61" transform="translate(-14.14 34.9) rotate(-14.17)"/><rect class="cls-1" x="125.93" y="75.44" width="0.33" height="1.12" transform="translate(0.27 -0.45) rotate(0.2)"/><text class="cls-3" transform="translate(21.4 62.12) rotate(-0.31)">8</text></g></g></svg>