<?xml version="1.0" encoding="utf-8"?>
<!-- Generator: Adobe Illustrator 26.0.1, SVG Export Plug-In . SVG Version: 6.00 Build 0)  -->
<svg version="1.1" xmlns="http://www.w3.org/2000/svg" xmlns:xlink="http://www.w3.org/1999/xlink" x="0px" y="0px"
	 viewBox="0 0 792 1224" style="enable-background:new 0 0 792 1224;" xml:space="preserve">
<style type="text/css">
	.st0{fill:#1E1448;}
	.st1{fill:#2C1C65;}
	.st2{fill:#402C76;}
	.st3{fill:#552D86;}
	.st4{fill:#623191;}
	.st5{fill:#623F98;}
	.st6{fill:#262159;}
	.st7{fill:#2A1940;}
	.st8{fill:#2C133D;}
	.st9{fill:#42255B;}
	.st10{fill:#2C1546;}
	.st11{fill:#230E41;}
	.st12{fill:#674297;}
	.st13{fill:#2C1E53;}
	.st14{fill:#E42128;}
	.st15{fill:#281338;}
	.st16{fill:#251B3D;}
	.st17{fill:none;stroke:#281338;}
	.st18{fill:#674197;}
	.st19{fill:#281442;}
	.st20{fill:#2C1F55;}
	.st21{fill:#44265B;}
	.st22{fill:#2B2755;}
	.st23{fill:#565195;}
	.st24{fill:#201033;}
	.st25{fill:none;}
	.st26{display:none;}
	.st27{display:inline;}
	.st28{fill:#F5E6F1;}
	.st29{font-family:'HelveticaNeueLTStd-Blk';}
	.st30{font-size:127.018px;}
	.st31{font-family:'HelveticaNeueLTStd-Md';}
	.st32{font-size:43.9143px;}
	.st33{font-family:'HelveticaNeueLTStd-Th';}
	.st34{font-size:27.8289px;}
	.st35{font-size:25.9915px;}
	.st36{font-size:8.542px;}
	.st37{font-size:17.1559px;}
	.st38{fill:#CD6632;}
	.st39{fill:none;stroke:#FFFFFF;stroke-width:0.1;}
</style>
<g id="colors">
	<rect x="-1.8" class="st0" width="794.7" height="1224"/>
</g>
<g id="sky_and_ocean">
	<rect x="77.8" y="81.4" class="st1" width="635.5" height="202.5"/>
	<path class="st2" d="M713.2,464.6H77.8V227.4c21.1-1.2,53.9-2.7,94-2.5c161.4,0.7,227.9,26.6,348.5,26
		c45.4-0.3,111.8-4.4,192.9-23.5C713.2,306.5,713.2,385.6,713.2,464.6z"/>
	<path class="st3" d="M713.2,646.6H77.8V394.8c16.4-6.4,42.4-15.3,75.1-21.4c144.9-27.1,226.9,37.7,376.8,44
		c43.2,1.8,106.1-0.6,183.7-22.6C713.2,478.8,713.2,562.7,713.2,646.6z"/>
	<path class="st4" d="M713.2,778.2H77.8v-216c17-6.6,45.8-16.6,82.5-22.8c133.9-22.6,210.8,33,343.9,44.2
		c46.8,3.9,118.4,3.9,209.1-21.4C713.2,634.2,713.2,706.2,713.2,778.2z"/>
	<path class="st5" d="M713.2,904.3H77.8V730.2c13.2-3.5,33.2-8.2,57.7-11.6c135.6-18.7,219.1,29.6,317.9,45.1
		c60.7,9.5,147.9,9.9,259.9-33.5C713.2,788.2,713.2,846.3,713.2,904.3z"/>
	<rect x="77.8" y="904.3" class="st6" width="635.5" height="171"/>
</g>
<g id="trees">
	<polygon class="st7" points="538.9,782.1 596.5,782.1 567.7,612.9 	"/>
	<path class="st8" d="M278.4,874.6c-2.3-1.8-4.9-4.1-7.3-7.1c-0.6-0.8-1.2-1.6-1.8-2.4c1.8-0.1,3.5-0.1,5.3-0.2
		c-0.8-0.7-1.6-1.6-2.4-2.7c-1.5-2-2.4-3.9-2.9-5.4c1-0.3,2.2-0.6,3.3-1c1.7-0.6,3.2-1.2,4.5-1.9c-1.9-1.2-4.7-3.4-6.9-6.9
		c-1-1.6-1.7-3.1-2.2-4.4c1.3-1,2.7-2.1,4-3.1c-2.8-2.9-4.4-5.5-5.3-7.3c-0.5-0.9-1.6-3.2-0.8-4.2c0.1-0.2,0.3-0.2,1.4-1.1
		c0.5-0.3,0.9-0.6,1.1-0.8c-0.6-0.3-1.8-1.1-2.6-2.5c-0.6-1-0.9-2-1-2.6c-0.1-1.5-0.1-2.9-0.2-4.4c0.5-0.1,1-0.3,1.5-0.4
		c-2-1.4-3.1-2.1-3.1-2.1c0,0,1.3,0.3,3.2,0.8c-1.4-2.2-3-5.2-4-9.1c-0.4-1.5-0.7-3-0.8-4.3c-0.5-0.5-1-0.9-1.6-1.4
		c1.2-0.2,2.4-0.3,3.6-0.5c-0.4-0.2-1.2-0.6-1.9-1.5c-0.9-1.2-0.9-2.5-0.8-2.9c-0.4-0.3-0.8-0.7-1.1-1l1,0.1l-0.5-2.6l-0.5-0.6
		l0.4,0c-0.3-0.6-0.5-1.3-0.8-2c-0.6-1.9-0.6-3.7-0.5-4.9c-0.2,0.8-0.3,1.6-0.5,2.5l0.3,0.1l-0.4,0.4c0,1.1-0.2,2.4-0.4,3.8
		c-0.3,1.8-0.7,3.4-1.2,4.8c0.3-0.2,0.6-0.4,1-0.5c-0.4,0.8-0.7,1.7-1.1,2.5c-0.5,0.8-1.1,1.6-1.6,2.5c0.7-0.1,1.4-0.2,2.1-0.3
		c-0.7,1.5-1.5,3.1-2.2,4.6c0.6,2.3,0.3,3.9,0,5c-0.4,1.2-1,2.1-1.4,4c-0.2,1-0.2,1.9-0.2,2.5c1-0.6,2.1-1.3,3.1-1.9
		c-0.4,1.2-0.8,2.4-1.1,3.5c-0.2,1.1-0.6,2.9-1.8,4.7c-0.6,1-1.3,1.7-1.9,2.3c1.3,0.1,2.5,0.1,3.8,0.2c-0.8,2.1-1.8,4.5-3.2,7
		c-2.1,3.7-4.4,6.6-6.4,8.8c1.2,0.1,2.6,0,4.1-0.1c1.6-0.2,2.9-0.5,4.1-0.8c-1.4,2.5-3.3,5.4-5.8,8.4c-1.8,2.1-3.6,3.9-5.2,5.4
		c1.9,0.2,3.9,0.4,5.8,0.6c-0.8,1.3-1.8,2.7-3.1,4.2c-1.4,1.6-2.8,2.8-4,3.8c2,0.5,4,0.9,6.1,1.4c-0.7,1.5-1.9,3.6-3.9,5.7
		c-1.5,1.6-3.1,2.6-4.3,3.3c2.5-0.1,5-0.2,7.4-0.3c-0.5,0.7-1.4,1.8-2.8,2.7c-1.1,0.7-2.2,1.1-2.9,1.3c5,1.1,10,2.2,15,3.3
		c0,0.8,0,1.5,0,2.3c2.5,0,5.1,0.1,7.6,0.1c0-0.8,0-1.6,0.1-2.3l12.3-0.5l-0.1-0.6l-6-4.1C272.7,874.2,275.6,874.4,278.4,874.6z"/>
	<path class="st8" d="M246.5,857.8c3.2-1.8,6.7-4.1,10-7.1c0.9-0.8,1.7-1.6,2.4-2.4c-2.4-0.1-4.8-0.1-7.2-0.2
		c1.1-0.7,2.2-1.6,3.3-2.7c2-2,3.2-3.9,4-5.4c-1.4-0.3-2.9-0.6-4.5-1c-2.3-0.6-4.3-1.2-6.1-1.9c2.6-1.2,6.4-3.4,9.5-6.9
		c1.4-1.6,2.3-3.1,3-4.4c-1.8-1-3.7-2.1-5.5-3.1c3.8-2.9,6-5.5,7.3-7.3c0.7-0.9,2.2-3.2,1.1-4.2c-0.2-0.2-0.4-0.2-2-1.1
		c-0.6-0.3-1.2-0.6-1.5-0.8c0.8-0.3,2.4-1.1,3.6-2.5c0.8-1,1.2-2,1.3-2.6c0.1-1.5,0.2-2.9,0.3-4.4c-0.7-0.1-1.4-0.3-2.1-0.4
		c2.7-1.4,4.2-2.1,4.2-2.1c0,0-1.7,0.3-4.4,0.8c1.9-2.2,4.1-5.2,5.5-9.1c0.6-1.5,0.9-3,1.2-4.3c0.7-0.5,1.4-0.9,2.1-1.4
		c-1.7-0.2-3.3-0.3-5-0.5c0.5-0.2,1.7-0.6,2.6-1.5c1.2-1.2,1.2-2.5,1.1-2.9c0.5-0.3,1-0.7,1.6-1l-1.3,0.1l0.6-2.6l0.7-0.6l-0.6,0
		c0.4-0.6,0.7-1.3,1.1-2c0.8-1.9,0.8-3.7,0.7-4.9c0.2,0.8,0.4,1.6,0.6,2.5l-0.5,0.1l0.6,0.4c0.1,1.1,0.2,2.4,0.5,3.8
		c0.4,1.8,1,3.4,1.6,4.8c-0.4-0.2-0.9-0.4-1.3-0.5c0.5,0.8,1,1.7,1.4,2.5c0.7,0.8,1.5,1.6,2.2,2.5c-1-0.1-1.9-0.2-2.9-0.3
		c1,1.5,2,3.1,3.1,4.6c-0.8,2.3-0.5,3.9,0,5c0.5,1.2,1.4,2.1,1.9,4c0.3,1,0.3,1.9,0.3,2.5c-1.4-0.6-2.8-1.3-4.3-1.9
		c0.5,1.2,1,2.4,1.5,3.5c0.3,1.1,0.9,2.9,2.5,4.7c0.9,1,1.8,1.7,2.6,2.3c-1.7,0.1-3.5,0.1-5.2,0.2c1.1,2.1,2.5,4.5,4.4,7
		c2.8,3.7,6,6.6,8.7,8.8c-1.6,0.1-3.5,0-5.6-0.1c-2.1-0.2-4-0.5-5.6-0.8c1.9,2.5,4.5,5.4,7.9,8.4c2.4,2.1,4.9,3.9,7.1,5.4
		c-2.7,0.2-5.3,0.4-8,0.6c1.1,1.3,2.5,2.7,4.3,4.2c1.9,1.6,3.8,2.8,5.4,3.8c-2.8,0.5-5.5,0.9-8.3,1.4c0.9,1.5,2.6,3.6,5.4,5.7
		c2.1,1.6,4.2,2.6,5.9,3.3c-3.4-0.1-6.8-0.2-10.2-0.3c0.7,0.7,1.9,1.8,3.8,2.7c1.5,0.7,3,1.1,4,1.3c-6.8,1.1-13.6,2.2-20.5,3.3
		c0,0.8,0,1.5,0,2.3c-3.5,0-6.9,0.1-10.4,0.1c0-0.8-0.1-1.6-0.1-2.3l-16.8-0.5l0.2-0.6l8.2-4.1C254.3,857.4,250.4,857.6,246.5,857.8
		z"/>
	<path class="st8" d="M267.1,843.7c3.2-1.8,6.7-4.1,10-7.1c0.9-0.8,1.7-1.6,2.4-2.4c-2.4-0.1-4.8-0.1-7.2-0.2
		c1.1-0.7,2.2-1.6,3.3-2.7c2-2,3.2-3.9,4-5.4c-1.4-0.3-2.9-0.6-4.5-1c-2.3-0.6-4.3-1.2-6.1-1.9c2.6-1.2,6.4-3.4,9.5-6.9
		c1.4-1.6,2.3-3.1,3-4.4c-1.8-1-3.7-2.1-5.5-3.1c3.8-2.9,6-5.5,7.3-7.3c0.7-0.9,2.2-3.2,1.1-4.2c-0.2-0.2-0.4-0.2-2-1.1
		c-0.6-0.3-1.2-0.6-1.5-0.8c0.8-0.3,2.4-1.1,3.6-2.5c0.8-1,1.2-2,1.3-2.6c0.1-1.5,0.2-2.9,0.3-4.4c-0.7-0.1-1.4-0.3-2.1-0.4
		c2.7-1.4,4.2-2.1,4.2-2.1c0,0-1.7,0.3-4.4,0.8c1.9-2.2,4.1-5.2,5.5-9.1c0.6-1.5,0.9-3,1.2-4.3c0.7-0.5,1.4-0.9,2.1-1.4
		c-1.7-0.2-3.3-0.3-5-0.5c0.5-0.2,1.7-0.6,2.6-1.5c1.2-1.2,1.2-2.5,1.1-2.9c0.5-0.3,1-0.7,1.6-1l-1.3,0.1l0.6-2.6l0.7-0.6l-0.6,0
		c0.4-0.6,0.7-1.3,1.1-2c0.8-1.9,0.8-3.7,0.7-4.9c0.2,0.8,0.4,1.6,0.6,2.5l-0.5,0.1l0.6,0.4c0.1,1.1,0.2,2.4,0.5,3.8
		c0.4,1.8,1,3.4,1.6,4.8c-0.4-0.2-0.9-0.4-1.3-0.5c0.5,0.8,1,1.7,1.4,2.5c0.7,0.8,1.5,1.6,2.2,2.5c-1-0.1-1.9-0.2-2.9-0.3
		c1,1.5,2,3.1,3.1,4.6c-0.8,2.3-0.5,3.9,0,5c0.5,1.2,1.4,2.1,1.9,4c0.3,1,0.3,1.9,0.3,2.5c-1.4-0.6-2.8-1.3-4.3-1.9
		c0.5,1.2,1,2.4,1.5,3.5c0.3,1.1,0.9,2.9,2.5,4.7c0.9,1,1.8,1.7,2.6,2.3c-1.7,0.1-3.5,0.1-5.2,0.2c1.1,2.1,2.5,4.5,4.4,7
		c2.8,3.7,6,6.6,8.7,8.8c-1.6,0.1-3.5,0-5.6-0.1c-2.1-0.2-4-0.5-5.6-0.8c1.9,2.5,4.5,5.4,7.9,8.4c2.4,2.1,4.9,3.9,7.1,5.4
		c-2.7,0.2-5.3,0.4-8,0.6c1.1,1.3,2.5,2.7,4.3,4.2c1.9,1.6,3.8,2.8,5.4,3.8c-2.8,0.5-5.5,0.9-8.3,1.4c0.9,1.5,2.6,3.6,5.4,5.7
		c2.1,1.6,4.2,2.6,5.9,3.3c-3.4-0.1-6.8-0.2-10.2-0.3c0.7,0.7,1.9,1.8,3.8,2.7c1.5,0.7,3,1.1,4,1.3c-6.8,1.1-13.6,2.2-20.5,3.3
		c0,0.8,0,1.5,0,2.3c-3.5,0-6.9,0.1-10.4,0.1c0-0.8-0.1-1.6-0.1-2.3l-16.8-0.5l0.2-0.6l8.2-4.1C274.9,843.3,271,843.5,267.1,843.7z"
		/>
	<path class="st8" d="M284,830.3c3.8-1.8,8-4.1,11.9-7.1c1.1-0.8,2-1.6,2.9-2.4c-2.8-0.1-5.7-0.1-8.5-0.2c1.3-0.7,2.6-1.6,4-2.7
		c2.4-2,3.9-3.9,4.8-5.4c-1.7-0.3-3.5-0.6-5.4-1c-2.7-0.6-5.1-1.2-7.3-1.9c3.1-1.2,7.6-3.4,11.2-6.9c1.6-1.6,2.7-3.1,3.5-4.4
		c-2.2-1-4.4-2.1-6.5-3.1c4.5-2.9,7.1-5.5,8.6-7.3c0.8-0.9,2.6-3.2,1.3-4.2c-0.2-0.2-0.4-0.2-2.4-1.1c-0.8-0.3-1.4-0.6-1.8-0.8
		c1-0.3,2.9-1.1,4.3-2.5c1-1,1.4-2,1.6-2.6c0.1-1.5,0.2-2.9,0.3-4.4c-0.8-0.1-1.7-0.3-2.5-0.4c3.3-1.4,5-2.1,5-2.1
		c0,0-2,0.3-5.2,0.8c2.3-2.2,4.9-5.2,6.5-9.1c0.7-1.5,1.1-3,1.4-4.3c0.8-0.5,1.7-0.9,2.5-1.4c-2-0.2-3.9-0.3-5.9-0.5
		c0.6-0.2,2-0.6,3.1-1.5c1.5-1.2,1.4-2.5,1.3-2.9c0.6-0.3,1.2-0.7,1.9-1L313,750l0.8-2.6l0.9-0.6l-0.7,0c0.5-0.6,0.9-1.3,1.3-2
		c0.9-1.9,1-3.7,0.8-4.9c0.2,0.8,0.5,1.6,0.7,2.5l-0.5,0.1l0.7,0.4c0.1,1.1,0.3,2.4,0.6,3.8c0.5,1.8,1.2,3.4,1.9,4.8
		c-0.5-0.2-1-0.4-1.6-0.5c0.6,0.8,1.1,1.7,1.7,2.5c0.9,0.8,1.7,1.6,2.6,2.5c-1.1-0.1-2.3-0.2-3.4-0.3c1.2,1.5,2.4,3.1,3.6,4.6
		c-1,2.3-0.6,3.9,0,5c0.6,1.2,1.7,2.1,2.3,4c0.3,1,0.4,1.9,0.4,2.5c-1.7-0.6-3.4-1.3-5.1-1.9c0.6,1.2,1.2,2.4,1.8,3.5
		c0.3,1.1,1.1,2.9,3,4.7c1,1,2.2,1.7,3.1,2.3c-2.1,0.1-4.1,0.1-6.2,0.2c1.2,2.1,2.9,4.5,5.2,7c3.4,3.7,7.1,6.6,10.3,8.8
		c-1.9,0.1-4.1,0-6.6-0.1c-2.5-0.2-4.7-0.5-6.6-0.8c2.3,2.5,5.3,5.4,9.3,8.4c2.9,2.1,5.8,3.9,8.5,5.4c-3.2,0.2-6.3,0.4-9.5,0.6
		c1.3,1.3,3,2.7,5.1,4.2c2.2,1.6,4.5,2.8,6.4,3.8c-3.3,0.5-6.6,0.9-9.8,1.4c1.1,1.5,3.1,3.6,6.4,5.7c2.5,1.6,5,2.6,7,3.3
		c-4-0.1-8-0.2-12.1-0.3c0.8,0.7,2.2,1.8,4.5,2.7c1.8,0.7,3.5,1.1,4.7,1.3c-8.1,1.1-16.2,2.2-24.3,3.3c0,0.8,0,1.5-0.1,2.3
		c-4.1,0-8.2,0.1-12.3,0.1c0-0.8-0.1-1.6-0.1-2.3l-20-0.5l0.2-0.6l9.7-4.1C293.2,829.8,288.6,830,284,830.3z"/>
	<path class="st8" d="M321,822.3c-2.6-1.8-5.4-4.1-8-7.1c-0.7-0.8-1.4-1.6-1.9-2.4c1.9-0.1,3.9-0.1,5.8-0.2
		c-0.9-0.7-1.8-1.6-2.7-2.7c-1.6-2-2.6-3.9-3.2-5.4c1.1-0.3,2.4-0.6,3.7-1c1.8-0.6,3.5-1.2,4.9-1.9c-2.1-1.2-5.1-3.4-7.6-6.9
		c-1.1-1.6-1.9-3.1-2.4-4.4c1.5-1,3-2.1,4.4-3.1c-3.1-2.9-4.8-5.5-5.8-7.3c-0.5-0.9-1.8-3.2-0.9-4.2c0.1-0.2,0.3-0.2,1.6-1.1
		c0.5-0.3,0.9-0.6,1.2-0.8c-0.7-0.3-1.9-1.1-2.9-2.5c-0.7-1-0.9-2-1.1-2.6c-0.1-1.5-0.1-2.9-0.2-4.4c0.6-0.1,1.1-0.3,1.7-0.4
		c-2.2-1.4-3.4-2.1-3.4-2.1c0,0,1.4,0.3,3.5,0.8c-1.6-2.2-3.3-5.2-4.4-9.1c-0.5-1.5-0.7-3-0.9-4.3c-0.6-0.5-1.1-0.9-1.7-1.4
		c1.3-0.2,2.7-0.3,4-0.5c-0.4-0.2-1.4-0.6-2.1-1.5c-1-1.2-0.9-2.5-0.9-2.9c-0.4-0.3-0.8-0.7-1.3-1l1.1,0.1l-0.5-2.6l-0.6-0.6l0.5,0
		c-0.3-0.6-0.6-1.3-0.8-2c-0.6-1.9-0.7-3.7-0.6-4.9c-0.2,0.8-0.3,1.6-0.5,2.5l0.4,0.1l-0.5,0.4c0,1.1-0.2,2.4-0.4,3.8
		c-0.3,1.8-0.8,3.4-1.3,4.8c0.4-0.2,0.7-0.4,1.1-0.5c-0.4,0.8-0.8,1.7-1.2,2.5c-0.6,0.8-1.2,1.6-1.8,2.5c0.8-0.1,1.5-0.2,2.3-0.3
		c-0.8,1.5-1.6,3.1-2.5,4.6c0.7,2.3,0.4,3.9,0,5c-0.4,1.2-1.1,2.1-1.6,4c-0.2,1-0.3,1.9-0.3,2.5c1.1-0.6,2.3-1.3,3.4-1.9
		c-0.4,1.2-0.8,2.4-1.2,3.5c-0.2,1.1-0.7,2.9-2,4.7c-0.7,1-1.5,1.7-2.1,2.3c1.4,0.1,2.8,0.1,4.2,0.2c-0.8,2.1-2,4.5-3.6,7
		c-2.3,3.7-4.8,6.6-7,8.8c1.3,0.1,2.8,0,4.5-0.1c1.7-0.2,3.2-0.5,4.5-0.8c-1.5,2.5-3.6,5.4-6.3,8.4c-2,2.1-3.9,3.9-5.7,5.4
		c2.1,0.2,4.3,0.4,6.4,0.6c-0.9,1.3-2,2.7-3.4,4.2c-1.5,1.6-3,2.8-4.4,3.8c2.2,0.5,4.4,0.9,6.7,1.4c-0.8,1.5-2.1,3.6-4.3,5.7
		c-1.7,1.6-3.4,2.6-4.7,3.3c2.7-0.1,5.4-0.2,8.2-0.3c-0.5,0.7-1.5,1.8-3.1,2.7c-1.2,0.7-2.4,1.1-3.2,1.3c5.5,1.1,11,2.2,16.5,3.3
		c0,0.8,0,1.5,0,2.3c2.8,0,5.6,0.1,8.3,0.1c0-0.8,0-1.6,0.1-2.3l13.5-0.5l-0.1-0.6l-6.6-4.1C314.8,821.9,317.9,822.1,321,822.3z"/>
	<path class="st8" d="M351.9,803.5c-2.6-1.8-5.4-4.1-8-7.1c-0.7-0.8-1.4-1.6-1.9-2.4c1.9-0.1,3.9-0.1,5.8-0.2
		c-0.9-0.7-1.8-1.6-2.7-2.7c-1.6-2-2.6-3.9-3.2-5.4c1.1-0.3,2.4-0.6,3.7-1c1.8-0.6,3.5-1.2,4.9-1.9c-2.1-1.2-5.1-3.4-7.6-6.9
		c-1.1-1.6-1.9-3.1-2.4-4.4c1.5-1,3-2.1,4.4-3.1c-3.1-2.9-4.8-5.5-5.8-7.3c-0.5-0.9-1.8-3.2-0.9-4.2c0.1-0.2,0.3-0.2,1.6-1.1
		c0.5-0.3,0.9-0.6,1.2-0.8c-0.7-0.3-1.9-1.1-2.9-2.5c-0.7-1-0.9-2-1.1-2.6c-0.1-1.5-0.1-2.9-0.2-4.4c0.6-0.1,1.1-0.3,1.7-0.4
		c-2.2-1.4-3.4-2.1-3.4-2.1c0,0,1.4,0.3,3.5,0.8c-1.6-2.2-3.3-5.2-4.4-9.1c-0.5-1.5-0.7-3-0.9-4.3c-0.6-0.5-1.1-0.9-1.7-1.4
		c1.3-0.2,2.7-0.3,4-0.5c-0.4-0.2-1.4-0.6-2.1-1.5c-1-1.2-0.9-2.5-0.9-2.9c-0.4-0.3-0.8-0.7-1.3-1l1.1,0.1l-0.5-2.6l-0.6-0.6l0.5,0
		c-0.3-0.6-0.6-1.3-0.8-2c-0.6-1.9-0.7-3.7-0.6-4.9c-0.2,0.8-0.3,1.6-0.5,2.5l0.4,0.1l-0.5,0.4c0,1.1-0.2,2.4-0.4,3.8
		c-0.3,1.8-0.8,3.4-1.3,4.8c0.4-0.2,0.7-0.4,1.1-0.5c-0.4,0.8-0.8,1.7-1.2,2.5c-0.6,0.8-1.2,1.6-1.8,2.5c0.8-0.1,1.5-0.2,2.3-0.3
		c-0.8,1.5-1.6,3.1-2.5,4.6c0.7,2.3,0.4,3.9,0,5c-0.4,1.2-1.1,2.1-1.6,4c-0.2,1-0.3,1.9-0.3,2.5c1.1-0.6,2.3-1.3,3.4-1.9
		c-0.4,1.2-0.8,2.4-1.2,3.5c-0.2,1.1-0.7,2.9-2,4.7c-0.7,1-1.5,1.7-2.1,2.3c1.4,0.1,2.8,0.1,4.2,0.2c-0.8,2.1-2,4.5-3.6,7
		c-2.3,3.7-4.8,6.6-7,8.8c1.3,0.1,2.8,0,4.5-0.1c1.7-0.2,3.2-0.5,4.5-0.8c-1.5,2.5-3.6,5.4-6.3,8.4c-2,2.1-3.9,3.9-5.7,5.4
		c2.1,0.2,4.3,0.4,6.4,0.6c-0.9,1.3-2,2.7-3.4,4.2c-1.5,1.6-3,2.8-4.4,3.8c2.2,0.5,4.4,0.9,6.7,1.4c-0.8,1.5-2.1,3.6-4.3,5.7
		c-1.7,1.6-3.4,2.6-4.7,3.3c2.7-0.1,5.4-0.2,8.2-0.3c-0.5,0.7-1.5,1.8-3.1,2.7c-1.2,0.7-2.4,1.1-3.2,1.3c5.5,1.1,11,2.2,16.5,3.3
		c0,0.8,0,1.5,0,2.3c2.8,0,5.6,0.1,8.3,0.1c0-0.8,0-1.6,0.1-2.3l13.5-0.5l-0.1-0.6l-6.6-4.1C345.6,803.1,348.8,803.3,351.9,803.5z"
		/>
	<path class="st8" d="M374.9,797.1c-3.5-1.8-7.4-4.1-11.1-7.1c-1-0.8-1.9-1.6-2.7-2.4c2.6-0.1,5.3-0.1,7.9-0.2
		c-1.2-0.7-2.4-1.6-3.7-2.7c-2.2-2-3.6-3.9-4.4-5.4c1.6-0.3,3.3-0.6,5-1c2.5-0.6,4.8-1.2,6.8-1.9c-2.9-1.2-7.1-3.4-10.5-6.9
		c-1.5-1.6-2.6-3.1-3.3-4.4c2-1,4.1-2.1,6.1-3.1c-4.2-2.9-6.6-5.5-8-7.3c-0.7-0.9-2.4-3.2-1.2-4.2c0.2-0.2,0.4-0.2,2.2-1.1
		c0.7-0.3,1.3-0.6,1.7-0.8c-0.9-0.3-2.7-1.1-4-2.5c-0.9-1-1.3-2-1.4-2.6c-0.1-1.5-0.2-2.9-0.3-4.4c0.8-0.1,1.5-0.3,2.3-0.4
		c-3-1.4-4.7-2.1-4.7-2.1c0,0,1.9,0.3,4.9,0.8c-2.1-2.2-4.5-5.2-6.1-9.1c-0.6-1.5-1-3-1.3-4.3c-0.8-0.5-1.6-0.9-2.3-1.4
		c1.8-0.2,3.7-0.3,5.5-0.5c-0.6-0.2-1.9-0.6-2.9-1.5c-1.4-1.2-1.3-2.5-1.3-2.9c-0.6-0.3-1.1-0.7-1.7-1l1.5,0.1l-0.7-2.6l-0.8-0.6
		l0.6,0c-0.4-0.6-0.8-1.3-1.2-2c-0.8-1.9-0.9-3.7-0.8-4.9c-0.2,0.8-0.5,1.6-0.7,2.5l0.5,0.1l-0.6,0.4c-0.1,1.1-0.2,2.4-0.6,3.8
		c-0.5,1.8-1.1,3.4-1.8,4.8c0.5-0.2,1-0.4,1.4-0.5c-0.5,0.8-1.1,1.7-1.6,2.5c-0.8,0.8-1.6,1.6-2.4,2.5c1.1-0.1,2.1-0.2,3.2-0.3
		c-1.1,1.5-2.3,3.1-3.4,4.6c0.9,2.3,0.5,3.9,0,5c-0.6,1.2-1.6,2.1-2.1,4c-0.3,1-0.4,1.9-0.4,2.5c1.6-0.6,3.1-1.3,4.7-1.9
		c-0.6,1.2-1.1,2.4-1.7,3.5c-0.3,1.1-1,2.9-2.8,4.7c-1,1-2,1.7-2.9,2.3c1.9,0.1,3.8,0.1,5.7,0.2c-1.2,2.1-2.7,4.5-4.9,7
		c-3.1,3.7-6.6,6.6-9.6,8.8c1.8,0.1,3.9,0,6.2-0.1c2.4-0.2,4.4-0.5,6.1-0.8c-2.1,2.5-4.9,5.4-8.7,8.4c-2.7,2.1-5.4,3.9-7.9,5.4
		c2.9,0.2,5.9,0.4,8.8,0.6c-1.2,1.3-2.8,2.7-4.7,4.2c-2.1,1.6-4.2,2.8-6,3.8c3.1,0.5,6.1,0.9,9.2,1.4c-1,1.5-2.8,3.6-6,5.7
		c-2.3,1.6-4.6,2.6-6.5,3.3c3.7-0.1,7.5-0.2,11.2-0.3c-0.7,0.7-2.1,1.8-4.2,2.7c-1.7,0.7-3.3,1.1-4.4,1.3c7.5,1.1,15.1,2.2,22.6,3.3
		c0,0.8,0,1.5,0,2.3c3.8,0,7.6,0.1,11.4,0.1c0-0.8,0.1-1.6,0.1-2.3l18.6-0.5l-0.2-0.6l-9-4.1C366.3,796.7,370.6,796.9,374.9,797.1z"
		/>
	<path class="st8" d="M394.2,783.5c-3.5-2.1-7.4-4.9-11.1-8.6c-1-1-1.9-2-2.7-2.9c2.6-0.1,5.3-0.1,7.9-0.2c-1.2-0.9-2.4-2-3.7-3.3
		c-2.2-2.4-3.6-4.8-4.4-6.6c1.6-0.3,3.3-0.7,5-1.2c2.5-0.7,4.8-1.5,6.8-2.2c-2.9-1.5-7.1-4.1-10.5-8.4c-1.5-1.9-2.6-3.7-3.3-5.3
		c2-1.3,4.1-2.5,6.1-3.8c-4.2-3.5-6.6-6.7-8-8.8c-0.7-1.1-2.4-3.9-1.2-5c0.2-0.2,0.4-0.3,2.2-1.3c0.7-0.4,1.3-0.7,1.7-1
		c-0.9-0.4-2.7-1.3-4-3.1c-0.9-1.2-1.3-2.4-1.4-3.1c-0.1-1.8-0.2-3.6-0.3-5.3c0.8-0.2,1.5-0.3,2.3-0.5c-3-1.7-4.7-2.6-4.7-2.6
		c0,0,1.9,0.4,4.9,1c-2.1-2.7-4.5-6.3-6.1-11c-0.6-1.9-1-3.6-1.3-5.2c-0.8-0.6-1.6-1.1-2.3-1.7c1.8-0.2,3.7-0.4,5.5-0.6
		c-0.6-0.2-1.9-0.7-2.9-1.8c-1.4-1.5-1.3-3.1-1.3-3.5c-0.6-0.4-1.1-0.8-1.7-1.2l1.5,0.1l-0.7-3.1l-0.8-0.7l0.6,0
		c-0.4-0.7-0.8-1.5-1.2-2.5c-0.8-2.3-0.9-4.4-0.8-5.9c-0.2,1-0.5,2-0.7,3l0.5,0.1l-0.6,0.4c-0.1,1.4-0.2,2.9-0.6,4.6
		c-0.5,2.2-1.1,4.2-1.8,5.8c0.5-0.2,1-0.4,1.4-0.7c-0.5,1-1.1,2-1.6,3c-0.8,1-1.6,2-2.4,3c1.1-0.1,2.1-0.3,3.2-0.4
		c-1.1,1.9-2.3,3.7-3.4,5.6c0.9,2.8,0.5,4.8,0,6.1c-0.6,1.5-1.6,2.5-2.1,4.8c-0.3,1.2-0.4,2.3-0.4,3c1.6-0.8,3.1-1.6,4.7-2.4
		c-0.6,1.4-1.1,2.9-1.7,4.3c-0.3,1.4-1,3.5-2.8,5.6c-1,1.2-2,2.1-2.9,2.7c1.9,0.1,3.8,0.2,5.7,0.3c-1.2,2.5-2.7,5.4-4.9,8.5
		c-3.1,4.5-6.6,8-9.6,10.6c1.8,0.1,3.9,0,6.2-0.2c2.4-0.2,4.4-0.6,6.1-1c-2.1,3-4.9,6.5-8.7,10.1c-2.7,2.6-5.4,4.7-7.9,6.5
		c2.9,0.2,5.9,0.5,8.8,0.7c-1.2,1.5-2.8,3.3-4.7,5.1c-2.1,1.9-4.2,3.4-6,4.6c3.1,0.6,6.1,1.1,9.2,1.7c-1,1.8-2.8,4.4-6,6.9
		c-2.3,1.9-4.6,3.2-6.5,4c3.7-0.1,7.5-0.3,11.2-0.4c-0.7,0.9-2.1,2.2-4.2,3.3c-1.7,0.9-3.3,1.3-4.4,1.5c7.5,1.3,15.1,2.7,22.6,4
		c0,0.9,0,1.8,0,2.7c3.8,0,7.6,0.1,11.4,0.1c0-0.9,0.1-1.9,0.1-2.8l18.6-0.6l-0.2-0.8l-9-4.9C385.6,783,389.9,783.2,394.2,783.5z"/>
	<path class="st8" d="M417.3,783.5c-3.5-2.1-7.4-4.9-11.1-8.6c-1-1-1.9-2-2.7-2.9c2.6-0.1,5.3-0.1,7.9-0.2c-1.2-0.9-2.4-2-3.7-3.3
		c-2.2-2.4-3.6-4.8-4.4-6.6c1.6-0.3,3.3-0.7,5-1.2c2.5-0.7,4.8-1.5,6.8-2.2c-2.9-1.5-7.1-4.1-10.5-8.4c-1.5-1.9-2.6-3.7-3.3-5.3
		c2-1.3,4.1-2.5,6.1-3.8c-4.2-3.5-6.6-6.7-8-8.8c-0.7-1.1-2.4-3.9-1.2-5c0.2-0.2,0.4-0.3,2.2-1.3c0.7-0.4,1.3-0.7,1.7-1
		c-0.9-0.4-2.7-1.3-4-3.1c-0.9-1.2-1.3-2.4-1.4-3.1c-0.1-1.8-0.2-3.6-0.3-5.3c0.8-0.2,1.5-0.3,2.3-0.5c-3-1.7-4.7-2.6-4.7-2.6
		c0,0,1.9,0.4,4.9,1c-2.1-2.7-4.5-6.3-6.1-11c-0.6-1.9-1-3.6-1.3-5.2c-0.8-0.6-1.6-1.1-2.3-1.7c1.8-0.2,3.7-0.4,5.5-0.6
		c-0.6-0.2-1.9-0.7-2.9-1.8c-1.4-1.5-1.3-3.1-1.3-3.5c-0.6-0.4-1.1-0.8-1.7-1.2l1.5,0.1l-0.7-3.1l-0.8-0.7l0.6,0
		c-0.4-0.7-0.8-1.5-1.2-2.5c-0.8-2.3-0.9-4.4-0.8-5.9c-0.2,1-0.5,2-0.7,3l0.5,0.1l-0.6,0.4c-0.1,1.4-0.2,2.9-0.6,4.6
		c-0.5,2.2-1.1,4.2-1.8,5.8c0.5-0.2,1-0.4,1.4-0.7c-0.5,1-1.1,2-1.6,3c-0.8,1-1.6,2-2.4,3c1.1-0.1,2.1-0.3,3.2-0.4
		c-1.1,1.9-2.3,3.7-3.4,5.6c0.9,2.8,0.5,4.8,0,6.1c-0.6,1.5-1.6,2.5-2.1,4.8c-0.3,1.2-0.4,2.3-0.4,3c1.6-0.8,3.1-1.6,4.7-2.4
		c-0.6,1.4-1.1,2.9-1.7,4.3c-0.3,1.4-1,3.5-2.8,5.6c-1,1.2-2,2.1-2.9,2.7c1.9,0.1,3.8,0.2,5.7,0.3c-1.2,2.5-2.7,5.4-4.9,8.5
		c-3.1,4.5-6.6,8-9.6,10.6c1.8,0.1,3.9,0,6.2-0.2c2.4-0.2,4.4-0.6,6.1-1c-2.1,3-4.9,6.5-8.7,10.1c-2.7,2.6-5.4,4.7-7.9,6.5
		c2.9,0.2,5.9,0.5,8.8,0.7c-1.2,1.5-2.8,3.3-4.7,5.1c-2.1,1.9-4.2,3.4-6,4.6c3.1,0.6,6.1,1.1,9.2,1.7c-1,1.8-2.8,4.4-6,6.9
		c-2.3,1.9-4.6,3.2-6.5,4c3.7-0.1,7.5-0.3,11.2-0.4c-0.7,0.9-2.1,2.2-4.2,3.3c-1.7,0.9-3.3,1.3-4.4,1.5c7.5,1.3,15.1,2.7,22.6,4
		c0,0.9,0,1.8,0,2.7c3.8,0,7.6,0.1,11.4,0.1c0-0.9,0.1-1.9,0.1-2.8l18.6-0.6l-0.2-0.8l-9-4.9C408.7,783,413,783.2,417.3,783.5z"/>
	<path class="st8" d="M443.6,798.6c-4.6-2.2-9.6-5-14.2-8.8c-1.3-1-2.4-2-3.5-3c3.4-0.1,6.8-0.1,10.2-0.2c-1.5-0.9-3.2-2-4.8-3.4
		c-2.9-2.4-4.6-4.8-5.7-6.7c2-0.3,4.2-0.7,6.5-1.2c3.2-0.7,6.1-1.5,8.7-2.3c-3.7-1.5-9.1-4.2-13.5-8.5c-1.9-1.9-3.3-3.8-4.2-5.4
		c2.6-1.3,5.2-2.6,7.8-3.8c-5.4-3.6-8.6-6.8-10.3-8.9c-1-1.2-3.1-3.9-1.6-5.1c0.3-0.2,0.5-0.3,2.8-1.3c0.9-0.4,1.7-0.8,2.1-1
		c-1.2-0.4-3.4-1.4-5.1-3.1c-1.2-1.2-1.7-2.4-1.9-3.2c-0.1-1.8-0.2-3.6-0.4-5.4c1-0.2,2-0.3,3-0.5c-3.9-1.7-6-2.6-6-2.6
		c0,0,2.5,0.4,6.3,1c-2.8-2.7-5.8-6.5-7.9-11.2c-0.8-1.9-1.3-3.7-1.6-5.3c-1-0.6-2-1.1-3-1.7c2.4-0.2,4.7-0.4,7.1-0.6
		c-0.7-0.2-2.4-0.7-3.7-1.8c-1.7-1.5-1.7-3.1-1.6-3.6c-0.7-0.4-1.5-0.8-2.2-1.2l1.9,0.1l-0.9-3.2l-1-0.7l0.8,0
		c-0.5-0.7-1.1-1.6-1.5-2.5c-1.1-2.4-1.2-4.5-1-6c-0.3,1-0.6,2-0.9,3l0.7,0.1l-0.8,0.4c-0.1,1.4-0.3,3-0.7,4.7
		c-0.6,2.3-1.4,4.2-2.3,5.9c0.6-0.2,1.2-0.5,1.9-0.7c-0.7,1-1.4,2-2,3.1c-1,1-2.1,2-3.1,3c1.4-0.1,2.7-0.3,4.1-0.4
		c-1.5,1.9-2.9,3.8-4.4,5.7c1.2,2.8,0.7,4.9,0,6.2c-0.8,1.5-2,2.6-2.8,4.9c-0.4,1.3-0.5,2.3-0.5,3c2-0.8,4-1.6,6.1-2.4
		c-0.7,1.5-1.5,2.9-2.2,4.4c-0.4,1.4-1.3,3.5-3.6,5.7c-1.2,1.2-2.6,2.1-3.7,2.8c2.5,0.1,4.9,0.2,7.4,0.3c-1.5,2.6-3.5,5.5-6.3,8.6
		c-4.1,4.6-8.5,8.1-12.4,10.8c2.3,0.1,5,0,8-0.2c3-0.2,5.7-0.6,7.9-1c-2.7,3.1-6.4,6.6-11.2,10.3c-3.5,2.6-6.9,4.8-10.2,6.6
		c3.8,0.2,7.6,0.5,11.4,0.7c-1.6,1.6-3.5,3.3-6.1,5.1c-2.7,1.9-5.4,3.5-7.7,4.7c3.9,0.6,7.9,1.1,11.8,1.7c-1.3,1.8-3.7,4.5-7.7,7.1
		c-3,1.9-6,3.2-8.3,4.1c4.8-0.1,9.6-0.3,14.5-0.4c-1,0.9-2.7,2.2-5.5,3.3c-2.2,0.9-4.2,1.3-5.7,1.6c9.7,1.4,19.4,2.7,29.2,4.1
		c0,0.9,0,1.8,0.1,2.8c4.9,0,9.8,0.1,14.8,0.1c0-1,0.1-1.9,0.1-2.9l24-0.6l-0.2-0.8l-11.6-5C432.6,798.1,438.1,798.4,443.6,798.6z"
		/>
	<path class="st8" d="M626,778c-6.9-3.3-14.5-7.6-21.6-13.3c-1.9-1.5-3.7-3.1-5.2-4.5c5.2-0.1,10.4-0.2,15.5-0.3
		c-2.3-1.4-4.8-3.1-7.2-5.1c-4.4-3.7-7-7.3-8.7-10.2c3.1-0.5,6.4-1.1,9.8-1.9c4.9-1.1,9.3-2.3,13.2-3.5c-5.6-2.3-13.8-6.3-20.5-12.9
		c-3-2.9-5-5.7-6.4-8.1c4-1.9,7.9-3.9,11.9-5.8c-8.2-5.4-13-10.3-15.7-13.6c-1.4-1.7-4.7-6-2.4-7.8c0.4-0.3,0.8-0.4,4.3-2
		c1.4-0.6,2.5-1.1,3.3-1.5c-1.8-0.6-5.2-2.1-7.8-4.8c-1.8-1.9-2.5-3.7-2.8-4.9c-0.2-2.7-0.4-5.5-0.5-8.2c1.5-0.3,3-0.5,4.5-0.8
		c-5.9-2.6-9.1-4-9.1-4c0,0,3.7,0.6,9.5,1.6c-4.2-4.1-8.9-9.8-11.9-17c-1.2-2.9-2-5.6-2.5-8.1c-1.5-0.9-3.1-1.7-4.6-2.6
		c3.6-0.3,7.2-0.6,10.8-0.9c-1.1-0.3-3.7-1-5.6-2.8c-2.6-2.3-2.5-4.8-2.5-5.5c-1.1-0.6-2.2-1.2-3.4-1.9l2.9,0.1l-1.4-4.8l-1.6-1.1
		l1.2,0c-0.8-1.1-1.6-2.4-2.3-3.8c-1.6-3.6-1.7-6.8-1.5-9.2c-0.4,1.5-0.9,3.1-1.3,4.6l1,0.2l-1.2,0.7c-0.1,2.1-0.5,4.5-1.1,7.1
		c-0.9,3.4-2.2,6.4-3.5,9c0.9-0.3,1.9-0.7,2.8-1c-1,1.5-2.1,3.1-3.1,4.6c-1.6,1.5-3.1,3.1-4.7,4.6c2.1-0.2,4.2-0.4,6.2-0.6
		c-2.2,2.9-4.4,5.8-6.6,8.7c1.8,4.3,1,7.4,0,9.4c-1.2,2.3-3.1,3.9-4.2,7.4c-0.6,1.9-0.7,3.5-0.7,4.6c3.1-1.2,6.1-2.4,9.2-3.6
		c-1.1,2.2-2.2,4.4-3.3,6.6c-0.6,2.1-1.9,5.4-5.4,8.7c-1.9,1.8-3.9,3.2-5.7,4.2c3.7,0.1,7.5,0.3,11.2,0.4c-2.3,3.9-5.4,8.4-9.6,13.1
		c-6.2,6.9-12.9,12.3-18.8,16.4c3.5,0.1,7.6,0.1,12.1-0.3c4.6-0.3,8.6-0.9,12-1.5c-4.1,4.7-9.7,10.1-17,15.6
		c-5.3,4-10.5,7.3-15.4,10.1c5.8,0.4,11.5,0.7,17.3,1.1c-2.4,2.4-5.4,5-9.2,7.8c-4.1,2.9-8.1,5.3-11.7,7.1c6,0.9,11.9,1.7,17.9,2.6
		c-2,2.8-5.6,6.8-11.7,10.7c-4.5,2.9-9.1,4.9-12.7,6.2c7.3-0.2,14.6-0.4,22-0.6c-1.5,1.3-4.1,3.4-8.3,5.1c-3.3,1.3-6.4,2-8.6,2.4
		c14.8,2.1,29.5,4.2,44.3,6.2c0,1.4,0.1,2.8,0.1,4.2c7.5,0.1,14.9,0.1,22.4,0.2c0.1-1.5,0.1-2.9,0.2-4.4l36.4-1l-0.3-1.2l-17.6-7.6
		C609.2,777.2,617.6,777.6,626,778z"/>
	<path class="st7" d="M607.3,780.8c-6.8-2.9-14.2-6.8-21.2-11.9c-1.9-1.4-3.6-2.7-5.1-4.1c5.1-0.1,10.1-0.2,15.2-0.3
		c-2.2-1.2-4.7-2.7-7.1-4.6c-4.3-3.3-6.9-6.6-8.5-9.1c3-0.4,6.2-1,9.6-1.7c4.8-1,9.1-2,12.9-3.1c-5.5-2-13.5-5.7-20-11.6
		c-2.9-2.6-4.9-5.1-6.3-7.3c3.9-1.7,7.8-3.5,11.6-5.2c-8.1-4.9-12.7-9.2-15.4-12.2c-1.4-1.6-4.6-5.4-2.3-7c0.4-0.3,0.7-0.4,4.2-1.8
		c1.4-0.6,2.5-1,3.2-1.3c-1.7-0.6-5.1-1.9-7.6-4.3c-1.8-1.7-2.5-3.3-2.8-4.4c-0.2-2.5-0.4-4.9-0.5-7.4c1.5-0.2,3-0.5,4.4-0.7
		c-5.8-2.3-8.9-3.6-8.9-3.6c0,0,3.6,0.6,9.3,1.4c-4.1-3.7-8.7-8.8-11.7-15.2c-1.2-2.6-2-5-2.4-7.2c-1.5-0.8-3-1.6-4.5-2.3
		c3.5-0.3,7-0.5,10.5-0.8c-1.1-0.3-3.6-0.9-5.5-2.5c-2.6-2.1-2.5-4.3-2.4-4.9c-1.1-0.6-2.2-1.1-3.3-1.7l2.8,0.1l-1.4-4.3l-1.5-1
		l1.2,0c-0.8-1-1.6-2.1-2.2-3.4c-1.6-3.2-1.7-6.1-1.4-8.2c-0.4,1.4-0.9,2.8-1.3,4.1l1,0.1l-1.2,0.6c-0.1,1.9-0.4,4.1-1.1,6.4
		c-0.9,3.1-2.1,5.8-3.5,8c0.9-0.3,1.8-0.6,2.8-0.9c-1,1.4-2,2.8-3,4.2c-1.5,1.4-3.1,2.8-4.6,4.1c2-0.2,4.1-0.4,6.1-0.5
		c-2.2,2.6-4.3,5.2-6.5,7.8c1.7,3.9,1,6.6,0,8.4c-1.1,2.1-3,3.5-4.1,6.6c-0.6,1.7-0.7,3.2-0.7,4.1c3-1.1,6-2.2,9-3.3
		c-1.1,2-2.2,4-3.3,6c-0.6,1.9-1.9,4.8-5.3,7.8c-1.8,1.6-3.8,2.9-5.6,3.8c3.7,0.1,7.3,0.2,11,0.4c-2.2,3.5-5.2,7.5-9.3,11.7
		c-6,6.2-12.7,11.1-18.4,14.7c3.4,0.1,7.4,0.1,11.8-0.2c4.5-0.3,8.5-0.8,11.8-1.4c-4,4.2-9.4,9-16.6,14c-5.2,3.6-10.3,6.6-15.1,9
		c5.6,0.3,11.2,0.6,16.9,1c-2.3,2.1-5.3,4.5-9,7c-4,2.6-8,4.7-11.5,6.4c5.8,0.8,11.7,1.5,17.5,2.3c-2,2.5-5.5,6.1-11.4,9.6
		c-4.4,2.6-8.9,4.4-12.4,5.5c7.2-0.2,14.3-0.4,21.5-0.6c-1.4,1.2-4,3-8.1,4.6c-3.2,1.2-6.3,1.8-8.4,2.1c14.4,1.9,28.9,3.7,43.3,5.6
		c0,1.3,0.1,2.5,0.1,3.8c7.3,0,14.6,0.1,21.9,0.1c0.1-1.3,0.1-2.6,0.2-3.9l35.6-0.9l-0.3-1.1l-17.3-6.8
		C590.9,780.1,599.1,780.4,607.3,780.8z"/>
	<path class="st8" d="M491.7,770.1c6.8-2.9,14.2-6.8,21.2-11.9c1.9-1.4,3.6-2.7,5.1-4.1c-5.1-0.1-10.1-0.2-15.2-0.3
		c2.2-1.2,4.7-2.7,7.1-4.6c4.3-3.3,6.9-6.6,8.5-9.1c-3-0.4-6.2-1-9.6-1.7c-4.8-1-9.1-2-12.9-3.1c5.5-2,13.5-5.7,20-11.6
		c2.9-2.6,4.9-5.1,6.3-7.3c-3.9-1.7-7.8-3.5-11.6-5.2c8.1-4.9,12.7-9.2,15.4-12.2c1.4-1.6,4.6-5.4,2.3-7c-0.4-0.3-0.7-0.4-4.2-1.8
		c-1.4-0.6-2.5-1-3.2-1.3c1.7-0.6,5.1-1.9,7.6-4.3c1.8-1.7,2.5-3.3,2.8-4.4c0.2-2.5,0.4-4.9,0.5-7.4c-1.5-0.2-3-0.5-4.4-0.7
		c5.8-2.3,8.9-3.6,8.9-3.6c0,0-3.6,0.6-9.3,1.4c4.1-3.7,8.7-8.8,11.7-15.2c1.2-2.6,2-5,2.4-7.2c1.5-0.8,3-1.6,4.5-2.3
		c-3.5-0.3-7-0.5-10.5-0.8c1.1-0.3,3.6-0.9,5.5-2.5c2.6-2.1,2.5-4.3,2.4-4.9c1.1-0.6,2.2-1.1,3.3-1.7l-2.8,0.1l1.4-4.3l1.5-1l-1.2,0
		c0.8-1,1.6-2.1,2.2-3.4c1.6-3.2,1.7-6.1,1.4-8.2c0.4,1.4,0.9,2.8,1.3,4.1l-1,0.1l1.2,0.6c0.1,1.9,0.4,4.1,1.1,6.4
		c0.9,3.1,2.1,5.8,3.5,8c-0.9-0.3-1.8-0.6-2.8-0.9c1,1.4,2,2.8,3,4.2c1.5,1.4,3.1,2.8,4.6,4.1c-2-0.2-4.1-0.4-6.1-0.5
		c2.2,2.6,4.3,5.2,6.5,7.8c-1.7,3.9-1,6.6,0,8.4c1.1,2.1,3,3.5,4.1,6.6c0.6,1.7,0.7,3.2,0.7,4.1c-3-1.1-6-2.2-9-3.3
		c1.1,2,2.2,4,3.3,6c0.6,1.9,1.9,4.8,5.3,7.8c1.8,1.6,3.8,2.9,5.6,3.8c-3.7,0.1-7.3,0.2-11,0.4c2.2,3.5,5.2,7.5,9.3,11.7
		c6,6.2,12.7,11.1,18.4,14.7c-3.4,0.1-7.4,0.1-11.8-0.2c-4.5-0.3-8.5-0.8-11.8-1.4c4,4.2,9.4,9,16.6,14c5.2,3.6,10.3,6.6,15.1,9
		c-5.6,0.3-11.2,0.6-16.9,1c2.3,2.1,5.3,4.5,9,7c4,2.6,8,4.7,11.5,6.4c-5.8,0.8-11.7,1.5-17.5,2.3c2,2.5,5.5,6.1,11.4,9.6
		c4.4,2.6,8.9,4.4,12.4,5.5c-7.2-0.2-14.3-0.4-21.5-0.6c1.4,1.2,4,3,8.1,4.6c3.2,1.2,6.3,1.8,8.4,2.1c-14.4,1.9-28.9,3.7-43.3,5.6
		c0,1.3-0.1,2.5-0.1,3.8c-7.3,0-14.6,0.1-21.9,0.1c-0.1-1.3-0.1-2.6-0.2-3.9l-35.6-0.9l0.3-1.1l17.3-6.8
		C508.1,769.4,499.9,769.7,491.7,770.1z"/>
	<path class="st8" d="M462.5,779.7c-3.5-2.1-7.4-4.9-11.1-8.6c-1-1-1.9-2-2.7-2.9c2.6-0.1,5.3-0.1,7.9-0.2c-1.2-0.9-2.4-2-3.7-3.3
		c-2.2-2.4-3.6-4.8-4.4-6.6c1.6-0.3,3.3-0.7,5-1.2c2.5-0.7,4.8-1.5,6.8-2.2c-2.9-1.5-7.1-4.1-10.5-8.4c-1.5-1.9-2.6-3.7-3.3-5.3
		c2-1.3,4.1-2.5,6.1-3.8c-4.2-3.5-6.6-6.7-8-8.8c-0.7-1.1-2.4-3.9-1.2-5c0.2-0.2,0.4-0.3,2.2-1.3c0.7-0.4,1.3-0.7,1.7-1
		c-0.9-0.4-2.7-1.3-4-3.1c-0.9-1.2-1.3-2.4-1.4-3.1c-0.1-1.8-0.2-3.6-0.3-5.3c0.8-0.2,1.5-0.3,2.3-0.5c-3-1.7-4.7-2.6-4.7-2.6
		c0,0,1.9,0.4,4.9,1c-2.1-2.7-4.5-6.3-6.1-11c-0.6-1.9-1-3.6-1.3-5.2c-0.8-0.6-1.6-1.1-2.3-1.7c1.8-0.2,3.7-0.4,5.5-0.6
		c-0.6-0.2-1.9-0.7-2.9-1.8c-1.4-1.5-1.3-3.1-1.3-3.5c-0.6-0.4-1.1-0.8-1.7-1.2l1.5,0.1l-0.7-3.1l-0.8-0.7l0.6,0
		c-0.4-0.7-0.8-1.5-1.2-2.5c-0.8-2.3-0.9-4.4-0.8-5.9c-0.2,1-0.5,2-0.7,3l0.5,0.1l-0.6,0.4c-0.1,1.4-0.2,2.9-0.6,4.6
		c-0.5,2.2-1.1,4.2-1.8,5.8c0.5-0.2,1-0.4,1.4-0.7c-0.5,1-1.1,2-1.6,3c-0.8,1-1.6,2-2.4,3c1.1-0.1,2.1-0.3,3.2-0.4
		c-1.1,1.9-2.3,3.7-3.4,5.6c0.9,2.8,0.5,4.8,0,6.1c-0.6,1.5-1.6,2.5-2.1,4.8c-0.3,1.2-0.4,2.3-0.4,3c1.6-0.8,3.1-1.6,4.7-2.4
		c-0.6,1.4-1.1,2.9-1.7,4.3c-0.3,1.4-1,3.5-2.8,5.6c-1,1.2-2,2.1-2.9,2.7c1.9,0.1,3.8,0.2,5.7,0.3c-1.2,2.5-2.7,5.4-4.9,8.5
		c-3.1,4.5-6.6,8-9.6,10.6c1.8,0.1,3.9,0,6.2-0.2c2.4-0.2,4.4-0.6,6.1-1c-2.1,3-4.9,6.5-8.7,10.1c-2.7,2.6-5.4,4.7-7.9,6.5
		c2.9,0.2,5.9,0.5,8.8,0.7c-1.2,1.5-2.8,3.3-4.7,5.1c-2.1,1.9-4.2,3.4-6,4.6c3.1,0.6,6.1,1.1,9.2,1.7c-1,1.8-2.8,4.4-6,6.9
		c-2.3,1.9-4.6,3.2-6.5,4c3.7-0.1,7.5-0.3,11.2-0.4c-0.7,0.9-2.1,2.2-4.2,3.3c-1.7,0.9-3.3,1.3-4.4,1.5c7.5,1.3,15.1,2.7,22.6,4
		c0,0.9,0,1.8,0,2.7c3.8,0,7.6,0.1,11.4,0.1c0-0.9,0.1-1.9,0.1-2.8l18.6-0.6l-0.2-0.8l-9-4.9C453.9,779.2,458.2,779.4,462.5,779.7z"
		/>
	<path class="st9" d="M306.1,809.8v9.3h145.8v-40.9c-13.4-4.2-35.3-9.1-61.9-6C346.6,777.1,317.5,799.8,306.1,809.8z"/>
	<rect x="371.3" y="791" class="st9" width="341.9" height="52.1"/>
	<path class="st9" d="M445.9,753.9c-1.7,0-4.2,0-7.2,0.3c-13.6,1.2-23.2,6-45.4,17.6c-9.7,5.1-17.5,9.1-21.9,11.4
		c0,10.5,0,21,0,31.4h341.9v-61.3C624.1,753.6,535,753.7,445.9,753.9z"/>
	<g>
		<path class="st10" d="M232.6,841.9c-0.5,0.8-1.1,1.5-1.6,2.3l-1.8,11.4l-1.1,12.3v9.4h72.6v-34.5c-11.7-4.8-21.2-5.7-27.9-5.6
			c-3,0-5.2,0.3-16.6,1.7C246.6,840.1,238.5,841.1,232.6,841.9z"/>
		<path class="st10" d="M254.9,952c-1.7,0.3-3.8,0.9-6,1.9c-3.4,1.5-5.9,3.6-7.6,5.2c-6.3,4.6-12.6,9.2-19,13.8
			c-10.2,4.6-20.4,9.1-30.6,13.7c-0.4,0.5-1.1,1.3-1.6,2.6c-0.4,1-0.5,1.9-0.6,2.5c-1.3,0.4-1.7,0.9-1.9,1.4
			c-0.3,0.8-0.1,2.1-0.1,2.1c0,0,46.8,32.3,53.3,36.8c2.1-0.1,4.4-0.1,7-0.2c7.8-0.2,9.3-0.3,11.8,0c3,0.3,5.4,0.8,6.9,1.2
			c2.7,0.6,4.6,1.3,4.7,1.4c3.5,1.2,30.2,1.5,93.7,0.5c0-27.3,0-54.5,0-81.8C328.2,952.7,291.6,952.4,254.9,952z"/>
		<polygon class="st10" points="316.2,919.9 200.8,919.9 205,930.6 200.8,919.9 200.8,919.9 204.8,930.5 375.7,997.9 425.8,997.9 
			425.8,919.9 		"/>
		<path class="st10" d="M230.1,876.6c-7.5,3.1-15,6.2-22.5,9.3c-0.6,0.6-1.4,1.4-2.1,2.7c-1,1.9-0.9,3.6-0.8,4.5
			c0.4,3.1,0.8,6.1,1.1,9.2l-8.8,8.8l-0.3,1.1c0.3,0.6,0.6,1.2,0.9,1.7c1.2,2.3,2.4,4.6,3.5,6.9c39.7,0,79.4,0,119.1,0v-44.2H230.1z
			"/>
		<path class="st10" d="M713.3,993.9H270.1v38.7c13.5,14,27,27.9,40.6,41.9c134.2,0.4,268.4,0.8,402.6,1.1V993.9z"/>
		
			<rect x="402.2" y="878.9" transform="matrix(-1 -1.224647e-16 1.224647e-16 -1 1115.47 1888.4525)" class="st10" width="311.1" height="130.7"/>
		<rect x="283.4" y="870" class="st10" width="126.1" height="50.3"/>
		<path class="st10" d="M660.5,794.2l-7.1,10.4l-9.2,29.1l-18.9,5.3c-11-0.4-22.1-0.9-33.1-1.3c-5.6-1-12.3-2.8-19.7-6
			c-5.7-2.5-10.6-5.3-14.7-8c-15.6,2.2-31.2,4.4-46.8,6.6c-13.5-12.9-27.1-25.9-40.6-38.8c-26.2,4.8-52.4,9.5-78.6,14.3
			c-6.3-3.7-12.7-7.4-19-11c-0.7-1.2-1.3-2.3-2-3.5l-103.9,30v73.8h446.4V791.2L660.5,794.2z"/>
	</g>
	<path class="st11" d="M390,997.9c-10.5-2.3-25.8-5.1-44.6-5.9c-22.7-1-40.6-1.7-60.7,6.3c-9.3,3.7-27,12.6-43.5,33.7
		c2.8-0.2,6.5-0.4,10.9-0.3c9.1,0.1,13.8,0.2,17.9,2.4c2.3,1.3,4.1,2.9,7.6,6.3c2.6,2.4,4.5,4.5,5.9,6.1
		C319,1030.3,354.5,1014.1,390,997.9z"/>
	<path class="st11" d="M310.7,1074.5c-9.1-9.4-18.1-18.7-27.2-28.1c4.5-6.2,8.9-12.4,13.4-18.6c49.2,15.7,98.4,31.4,147.6,47
		C399.9,1074.8,355.3,1074.7,310.7,1074.5z"/>
	<rect x="313.3" y="997.9" class="st11" width="400" height="77"/>
	<path class="st11" d="M241.2,1032c-17.3-11.9-34.6-23.7-52-35.6c-0.4-0.6-0.9-1.2-1.3-1.9c21.8,10.1,43.6,20.2,65.3,30.3
		C249.3,1027.2,245.2,1029.6,241.2,1032z"/>
	<path class="st11" d="M497.7,997.9c71.9,21.3,143.7,42.6,215.6,64c0-72.9,0-145.9-0.1-218.8c-25.5,5.9-51,11.9-76.4,17.8
		C590.4,906.6,544.1,952.2,497.7,997.9z"/>
	<path class="st11" d="M475.4,997.9c24.7,0.7,49.4,1.5,74.2,2.2c18.4-35.9,36.8-71.8,55.2-107.7c-31.4,18.2-62.7,36.5-94.1,54.7
		C498.9,964.1,487.1,981,475.4,997.9z"/>
	<path class="st11" d="M511,830.3c-29.9,3.6-59.9,7.3-89.8,10.9c5.6-13.6,11.2-27.1,16.8-40.7c10.8-3,21.6-6,32.4-8.9
		C483.9,804.5,497.4,817.4,511,830.3z"/>
	<path class="st11" d="M456,850.7c-11.2,1.7-22.5,3.3-33.7,5c-0.4-4.8-0.8-9.6-1.2-14.5c8.9-6,17.8-12.1,26.7-18.1
		C450.6,832.3,453.3,841.5,456,850.7z"/>
	<path class="st11" d="M498.8,850.7c-12.1,5.4-24.1,10.9-36.2,16.3c-3.5-9.9-7.1-19.9-10.6-29.8c19.7-2.3,39.3-4.5,59-6.8
		C506.9,837.1,502.9,843.9,498.8,850.7z"/>
	<path class="st11" d="M480.2,1010.5c-14.2,2.6-28.3,5.3-42.5,7.9c3.2-16.5,6.4-33,9.7-49.5c8.6-4,17.3-8,25.9-11.9
		C475.6,974.8,477.9,992.6,480.2,1010.5z"/>
	<path class="st11" d="M259,951.5c-17.8-7-35.6-13.9-53.4-20.9c-1-5.9-1.9-11.9-2.9-17.8c1.9-1.1,3.9-2.1,6-3
		c23.3-10,47.7-2.5,60.9,3C266,925.7,262.5,938.6,259,951.5z"/>
	<path class="st11" d="M269.6,912.8h-34.8c-0.7-9.6-1-20.2-0.6-31.8c0.4-12,1.5-23,2.9-32.9c9.4-1.6,18.9-3.2,28.3-4.9
		C266.7,866.5,268.1,889.7,269.6,912.8z"/>
	<path class="st11" d="M237,922.8h-28.3v-30.7c9.2-3.9,18.4-7.7,27.5-11.6C236.5,894.7,236.7,908.7,237,922.8z"/>
	<path class="st11" d="M288.2,882.7c-6.2,10-12.5,20.1-18.7,30.1c-5.9-48.1-6.4-66-4.5-69c0.2-0.2,1.1-1.6,1.8-3.7
		c0.7-2.1,0.8-3.6,1-8c0.1-1.3,0.2-3.4,0.3-6.2c4.5,0.1,9,0.1,13.5,0.2C283.9,845.1,286.1,863.9,288.2,882.7z"/>
	<path class="st11" d="M364.6,810.3c-25.4,24.2-50.9,48.3-76.3,72.5c-2.2-18.8-4.4-37.7-6.6-56.5c28.4-9.1,56.8-18.2,85.1-27.2
		C366.1,802.8,365.3,806.5,364.6,810.3z"/>
	<rect x="258.9" y="908.4" class="st11" width="10.6" height="43.2"/>
	<path class="st11" d="M269.6,951.6c3.8,2.8,7.6,5.7,11.5,8.5c11.6-34.5,23.3-69.1,34.9-103.6c-15.7,14.7-31.4,29.4-47.2,44.1
		C269,917.6,269.3,934.6,269.6,951.6z"/>
	<path class="st11" d="M349.4,878.8c-20.5,10.9-41,21.8-61.5,32.7c7.9-18,15.8-35.9,23.8-53.9c17.6-15.8,35.3-31.6,52.9-47.3
		C359.5,833.1,354.5,855.9,349.4,878.8z"/>
	<path class="st11" d="M250.2,1025.2c-18.8-9.1-37.6-18.2-56.4-27.4c-1-0.9-2-1.8-3-2.7c36.1-3.8,72.1-7.5,108.2-11.3
		c2.8,6.1,2.7,10.7,2.2,13.7C298.5,1012.2,278.2,1024.2,250.2,1025.2z"/>
	<path class="st11" d="M575.2,867c-20.6,3.4-41.2,6.9-61.7,10.3c20.2-9.6,40.4-19.3,60.6-28.9c16.8-3.1,33.6-6.2,50.4-9.3
		C608,848.3,591.6,857.7,575.2,867z"/>
	<path class="st11" d="M531.2,884.8c-5.9-2.5-11.8-5-17.7-7.5c7.9-3.2,15.9-6.4,23.8-9.6c12.6-0.2,25.3-0.5,37.9-0.7
		C560.5,872.9,545.9,878.9,531.2,884.8z"/>
	<path class="st8" d="M460.4,762.6c-2.4-1.7-5-3.9-7.4-6.8c-0.7-0.8-1.3-1.6-1.8-2.3c1.8,0,3.5-0.1,5.3-0.1
		c-0.8-0.7-1.6-1.6-2.5-2.6c-1.5-1.9-2.4-3.7-3-5.2c1.1-0.3,2.2-0.6,3.4-1c1.7-0.6,3.2-1.2,4.5-1.8c-1.9-1.2-4.7-3.2-7-6.6
		c-1-1.5-1.7-2.9-2.2-4.1c1.4-1,2.7-2,4.1-3c-2.8-2.8-4.4-5.2-5.4-6.9c-0.5-0.9-1.6-3.1-0.8-4c0.1-0.2,0.3-0.2,1.5-1
		c0.5-0.3,0.9-0.6,1.1-0.8c-0.6-0.3-1.8-1.1-2.7-2.4c-0.6-1-0.9-1.9-1-2.5c-0.1-1.4-0.1-2.8-0.2-4.2c0.5-0.1,1-0.3,1.5-0.4
		c-2-1.3-3.1-2-3.1-2c0,0,1.3,0.3,3.3,0.8c-1.4-2.1-3-5-4.1-8.7c-0.4-1.5-0.7-2.9-0.9-4.1c-0.5-0.4-1-0.9-1.6-1.3
		c1.2-0.2,2.5-0.3,3.7-0.5c-0.4-0.1-1.3-0.5-1.9-1.4c-0.9-1.2-0.9-2.4-0.8-2.8c-0.4-0.3-0.8-0.6-1.2-1l1,0.1l-0.5-2.5l-0.5-0.6
		l0.4,0c-0.3-0.6-0.6-1.2-0.8-1.9c-0.6-1.8-0.6-3.5-0.5-4.7c-0.2,0.8-0.3,1.6-0.5,2.4l0.3,0.1l-0.4,0.3c0,1.1-0.2,2.3-0.4,3.6
		c-0.3,1.8-0.7,3.3-1.2,4.6c0.3-0.2,0.6-0.3,1-0.5c-0.4,0.8-0.7,1.6-1.1,2.4c-0.5,0.8-1.1,1.6-1.6,2.4c0.7-0.1,1.4-0.2,2.1-0.3
		c-0.8,1.5-1.5,2.9-2.3,4.4c0.6,2.2,0.4,3.8,0,4.8c-0.4,1.2-1,2-1.4,3.8c-0.2,1-0.3,1.8-0.3,2.4c1.1-0.6,2.1-1.2,3.2-1.9
		c-0.4,1.1-0.8,2.3-1.1,3.4c-0.2,1.1-0.7,2.7-1.8,4.4c-0.6,0.9-1.3,1.6-1.9,2.2c1.3,0.1,2.6,0.1,3.8,0.2c-0.8,2-1.8,4.3-3.3,6.7
		c-2.1,3.5-4.4,6.3-6.4,8.4c1.2,0.1,2.6,0,4.1-0.1c1.6-0.2,3-0.5,4.1-0.8c-1.4,2.4-3.3,5.1-5.8,8c-1.8,2-3.6,3.7-5.3,5.1
		c2,0.2,3.9,0.4,5.9,0.5c-0.8,1.2-1.8,2.6-3.2,4c-1.4,1.5-2.8,2.7-4,3.6c2,0.4,4.1,0.9,6.1,1.3c-0.7,1.4-1.9,3.5-4,5.5
		c-1.6,1.5-3.1,2.5-4.3,3.1c2.5-0.1,5-0.2,7.5-0.3c-0.5,0.7-1.4,1.7-2.8,2.6c-1.1,0.7-2.2,1-2.9,1.2c5,1.1,10.1,2.1,15.1,3.2
		c0,0.7,0,1.4,0,2.1c2.6,0,5.1,0.1,7.7,0.1c0-0.7,0-1.5,0.1-2.2l12.4-0.5l-0.1-0.6l-6-3.9C454.7,762.2,457.5,762.4,460.4,762.6z"/>
	<path class="st12" d="M500.8,774.2h-55.6v-95.7c3.2-2.7,12.6-10.1,26.2-10.6c15.6-0.6,26.4,8,29.4,10.6
		C500.8,710.4,500.8,742.3,500.8,774.2z"/>
	<rect x="457.1" y="674.1" class="st13" width="44.5" height="100.1"/>
	<rect x="469.9" y="634.2" class="st14" width="7.6" height="16"/>
	<path class="st15" d="M503.2,678.9c-8.3-1.8-18.6-3.3-30.4-3.2c-11.3,0.1-21.2,1.5-29.1,3.2c0-8.1,0-16.3,0-24.4
		c1.8-1.1,4.4-2.6,7.7-3.8c2.8-1.1,7.2-2.4,21.8-2.7c16.5-0.3,21.1,1.3,24.4,3c2.5,1.2,4.4,2.6,5.7,3.5
		C503.2,662.7,503.2,670.8,503.2,678.9z"/>
	<path class="st15" d="M491.5,632.1c-12,0-24-0.1-36.1-0.1c-0.6,1.5-1.3,3-1.9,4.5c6.3-0.5,13-0.9,20.2-0.9c7.1,0,13.7,0.3,19.9,0.9
		C492.9,635,492.2,633.5,491.5,632.1z"/>
	<path class="st16" d="M487.8,638.2"/>
	<path class="st15" d="M476.6,621c-2,0-4,0.1-5.9,0.1c-5,3.6-10.1,7.3-15.1,10.9h36C486.5,628.3,481.5,624.6,476.6,621z"/>
	<rect x="471.7" y="616.9" class="st15" width="3.9" height="6.7"/>
	<ellipse class="st15" cx="473.7" cy="614.8" rx="2.8" ry="3.1"/>
	<rect x="473.2" y="593" class="st15" width="1" height="19.3"/>
	<rect x="455.7" y="632" class="st15" width="35.8" height="2.9"/>
	<rect x="454.6" y="635.6" class="st17" width="37.8" height="19.1"/>
	<path class="st18" d="M464.2,728.4c9.5-7.8,19-15.5,28.5-23.3c0.1-1.7,0.2-3.5,0.3-5.2c-9.7,8.3-19.4,16.6-29.1,24.8
		C464.1,726,464.2,727.2,464.2,728.4z"/>
	<path class="st13" d="M549.9,779.1c-18.3-0.1-36.6-0.2-54.9-0.3c0-24.2,0.1-48.5,0.1-72.7c18.4,1.4,36.7,2.9,55.1,4.3
		C550.2,733.3,550,756.2,549.9,779.1z"/>
	<path class="st19" d="M551.4,712.5c-18.7-1-37.5-2.1-56.2-3.1c0-1.1,0-2.2,0-3.3c18.7,1,37.5,2,56.2,3
		C551.4,710.3,551.4,711.4,551.4,712.5z"/>
	<path class="st15" d="M557.2,709.5c-20.7-1.1-41.3-2.2-62-3.4c9.4-10.4,18.7-20.9,28.1-31.3C534.6,686.4,545.9,697.9,557.2,709.5z"
		/>
	<path class="st12" d="M468.7,776.7c8.8,0.7,17.6,1.4,26.4,2.1c0-23.1,0.1-46.3,0.1-69.4c-9.2,6.9-18.3,13.9-27.5,20.8
		C468,745.8,468.4,761.2,468.7,776.7z"/>
	<path class="st19" d="M495.2,706.1c-9.5,7.4-18.9,14.9-28.4,22.3c0,0.8,0,1.7,0,2.5c9.5-7.2,18.9-14.3,28.4-21.5
		C495.2,708.3,495.2,707.2,495.2,706.1z"/>
	<path class="st16" d="M464.2,728.4c1,0,2,0,2.9,0c9.3-7.4,18.7-14.9,28-22.3c-0.8-0.3-1.6-0.7-2.4-1
		C483.3,712.9,473.8,720.6,464.2,728.4z"/>
	<path class="st20" d="M495.2,706.1c-0.8-0.3-1.6-0.7-2.4-1c10.2-10.1,20.4-20.2,30.5-30.3l0,0C513.9,685.3,504.6,695.7,495.2,706.1
		z"/>
	<path class="st21" d="M495.5,697.6c-3.9,3.8-7.8,7.5-11.8,11.3c-2.4-4.8-4.9-9.7-7.3-14.5c6.3,0.2,12.6,0.5,18.9,0.7
		C495.4,695.9,495.4,696.7,495.5,697.6z"/>
	<path class="st21" d="M495.5,697.6c9.5-9.1,18.9-18.2,28.4-27.3c-9.5,8.3-19,16.5-28.5,24.8C495.4,695.9,495.4,696.7,495.5,697.6z"
		/>
	<path class="st20" d="M557.9,709.6c-0.2,0-0.4,0-0.7-0.1c-11.3-11.6-22.6-23.1-33.9-34.7c0.2-1.5,0.4-3,0.5-4.6
		C535.2,683.3,546.5,696.5,557.9,709.6z"/>
	<path class="st22" d="M493,699.9c-0.1,1.7-0.2,3.5-0.3,5.2c10.2-10.1,20.4-20.2,30.5-30.3c0.2-1.5,0.4-3,0.5-4.6
		C513.6,680.1,503.3,690,493,699.9z"/>
	<path class="st18" d="M483.7,708.9c-4.4,3.4-8.9,6.8-13.3,10.2c2-8.2,4-16.5,6-24.7C478.8,699.2,481.3,704,483.7,708.9z"/>
	<path class="st23" d="M549.9,780.8"/>
	<path class="st24" d="M533.1,753.2c-5.8-0.1-11.6-0.3-17.3-0.4c0-8.6,0-17.2,0-25.8c5.8,0.4,11.7,0.8,17.5,1.2
		C533.3,736.5,533.2,744.8,533.1,753.2z"/>
	<path class="st25" d="M713.2,518.3v-7.6c-1.5-0.2-2.9-0.4-4.4-0.6C710.3,512.9,711.8,515.6,713.2,518.3z"/>
	<path class="st25" d="M713.2,567v-2.4c-0.4-0.2-0.7-0.4-1.1-0.6C712.5,565,712.9,566,713.2,567z"/>
	<path class="st8" d="M404.6,767.9c-2.7-1.6-5.7-3.6-8.5-6.3c-0.8-0.7-1.4-1.5-2.1-2.2c2,0,4.1-0.1,6.1-0.1
		c-0.9-0.7-1.9-1.5-2.8-2.4c-1.7-1.8-2.8-3.5-3.4-4.8c1.2-0.2,2.5-0.5,3.8-0.9c1.9-0.5,3.7-1.1,5.2-1.6c-2.2-1.1-5.4-3-8-6.1
		c-1.2-1.4-2-2.7-2.5-3.9c1.6-0.9,3.1-1.8,4.7-2.8c-3.2-2.6-5.1-4.9-6.2-6.4c-0.6-0.8-1.9-2.8-0.9-3.7c0.2-0.1,0.3-0.2,1.7-0.9
		c0.5-0.3,1-0.5,1.3-0.7c-0.7-0.3-2-1-3-2.3c-0.7-0.9-1-1.8-1.1-2.3c-0.1-1.3-0.1-2.6-0.2-3.9c0.6-0.1,1.2-0.2,1.8-0.4
		c-2.3-1.2-3.6-1.9-3.6-1.9c0,0,1.5,0.3,3.7,0.7c-1.6-2-3.5-4.7-4.7-8.1c-0.5-1.4-0.8-2.7-1-3.8c-0.6-0.4-1.2-0.8-1.8-1.2
		c1.4-0.1,2.8-0.3,4.2-0.4c-0.4-0.1-1.4-0.5-2.2-1.3c-1-1.1-1-2.3-1-2.6c-0.4-0.3-0.9-0.6-1.3-0.9l1.1,0.1l-0.5-2.3l-0.6-0.5l0.5,0
		c-0.3-0.5-0.6-1.1-0.9-1.8c-0.6-1.7-0.7-3.2-0.6-4.4c-0.2,0.7-0.3,1.5-0.5,2.2l0.4,0.1l-0.5,0.3c0,1-0.2,2.2-0.4,3.4
		c-0.3,1.6-0.9,3.1-1.4,4.3c0.4-0.2,0.7-0.3,1.1-0.5c-0.4,0.7-0.8,1.5-1.2,2.2c-0.6,0.7-1.2,1.5-1.8,2.2c0.8-0.1,1.6-0.2,2.4-0.3
		c-0.9,1.4-1.7,2.7-2.6,4.1c0.7,2.1,0.4,3.5,0,4.5c-0.5,1.1-1.2,1.9-1.6,3.5c-0.2,0.9-0.3,1.7-0.3,2.2c1.2-0.6,2.4-1.2,3.6-1.7
		c-0.4,1.1-0.9,2.1-1.3,3.2c-0.2,1-0.8,2.5-2.1,4.1c-0.7,0.9-1.5,1.5-2.2,2c1.5,0.1,2.9,0.1,4.4,0.2c-0.9,1.9-2.1,4-3.7,6.2
		c-2.4,3.3-5.1,5.9-7.4,7.8c1.4,0,3,0,4.7-0.1c1.8-0.2,3.4-0.4,4.7-0.7c-1.6,2.2-3.8,4.8-6.7,7.4c-2.1,1.9-4.1,3.5-6,4.8
		c2.3,0.2,4.5,0.3,6.8,0.5c-0.9,1.1-2.1,2.4-3.6,3.7c-1.6,1.4-3.2,2.5-4.6,3.4c2.3,0.4,4.7,0.8,7,1.2c-0.8,1.3-2.2,3.2-4.6,5.1
		c-1.8,1.4-3.6,2.3-5,2.9c2.9-0.1,5.7-0.2,8.6-0.3c-0.6,0.6-1.6,1.6-3.2,2.4c-1.3,0.6-2.5,1-3.4,1.1c5.8,1,11.6,2,17.4,3
		c0,0.7,0,1.3,0,2c2.9,0,5.9,0.1,8.8,0.1c0-0.7,0.1-1.4,0.1-2.1l14.3-0.5l-0.1-0.6l-6.9-3.6C398,767.6,401.3,767.8,404.6,767.9z"/>
	<path class="st8" d="M435.1,760.8c-2.4-1.7-5-3.9-7.4-6.8c-0.7-0.8-1.3-1.6-1.8-2.3c1.8,0,3.5-0.1,5.3-0.1
		c-0.8-0.7-1.6-1.6-2.5-2.6c-1.5-1.9-2.4-3.7-3-5.2c1.1-0.3,2.2-0.6,3.4-1c1.7-0.6,3.2-1.2,4.5-1.8c-1.9-1.2-4.7-3.2-7-6.6
		c-1-1.5-1.7-2.9-2.2-4.1c1.4-1,2.7-2,4.1-3c-2.8-2.8-4.4-5.2-5.4-6.9c-0.5-0.9-1.6-3.1-0.8-4c0.1-0.2,0.3-0.2,1.5-1
		c0.5-0.3,0.9-0.6,1.1-0.8c-0.6-0.3-1.8-1.1-2.7-2.4c-0.6-1-0.9-1.9-1-2.5c-0.1-1.4-0.1-2.8-0.2-4.2c0.5-0.1,1-0.3,1.5-0.4
		c-2-1.3-3.1-2-3.1-2c0,0,1.3,0.3,3.3,0.8c-1.4-2.1-3-5-4.1-8.7c-0.4-1.5-0.7-2.9-0.9-4.1c-0.5-0.4-1-0.9-1.6-1.3
		c1.2-0.2,2.5-0.3,3.7-0.5c-0.4-0.1-1.3-0.5-1.9-1.4c-0.9-1.2-0.9-2.4-0.8-2.8c-0.4-0.3-0.8-0.6-1.2-1l1,0.1l-0.5-2.5l-0.5-0.6
		l0.4,0c-0.3-0.6-0.6-1.2-0.8-1.9c-0.6-1.8-0.6-3.5-0.5-4.7c-0.2,0.8-0.3,1.6-0.5,2.4l0.3,0.1l-0.4,0.3c0,1.1-0.2,2.3-0.4,3.6
		c-0.3,1.8-0.7,3.3-1.2,4.6c0.3-0.2,0.6-0.3,1-0.5c-0.4,0.8-0.7,1.6-1.1,2.4c-0.5,0.8-1.1,1.6-1.6,2.4c0.7-0.1,1.4-0.2,2.1-0.3
		c-0.8,1.5-1.5,2.9-2.3,4.4c0.6,2.2,0.4,3.8,0,4.8c-0.4,1.2-1,2-1.4,3.8c-0.2,1-0.3,1.8-0.3,2.4c1.1-0.6,2.1-1.2,3.2-1.9
		c-0.4,1.1-0.8,2.3-1.1,3.4c-0.2,1.1-0.7,2.7-1.8,4.4c-0.6,0.9-1.3,1.6-1.9,2.2c1.3,0.1,2.6,0.1,3.8,0.2c-0.8,2-1.8,4.3-3.3,6.7
		c-2.1,3.5-4.4,6.3-6.4,8.4c1.2,0.1,2.6,0,4.1-0.1c1.6-0.2,3-0.5,4.1-0.8c-1.4,2.4-3.3,5.1-5.8,8c-1.8,2-3.6,3.7-5.3,5.1
		c2,0.2,3.9,0.4,5.9,0.5c-0.8,1.2-1.8,2.6-3.2,4c-1.4,1.5-2.8,2.7-4,3.6c2,0.4,4.1,0.9,6.1,1.3c-0.7,1.4-1.9,3.5-4,5.5
		c-1.6,1.5-3.1,2.5-4.3,3.1c2.5-0.1,5-0.2,7.5-0.3c-0.5,0.7-1.4,1.7-2.8,2.6c-1.1,0.7-2.2,1-2.9,1.2c5,1.1,10.1,2.1,15.1,3.2
		c0,0.7,0,1.4,0,2.1c2.6,0,5.1,0.1,7.7,0.1c0-0.7,0-1.5,0.1-2.2l12.4-0.5l-0.1-0.6l-6-3.9C429.3,760.4,432.2,760.6,435.1,760.8z"/>
	<path class="st25" d="M713.2,811.2L713.2,811.2l0.1-9.8c0,0,0,0-0.1,0V811.2z"/>
	<path class="st25" d="M713.2,773.7C713.3,773.7,713.3,773.7,713.2,773.7l0.1-25.5c0,0,0,0-0.1,0V773.7z"/>
	<path class="st25" d="M680.9,565.1c0.1,0.2,0.3,0.5,0.4,0.7c1.3-0.8,2-1.2,2-1.2C683.3,564.5,682.4,564.7,680.9,565.1z"/>
	<path class="st7" d="M697.1,800.2l16.1,11v-9.8C707.9,801,702.5,800.6,697.1,800.2z"/>
	<path class="st7" d="M693.8,748.7c3.1,4.6,6.5,9.3,10.2,14c3,3.8,6.1,7.5,9.2,10.9v-25.5C706.8,748.4,700.3,748.6,693.8,748.7z"/>
	<path class="st7" d="M713.2,801.4C713.3,801.4,713.3,801.4,713.2,801.4l0.1-27.6c0,0,0,0-0.1-0.1V801.4z"/>
	<path class="st7" d="M713.2,748.2C713.3,748.2,713.3,748.2,713.2,748.2l0.1-11.9c0,0,0-0.1-0.1-0.1V748.2z"/>
	<path class="st7" d="M680.9,565.1c-1-1.8-2-3.5-2.8-5.1c-0.5-0.9-1-1.9-1.6-3.1c-2.3,4.1-4.7,7.7-6.9,10.9
		C674.6,566.5,678.6,565.6,680.9,565.1z"/>
	<path class="st8" d="M651.2,765.1c-7.8-5.5-16.3-12.8-24.4-22.3c-2.2-2.6-4.1-5.1-5.9-7.6c5.8-0.2,11.7-0.3,17.5-0.5
		c-2.6-2.3-5.4-5.1-8.1-8.6c-4.9-6.2-7.9-12.3-9.8-17.1c3.5-0.8,7.2-1.9,11-3.1c5.5-1.8,10.5-3.8,14.9-5.8
		c-6.3-3.8-15.5-10.6-23.1-21.7c-3.3-4.9-5.6-9.6-7.2-13.7c4.5-3.3,8.9-6.5,13.4-9.8c-9.3-9.1-14.6-17.2-17.7-22.8
		c-1.6-2.9-5.3-10-2.7-13c0.4-0.5,0.9-0.7,4.8-3.3c1.6-1.1,2.8-1.9,3.7-2.5c-2-1.1-5.8-3.5-8.8-8c-2-3.2-2.8-6.2-3.2-8.2
		c-0.2-4.6-0.4-9.2-0.6-13.8c1.7-0.4,3.4-0.9,5.1-1.3c-6.7-4.4-10.3-6.7-10.3-6.7c0,0,4.2,1,10.7,2.6c-4.7-6.9-10-16.5-13.4-28.5
		c-1.4-4.8-2.3-9.4-2.8-13.5c-1.7-1.5-3.4-2.9-5.2-4.4c4-0.5,8.1-1,12.1-1.5c-1.3-0.5-4.1-1.8-6.3-4.6c-3-3.9-2.8-8-2.8-9.2
		c-1.3-1-2.5-2.1-3.8-3.1l3.2,0.2l-1.6-8.1l-1.8-1.8l1.4,0c-0.9-1.8-1.8-4-2.6-6.4c-1.9-6.1-2-11.5-1.7-15.4c-0.5,2.6-1,5.2-1.5,7.8
		l1.1,0.3l-1.4,1.1c-0.1,3.6-0.5,7.6-1.3,12c-1,5.8-2.5,10.8-4,15.1c1.1-0.6,2.1-1.2,3.2-1.7c-1.2,2.6-2.3,5.2-3.5,7.8
		c-1.8,2.6-3.5,5.2-5.3,7.7c2.3-0.3,4.7-0.7,7-1c-2.5,4.8-5,9.7-7.5,14.5c2,7.3,1.2,12.4,0,15.8c-1.3,3.9-3.4,6.6-4.7,12.4
		c-0.7,3.2-0.8,5.9-0.8,7.7c3.5-2,6.9-4.1,10.4-6.1c-1.3,3.7-2.5,7.4-3.8,11.1c-0.6,3.5-2.2,9-6.1,14.6c-2.1,3.1-4.4,5.4-6.4,7.1
		c4.2,0.2,8.4,0.5,12.7,0.7c-2.6,6.6-6,14.1-10.8,22c-6.9,11.6-14.6,20.7-21.2,27.5c3.9,0.2,8.5,0.1,13.6-0.4
		c5.2-0.6,9.7-1.5,13.5-2.5c-4.6,7.9-10.9,16.9-19.2,26.2c-5.9,6.7-11.9,12.3-17.4,16.9c6.5,0.6,12.9,1.2,19.4,1.8
		c-2.7,4-6.1,8.5-10.4,13.1c-4.6,4.9-9.2,8.8-13.2,11.9c6.7,1.4,13.4,2.9,20.2,4.3c-2.3,4.7-6.3,11.4-13.1,18
		c-5.1,4.9-10.2,8.2-14.3,10.4c8.2-0.4,16.5-0.7,24.7-1.1c-1.6,2.2-4.6,5.7-9.3,8.5c-3.7,2.3-7.2,3.4-9.7,4
		c16.6,3.5,33.2,7,49.8,10.5c0,2.4,0.1,4.7,0.1,7.1c8.4,0.1,16.8,0.2,25.2,0.3c0.1-2.4,0.1-4.9,0.2-7.3l40.9-1.6l-0.4-2l-19.9-12.7
		C632.3,763.8,641.7,764.5,651.2,765.1z"/>
	<path class="st8" d="M713.2,814.3v1.1c-0.1,0-0.1,0-0.2,0c0,2.4-0.1,4.8-0.1,7.2c-10.7,0.1-21.4,0.2-32.2,0.3
		c-0.1-2.5-0.2-5-0.3-7.4l-52.2-1.7l0.5-2l25.3-12.9c-12,0.6-24.1,1.3-36.1,1.9c9.9-5.6,20.8-13,31.1-22.7c2.8-2.6,5.2-5.2,7.5-7.7
		c-7.4-0.2-14.9-0.3-22.3-0.5c3.3-2.3,6.9-5.2,10.4-8.7c6.3-6.3,10.1-12.5,12.4-17.3c-4.4-0.9-9.2-1.9-14.1-3.2
		c-7-1.8-13.4-3.9-19-5.9c8-3.9,19.8-10.8,29.4-22c4.2-5,7.2-9.7,9.2-13.9c-5.7-3.3-11.4-6.6-17.1-9.9c11.8-9.2,18.6-17.5,22.5-23.1
		c2.1-3,6.8-10.2,3.4-13.2c-0.6-0.5-1.1-0.7-6.1-3.4c-2-1.1-3.6-2-4.7-2.5c2.5-1.1,7.5-3.5,11.2-8.1c2.6-3.2,3.6-6.3,4.1-8.3
		c0.3-4.7,0.5-9.4,0.8-14c-2.2-0.4-4.3-0.9-6.5-1.3c5.2-2.7,9-4.7,11.1-5.8c-0.1-0.2-0.3-0.4-0.4-0.6c-2.3,0.5-6.3,1.2-11.3,2.2
		c2.3-2.6,4.6-5.7,6.9-9.1c-3-5.2-6.9-13.5-3.1-17.4c0.8-0.8,1.5-1,8.3-5.1c2.7-1.6,4.9-2.9,6.3-3.8c-3.4-1.6-10.1-5.3-15.1-12.2
		c-3.5-4.9-4.9-9.5-5.5-12.5c-0.4-7.1-0.7-14.1-1.1-21.2c2.9-0.7,5.9-1.3,8.8-2c-11.6-6.7-17.8-10.3-17.8-10.3c0,0,7.3,1.6,18.6,4
		c-8.2-10.6-17.3-25.2-23.2-43.6c-2.4-7.4-3.9-14.4-4.8-20.7c-3-2.2-6-4.5-8.9-6.7c7-0.8,14-1.6,20.9-2.3c-2.2-0.7-7.1-2.7-11-7.1
		c-5.2-5.9-4.9-12.3-4.8-14.1c-2.2-1.6-4.4-3.2-6.6-4.8l5.6,0.3l-2.7-12.4l-3-2.8l2.4,0c-1.6-2.8-3.2-6.1-4.4-9.8
		c-3.2-9.3-3.4-17.6-2.9-23.6c-0.9,4-1.7,7.9-2.6,11.9l1.9,0.4l-2.4,1.7c-0.2,5.5-0.9,11.7-2.2,18.4c-1.7,8.8-4.3,16.6-6.9,23.1
		c1.8-0.9,3.7-1.8,5.5-2.6c-2,4-4,8-6,11.9c-3.1,4-6.1,7.9-9.2,11.9c4-0.5,8.1-1,12.1-1.6c-4.3,7.4-8.6,14.9-12.9,22.3
		c3.4,11.1,2,19,0,24.2c-2.3,5.9-6,10-8.2,19c-1.2,4.9-1.4,9.1-1.4,11.9c6-3.1,12-6.2,17.9-9.3c-2.2,5.7-4.3,11.4-6.5,17.1
		c-1.1,5.4-3.7,13.8-10.5,22.4c-3.7,4.7-7.6,8.2-11.1,10.9c7.3,0.4,14.6,0.7,21.9,1.1c-4.4,10.1-10.4,21.6-18.6,33.7
		c-12,17.8-25.2,31.7-36.6,42.1c6.8,0.3,14.7,0.2,23.6-0.7c9-0.9,16.8-2.3,23.4-3.9c-8,12-18.8,25.9-33.1,40.2
		c-10.3,10.2-20.5,18.8-30,25.9c11.2,0.9,22.4,1.8,33.6,2.8c-4.6,6.1-10.5,13-18,20.1c-7.9,7.5-15.8,13.5-22.8,18.2
		c11.6,2.2,23.3,4.4,34.9,6.6c-3.9,7.2-10.9,17.5-22.7,27.5c-8.8,7.5-17.7,12.5-24.7,15.9c14.3-0.6,28.5-1.1,42.8-1.7
		c-2.8,3.4-8,8.7-16.1,13.1c-6.4,3.5-12.5,5.2-16.8,6.1c28.7,5.3,57.5,10.7,86.2,16c14.7,0,29.5,0,44.2,0l52-1.9L713.2,814.3
		L713.2,814.3z"/>
	<g>
		<path class="st8" d="M713.2,736.2C713.3,736.3,713.3,736.3,713.2,736.2l0.1-41.6c0,0,0,0-0.1,0V736.2z"/>
		<path class="st8" d="M712.3,695c-6.7,2.3-13.1,4.2-19.1,5.8c3.2,8.7,8.3,19.8,16.9,31.3c1.1,1.4,2.2,2.8,3.2,4.1v-41.6
			C712.9,694.8,712.6,694.9,712.3,695z"/>
		<path class="st8" d="M680.9,565.1c1.5-0.4,2.4-0.6,2.4-0.6c0,0-0.7,0.4-2,1.2c5.6,9.7,14.2,22.2,27.4,36
			c-7.7,6-15.4,11.9-23.2,17.9c2.8,7.5,6.8,16.1,12.5,25c4.8,7.5,10,13.8,15.2,19.3V567c-0.4-1-0.7-2-1.1-3c0.4,0.2,0.7,0.4,1.1,0.6
			v-46.3c-1.5-2.7-2.9-5.5-4.4-8.2c1.5,0.2,2.9,0.4,4.4,0.6v-5.7c-0.7-1-1.5-2.1-2.2-3.1c-1.5-3.2-3-6.3-4.5-9.5
			c1.4,0.7,2.7,1.4,4.1,2.1c-1.9-5.2-3.8-11.3-5.1-18.3c-1-5.3-1.4-10.2-1.6-14.6l-1.8-1.4l1.4-0.3c-0.6-3.1-1.3-6.3-1.9-9.4
			c0.4,4.7,0.2,11.3-2.1,18.7c-0.9,2.9-2.1,5.5-3.3,7.8l1.8,0l-2.2,2.2l-2,9.9l4.1-0.3c-1.6,1.3-3.2,2.5-4.8,3.8
			c0.1,1.4,0.3,6.5-3.5,11.2c-2.8,3.5-6.5,5.1-8.1,5.6c5.1,0.6,10.3,1.2,15.4,1.9c-2.2,1.8-4.4,3.6-6.6,5.3
			c-0.7,5-1.8,10.6-3.6,16.4c-2.7,9.1-6.4,17-10.2,23.8c0.6,1.2,1.1,2.2,1.6,3.1C678.9,561.6,679.9,563.3,680.9,565.1z"/>
		<path class="st8" d="M713.3,694.6V664c0,0,0,0-0.1-0.1L713.3,694.6C713.3,694.7,713.3,694.7,713.3,694.6z"/>
		<path class="st8" d="M685.5,619.6c7.7-6,15.4-11.9,23.2-17.9c-13.2-13.7-21.8-26.3-27.4-36c-2.1,1.3-5.8,3.6-11.1,6.9
			c2.2,0.5,4.3,1,6.5,1.6c-0.3,5.6-0.5,11.2-0.8,16.8c-0.4,2.4-1.5,6-4.1,9.9c-3.7,5.5-8.6,8.4-11.2,9.7c1.1,0.7,2.7,1.8,4.7,3
			c5.1,3.2,5.6,3.4,6.1,4c3.4,3.6-1.3,12.3-3.4,15.8c-3.9,6.7-10.7,16.6-22.5,27.7c5.7,3.9,11.4,7.9,17.1,11.8
			c-2.1,5-5,10.7-9.2,16.6c-9.6,13.4-21.4,21.7-29.4,26.3c5.6,2.4,11.9,4.9,19,7.1c4.9,1.5,9.7,2.8,14.1,3.8
			c-2.3,5.8-6.2,13.1-12.4,20.7c-3.5,4.2-7.1,7.7-10.4,10.5c7.4,0.2,14.9,0.4,22.3,0.6c-2.3,3-4.8,6.1-7.5,9.3
			c-10.2,11.6-21.1,20.5-31.1,27.1c12-0.8,24.1-1.5,36.1-2.3l-25.3,15.5l-0.5,2.4l52.2,2c0.1,3,0.2,5.9,0.3,8.9
			c10.7-0.1,21.4-0.2,32.2-0.3c0-2.9,0.1-5.7,0.1-8.6c0.1,0,0.1,0,0.2,0v-1.4l-16.1-11c5.4,0.4,10.8,0.8,16.1,1.2v-27.7
			c-3.1-3.5-6.2-7.1-9.2-10.9c-3.7-4.7-7.1-9.4-10.2-14c6.5-0.2,13-0.4,19.4-0.6v-12c-1.1-1.3-2.2-2.7-3.2-4.1
			c-8.5-11.4-13.7-22.6-16.9-31.3c6-1.5,12.4-3.4,19.1-5.8c0.3-0.1,0.7-0.2,1-0.4v-30.8c-5.2-5.5-10.4-11.8-15.2-19.3
			C692.3,635.7,688.3,627.1,685.5,619.6z"/>
	</g>
	<g>
		<path class="st8" d="M682.6,738.4C682.7,738.4,682.7,738.5,682.6,738.4l0.1-41.6c0,0,0,0-0.1,0V738.4z"/>
		<path class="st8" d="M681.6,697.2c-6.7,2.3-13.1,4.2-19.1,5.8c3.2,8.7,8.3,19.8,16.9,31.3c1.1,1.4,2.2,2.8,3.2,4.1v-41.6
			C682.3,697,682,697.1,681.6,697.2z"/>
		<path class="st8" d="M650.3,567.3c1.5-0.4,2.4-0.6,2.4-0.6c0,0-0.7,0.4-2,1.2c5.6,9.7,14.2,22.2,27.4,36
			c-7.7,6-15.4,11.9-23.2,17.9c2.8,7.5,6.8,16.1,12.5,25c4.8,7.5,10,13.8,15.2,19.3v-96.9c-0.4-1-0.7-2-1.1-3
			c0.4,0.2,0.7,0.4,1.1,0.6v-46.3c-1.5-2.7-2.9-5.5-4.4-8.2c1.5,0.2,2.9,0.4,4.4,0.6v-5.7c-0.7-1-1.5-2.1-2.2-3.1
			c-1.5-3.2-3-6.3-4.5-9.5c1.4,0.7,2.7,1.4,4.1,2.1c-1.9-5.2-3.8-11.3-5.1-18.3c-1-5.3-1.4-10.2-1.6-14.6l-1.8-1.4l1.4-0.3
			c-0.6-3.1-1.3-6.3-1.9-9.4c0.4,4.7,0.2,11.3-2.1,18.7c-0.9,2.9-2.1,5.5-3.3,7.8l1.8,0l-2.2,2.2l-2,9.9l4.1-0.3
			c-1.6,1.3-3.2,2.5-4.8,3.8c0.1,1.4,0.3,6.5-3.5,11.2c-2.8,3.5-6.5,5.1-8.1,5.6c5.1,0.6,10.3,1.2,15.4,1.9
			c-2.2,1.8-4.4,3.6-6.6,5.3c-0.7,5-1.8,10.6-3.6,16.4c-2.7,9.1-6.4,17-10.2,23.8c0.6,1.2,1.1,2.2,1.6,3.1
			C648.3,563.7,649.3,565.5,650.3,567.3z"/>
		<path class="st8" d="M682.7,696.8v-30.7c0,0,0,0-0.1-0.1L682.7,696.8C682.7,696.8,682.7,696.8,682.7,696.8z"/>
		<path class="st8" d="M654.9,621.8c7.7-6,15.4-11.9,23.2-17.9c-13.2-13.7-21.8-26.3-27.4-36c-2.1,1.3-5.8,3.6-11.1,6.9
			c2.2,0.5,4.3,1,6.5,1.6c-0.3,5.6-0.5,11.2-0.8,16.8c-0.4,2.4-1.5,6-4.1,9.9c-3.7,5.5-8.6,8.4-11.2,9.7c1.1,0.7,2.7,1.8,4.7,3
			c5.1,3.2,5.6,3.4,6.1,4c3.4,3.6-1.3,12.3-3.4,15.8c-3.9,6.7-10.7,16.6-22.5,27.7c5.7,3.9,11.4,7.9,17.1,11.8
			c-2.1,5-5,10.7-9.2,16.6c-9.6,13.4-21.4,21.7-29.4,26.3c5.6,2.4,11.9,4.9,19,7.1c4.9,1.5,9.7,2.8,14.1,3.8
			c-2.3,5.8-6.2,13.1-12.4,20.7c-3.5,4.2-7.1,7.7-10.4,10.5c7.4,0.2,14.9,0.4,22.3,0.6c-2.3,3-4.8,6.1-7.5,9.3
			c-10.2,11.6-21.1,20.5-31.1,27.1c12-0.8,24.1-1.5,36.1-2.3l-25.3,15.5l-0.5,2.4l52.2,2c0.1,3,0.2,5.9,0.3,8.9
			c10.7-0.1,21.4-0.2,32.2-0.3c0-2.9,0.1-5.7,0.1-8.6c0.1,0,0.1,0,0.2,0v-1.4l-16.1-11c5.4,0.4,10.8,0.8,16.1,1.2v-27.7
			c-3.1-3.5-6.2-7.1-9.2-10.9c-3.7-4.7-7.1-9.4-10.2-14c6.5-0.2,13-0.4,19.4-0.6v-12c-1.1-1.3-2.2-2.7-3.2-4.1
			c-8.5-11.4-13.7-22.6-16.9-31.3c6-1.5,12.4-3.4,19.1-5.8c0.3-0.1,0.7-0.2,1-0.4v-30.8c-5.2-5.5-10.4-11.8-15.2-19.3
			C661.7,637.9,657.7,629.3,654.9,621.8z"/>
	</g>
</g>
<g id="words" class="st26">
	<g class="st27">
		<text transform="matrix(1.0036 0 0 1 72.2796 1075.4805)" class="st28 st29 st30">Acadia</text>
	</g>
	<g class="st27">
		<text transform="matrix(1 0 0 1 525.5168 1075.8795)" class="st28 st31 st32">Maine</text>
	</g>
	<g class="st27">
		<g>
			<text transform="matrix(0.992 0 0 1 602.7632 1109.0073)" class="st28 st33 st34">Fish</text>
		</g>
		<g>
			<text transform="matrix(0.992 0 0 1 509.9585 1109.0073)" class="st28 st33 st34">Camp</text>
		</g>
		<g>
			<text transform="matrix(0.992 0 0 1 435.9214 1109.0073)" class="st28 st33 st34">Hike</text>
		</g>
		<g>
			<text transform="matrix(0.992 0 0 1 362.9097 1109.0073)" class="st28 st33 st34">Bike</text>
		</g>
		<g>
			<text transform="matrix(0.992 0 0 1 273.0386 1108.4429)" class="st28 st33 st35">Kayak</text>
		</g>
	</g>
	<g class="st27">
		<text transform="matrix(1 0 0 1 78.8916 71.1894)" class="st28 st33 st36">est. 1/19/1929</text>
	</g>
	<g class="st27">
		<g>
			<text transform="matrix(0.9926 0 0 1 455.5452 69.1114)" class="st28 st33 st37">LAT 44.338974</text>
		</g>
		<g>
			<text transform="matrix(0.9926 0 0 1 576.6458 69.1114)" class="st28 st33 st37">LONG -68.273430</text>
		</g>
	</g>
</g>
<g id="the_grid" class="st26">
	<g class="st27">
		<line class="st38" x1="777.6" y1="-105" x2="777.6" y2="1319"/>
		<line class="st38" x1="720.7" y1="-105" x2="720.7" y2="1319"/>
		<line class="st38" x1="713.4" y1="-105" x2="713.4" y2="1319"/>
		<line class="st38" x1="656.5" y1="-105" x2="656.5" y2="1319"/>
		<line class="st38" x1="649.2" y1="-105" x2="649.2" y2="1319"/>
		<line class="st38" x1="592.3" y1="-105" x2="592.3" y2="1319"/>
		<line class="st38" x1="585" y1="-105" x2="585" y2="1319"/>
		<line class="st38" x1="528.1" y1="-105" x2="528.1" y2="1319"/>
		<line class="st38" x1="520.8" y1="-105" x2="520.8" y2="1319"/>
		<line class="st38" x1="463.9" y1="-105" x2="463.9" y2="1319"/>
		<line class="st38" x1="456.5" y1="-105" x2="456.5" y2="1319"/>
		<line class="st38" x1="399.7" y1="-105" x2="399.7" y2="1319"/>
		<line class="st38" x1="392.3" y1="-105" x2="392.3" y2="1319"/>
		<line class="st38" x1="335.5" y1="-105" x2="335.5" y2="1319"/>
		<line class="st38" x1="328.1" y1="-105" x2="328.1" y2="1319"/>
		<line class="st38" x1="271.2" y1="-105" x2="271.2" y2="1319"/>
		<line class="st38" x1="263.9" y1="-105" x2="263.9" y2="1319"/>
		<line class="st38" x1="207" y1="-105" x2="207" y2="1319"/>
		<line class="st38" x1="199.7" y1="-105" x2="199.7" y2="1319"/>
		<line class="st38" x1="142.8" y1="-105" x2="142.8" y2="1319"/>
		<line class="st38" x1="135.5" y1="-105" x2="135.5" y2="1319"/>
		<line class="st38" x1="78.6" y1="-105" x2="78.6" y2="1319"/>
		<line class="st38" x1="71.3" y1="-105" x2="71.3" y2="1319"/>
		<line class="st38" x1="14.4" y1="-105" x2="14.4" y2="1319"/>
		<line class="st38" x1="-100" y1="1209.6" x2="892" y2="1209.6"/>
		<line class="st38" x1="-100" y1="1152.7" x2="892" y2="1152.7"/>
		<line class="st38" x1="-100" y1="1142.6" x2="892" y2="1142.6"/>
		<line class="st38" x1="-100" y1="1085.8" x2="892" y2="1085.8"/>
		<line class="st38" x1="-100" y1="1075.7" x2="892" y2="1075.7"/>
		<line class="st38" x1="-100" y1="1018.8" x2="892" y2="1018.8"/>
		<line class="st38" x1="-100" y1="1008.7" x2="892" y2="1008.7"/>
		<line class="st38" x1="-100" y1="951.8" x2="892" y2="951.8"/>
		<line class="st38" x1="-100" y1="941.8" x2="892" y2="941.8"/>
		<line class="st38" x1="-100" y1="884.9" x2="892" y2="884.9"/>
		<line class="st38" x1="-100" y1="874.8" x2="892" y2="874.8"/>
		<line class="st38" x1="-100" y1="817.9" x2="892" y2="817.9"/>
		<line class="st38" x1="-100" y1="807.8" x2="892" y2="807.8"/>
		<line class="st38" x1="-100" y1="751" x2="892" y2="751"/>
		<line class="st38" x1="-100" y1="740.9" x2="892" y2="740.9"/>
		<line class="st38" x1="-100" y1="684" x2="892" y2="684"/>
		<line class="st38" x1="-100" y1="673.9" x2="892" y2="673.9"/>
		<line class="st38" x1="-100" y1="617" x2="892" y2="617"/>
		<line class="st38" x1="-100" y1="607" x2="892" y2="607"/>
		<line class="st38" x1="-100" y1="550.1" x2="892" y2="550.1"/>
		<line class="st38" x1="-100" y1="540" x2="892" y2="540"/>
		<line class="st38" x1="-100" y1="483.1" x2="892" y2="483.1"/>
		<line class="st38" x1="-100" y1="473" x2="892" y2="473"/>
		<line class="st38" x1="-100" y1="416.2" x2="892" y2="416.2"/>
		<line class="st38" x1="-100" y1="406.1" x2="892" y2="406.1"/>
		<line class="st38" x1="-100" y1="349.2" x2="892" y2="349.2"/>
		<line class="st38" x1="-100" y1="339.1" x2="892" y2="339.1"/>
		<line class="st38" x1="-100" y1="282.2" x2="892" y2="282.2"/>
		<line class="st38" x1="-100" y1="272.2" x2="892" y2="272.2"/>
		<line class="st38" x1="-100" y1="215.3" x2="892" y2="215.3"/>
		<line class="st38" x1="-100" y1="205.2" x2="892" y2="205.2"/>
		<line class="st38" x1="-100" y1="148.3" x2="892" y2="148.3"/>
		<line class="st38" x1="-100" y1="138.2" x2="892" y2="138.2"/>
		<line class="st38" x1="-100" y1="81.4" x2="892" y2="81.4"/>
		<line class="st38" x1="-100" y1="71.3" x2="892" y2="71.3"/>
		<line class="st38" x1="-100" y1="14.4" x2="892" y2="14.4"/>
	</g>
	<g class="st27">
		<line class="st39" x1="-781.1" y1="-105" x2="-781.1" y2="1319"/>
		<line class="st39" x1="-838" y1="-105" x2="-838" y2="1319"/>
		<line class="st39" x1="-845.3" y1="-105" x2="-845.3" y2="1319"/>
		<line class="st39" x1="-902.2" y1="-105" x2="-902.2" y2="1319"/>
		<line class="st39" x1="-909.5" y1="-105" x2="-909.5" y2="1319"/>
		<line class="st39" x1="-966.4" y1="-105" x2="-966.4" y2="1319"/>
		<line class="st39" x1="-973.7" y1="-105" x2="-973.7" y2="1319"/>
		<line class="st39" x1="-1030.6" y1="-105" x2="-1030.6" y2="1319"/>
		<line class="st39" x1="-1037.9" y1="-105" x2="-1037.9" y2="1319"/>
		<line class="st39" x1="-1094.8" y1="-105" x2="-1094.8" y2="1319"/>
		<line class="st39" x1="-1102.1" y1="-105" x2="-1102.1" y2="1319"/>
		<line class="st39" x1="-1159" y1="-105" x2="-1159" y2="1319"/>
		<line class="st39" x1="-1166.3" y1="-105" x2="-1166.3" y2="1319"/>
		<line class="st39" x1="-1223.2" y1="-105" x2="-1223.2" y2="1319"/>
		<line class="st39" x1="-1230.6" y1="-105" x2="-1230.6" y2="1319"/>
		<line class="st39" x1="-1287.4" y1="-105" x2="-1287.4" y2="1319"/>
		<line class="st39" x1="-1294.8" y1="-105" x2="-1294.8" y2="1319"/>
		<line class="st39" x1="-1351.6" y1="-105" x2="-1351.6" y2="1319"/>
		<line class="st39" x1="-1359" y1="-105" x2="-1359" y2="1319"/>
		<line class="st39" x1="-1415.9" y1="-105" x2="-1415.9" y2="1319"/>
		<line class="st39" x1="-1423.2" y1="-105" x2="-1423.2" y2="1319"/>
		<line class="st39" x1="-1480.1" y1="-105" x2="-1480.1" y2="1319"/>
		<line class="st39" x1="-1487.4" y1="-105" x2="-1487.4" y2="1319"/>
		<line class="st39" x1="-1544.3" y1="-105" x2="-1544.3" y2="1319"/>
		<line class="st39" x1="-1658.7" y1="1209.6" x2="-666.7" y2="1209.6"/>
		<line class="st39" x1="-1658.7" y1="1152.7" x2="-666.7" y2="1152.7"/>
		<line class="st39" x1="-1658.7" y1="1142.6" x2="-666.7" y2="1142.6"/>
		<line class="st39" x1="-1658.7" y1="1085.8" x2="-666.7" y2="1085.8"/>
		<line class="st39" x1="-1658.7" y1="1075.7" x2="-666.7" y2="1075.7"/>
		<line class="st39" x1="-1658.7" y1="1018.8" x2="-666.7" y2="1018.8"/>
		<line class="st39" x1="-1658.7" y1="1008.7" x2="-666.7" y2="1008.7"/>
		<line class="st39" x1="-1658.7" y1="951.8" x2="-666.7" y2="951.8"/>
		<line class="st39" x1="-1658.7" y1="941.8" x2="-666.7" y2="941.8"/>
		<line class="st39" x1="-1658.7" y1="884.9" x2="-666.7" y2="884.9"/>
		<line class="st39" x1="-1658.7" y1="874.8" x2="-666.7" y2="874.8"/>
		<line class="st39" x1="-1658.7" y1="817.9" x2="-666.7" y2="817.9"/>
		<line class="st39" x1="-1658.7" y1="807.8" x2="-666.7" y2="807.8"/>
		<line class="st39" x1="-1658.7" y1="751" x2="-666.7" y2="751"/>
		<line class="st39" x1="-1658.7" y1="740.9" x2="-666.7" y2="740.9"/>
		<line class="st39" x1="-1658.7" y1="684" x2="-666.7" y2="684"/>
		<line class="st39" x1="-1658.7" y1="673.9" x2="-666.7" y2="673.9"/>
		<line class="st39" x1="-1658.7" y1="617" x2="-666.7" y2="617"/>
		<line class="st39" x1="-1658.7" y1="607" x2="-666.7" y2="607"/>
		<line class="st39" x1="-1658.7" y1="550.1" x2="-666.7" y2="550.1"/>
		<line class="st39" x1="-1658.7" y1="540" x2="-666.7" y2="540"/>
		<line class="st39" x1="-1658.7" y1="483.1" x2="-666.7" y2="483.1"/>
		<line class="st39" x1="-1658.7" y1="473" x2="-666.7" y2="473"/>
		<line class="st39" x1="-1658.7" y1="416.2" x2="-666.7" y2="416.2"/>
		<line class="st39" x1="-1658.7" y1="406.1" x2="-666.7" y2="406.1"/>
		<line class="st39" x1="-1658.7" y1="349.2" x2="-666.7" y2="349.2"/>
		<line class="st39" x1="-1658.7" y1="339.1" x2="-666.7" y2="339.1"/>
		<line class="st39" x1="-1658.7" y1="282.2" x2="-666.7" y2="282.2"/>
		<line class="st39" x1="-1658.7" y1="272.2" x2="-666.7" y2="272.2"/>
		<line class="st39" x1="-1658.7" y1="215.3" x2="-666.7" y2="215.3"/>
		<line class="st39" x1="-1658.7" y1="205.2" x2="-666.7" y2="205.2"/>
		<line class="st39" x1="-1658.7" y1="148.3" x2="-666.7" y2="148.3"/>
		<line class="st39" x1="-1658.7" y1="138.2" x2="-666.7" y2="138.2"/>
		<line class="st39" x1="-1658.7" y1="81.4" x2="-666.7" y2="81.4"/>
		<line class="st39" x1="-1658.7" y1="71.3" x2="-666.7" y2="71.3"/>
		<line class="st39" x1="-1658.7" y1="14.4" x2="-666.7" y2="14.4"/>
	</g>
</g>
</svg>
