<svg xmlns="http://www.w3.org/2000/svg" viewBox="0 0 422.85 316.41"><defs><style>.cls-1,.cls-3{fill:#f1f6e5;}.cls-2{fill:#18190f;}.cls-3{font-size:86.88px;font-family:HelveticaNeueLTStd-Md, Helvetica Neue LT Std;font-weight:500;}</style></defs><g id="Layer_2" data-name="Layer 2"><g id="Layer_1-2" data-name="Layer 1"><rect class="cls-1" x="159.86" y="130.84" width="13.86" height="3.61" transform="translate(377.77 162.73) rotate(149.62)"/><rect class="cls-1" x="165.37" y="127.93" width="7.53" height="4.91" transform="translate(380.99 157.33) rotate(149.62)"/><path class="cls-1" d="M169.45,132.11c3.21,0,3.22-5,0-5s-3.23,5,0,5Z"/><path class="cls-1" d="M167.89,127.63c-1.71,1.31-3.44,2.62-5,4.07a48.09,48.09,0,0,0-4.19,4.49,2.69,2.69,0,0,0-.73,1.77,2.5,2.5,0,0,0,4.27,1.76,49.3,49.3,0,0,1,4.06-4.37c.7-.64,1.42-1.25,2.16-1.85l1.14-.9.32-.25c-.1.08-.37.29-.12.09l.65-.49a2.73,2.73,0,0,0,1.14-1.49,2.5,2.5,0,0,0-.25-1.93,2.46,2.46,0,0,0-1.49-1.15,2.41,2.41,0,0,0-1.93.25Z"/><path class="cls-1" d="M170,126.12l-.33.1a2.61,2.61,0,0,0-1.1.62.64.64,0,0,0,0,.89.62.62,0,0,0,.44.18.75.75,0,0,0,.45-.18.86.86,0,0,1,.14-.13l-.12.1a2.34,2.34,0,0,1,.43-.26l-.14.07c.18-.08.38-.11.57-.18a.45.45,0,0,0,.21-.12.44.44,0,0,0,.16-.17.62.62,0,0,0,.06-.48.67.67,0,0,0-.28-.38.64.64,0,0,0-.49-.06Z"/><path class="cls-1" d="M170.16,127.18l.48-.37-.12.09,0,0-.15.07h0l-.17,0h0l-.16,0h0l-.15-.07h0l-.13-.1,0,0-.1-.13a2.12,2.12,0,0,1,.12.2l.13.22a.68.68,0,0,0,.37.29.52.52,0,0,0,.25,0,.49.49,0,0,0,.23-.08.64.64,0,0,0,.29-.37.62.62,0,0,0-.07-.48l-.17-.3a1.38,1.38,0,0,0-.17-.25.71.71,0,0,0-.3-.18h0l-.17,0-.09,0h-.1a.92.92,0,0,0-.3.18l-.07.06-.14.1-.28.22a.53.53,0,0,0-.13.2.52.52,0,0,0,0,.24.47.47,0,0,0,0,.24.46.46,0,0,0,.13.2.63.63,0,0,0,.44.19l.17,0a.62.62,0,0,0,.28-.17Z"/><rect class="cls-1" x="169.89" y="125.49" width="1.04" height="1.27" transform="translate(381.21 148.76) rotate(149.62)"/><rect class="cls-1" x="170.31" y="125.34" width="0.26" height="0.13" transform="translate(380.89 147.4) rotate(149.62)"/><rect class="cls-2" x="170.49" y="124.98" width="0.46" height="0.39" transform="translate(381.3 146.83) rotate(149.62)"/><circle class="cls-2" cx="102.66" cy="180.52" r="7.35"/><rect class="cls-2" x="183.76" y="44.63" width="216.61" height="147.7" transform="translate(603.95 72.99) rotate(149.62)"/><path class="cls-1" d="M176.87,137.8c-17,3.44-30,17.8-46.8,21.93"/><path class="cls-1" d="M219.5,211.34a356.17,356.17,0,0,1-45.13,26"/><path class="cls-1" d="M186,230.89l18.12-3.06c1.91-.33,3.83-.65,5.71-1.12,5.69-1.42,11-4.15,16.09-7"/><path class="cls-1" d="M174.08,237.52c6.64-3.54,13.92-5.67,21.15-7.77,12.17-3.54,24.4-7.09,37-8.65,4.88-.6,9.79-.9,14.6-1.91,6.6-1.38,12.84-4.05,19-6.7,15.65-6.7,32.11-14,42-27.93,3.4-4.81,5.87-10.22,9.18-15.09,3.45-5.08,7.85-9.63,10-15.37s1.27-13.37-4.05-16.42a13,13,0,0,0-6.18-1.51c-8.94-.21-17.15,5.12-23.4,11.52s-11.19,14-17.55,20.29S261,179.32,252.09,178.64c-4.91-.38-9.51-2.46-14.2-4-19.06-6.17-42-2.1-55.27,13"/><path class="cls-1" d="M257.82,178.78a26.83,26.83,0,0,0-19,15.94"/><path class="cls-1" d="M129.42,160.69a39.66,39.66,0,0,1,9.51-6.57c3.13-1.54,6.49-2.67,9.33-4.7,5.13-3.66,7.91-9.7,11.75-14.69a39.77,39.77,0,0,1,10.71-9.61"/><rect class="cls-1" x="146.96" y="141.44" width="54.72" height="88.86" transform="translate(418.71 258.08) rotate(149.62)"/><path class="cls-1" d="M142.18,151c-3.85,3.69-9,5.81-12.87,9.48-.22.21-.41.64-.12.75,1.25-.9,2.29-2.05,3.51-3a25.09,25.09,0,0,1,3.52-2.12l16-8.52a19.45,19.45,0,0,0,2.29-1.36,32.32,32.32,0,0,0,2.63-2.34,46.81,46.81,0,0,1,5.31-4"/><path class="cls-1" d="M170.07,126.75a.49.49,0,0,1,.09-.37,57.56,57.56,0,0,0,4.39,7.57l-.11-.34"/><path class="cls-1" d="M169.89,126.48c-1.2,1.84-3.21,3-5,4.24a39.77,39.77,0,0,0-5.2,4.68,43.81,43.81,0,0,0-5.51,6.66,27.28,27.28,0,0,0-2.81,5.71"/><path class="cls-1" d="M169.91,126.3a39.52,39.52,0,0,0-3.88,3.09c-4.76,4.11-9.52,8.24-13.86,12.79q-3.24,3.4-6.15,7.11"/><path class="cls-1" d="M169.4,128.65a65.82,65.82,0,0,0,3.51,5.95l-2.71-4.13a11,11,0,0,1,2.6,6.3,14.67,14.67,0,0,1-5-6.77c.41-.21.87.19,1.16.55a12.25,12.25,0,0,1,2.9,5,11.13,11.13,0,0,1-4.24-5.74,16.91,16.91,0,0,1,2.69,6.57,8.75,8.75,0,0,1-3.65-3.63c-.25-.48-.39-1.2.08-1.46a13.92,13.92,0,0,1,3,6.56,18.55,18.55,0,0,1-4.49-5.59,2.35,2.35,0,0,1-.23-2.39,10.68,10.68,0,0,1,2.92,7.66.73.73,0,0,1-.12.44c-.27.32-.77,0-1-.37-1.33-1.77-2.74-3.87-2.23-6a19.15,19.15,0,0,1,1.38,7.88,1,1,0,0,1-.17.61c-.35.39-1,0-1.29-.42a6.41,6.41,0,0,1-.42-6.8,5.66,5.66,0,0,1-1,3.62,15.42,15.42,0,0,1-4.2,4.61c.11-3,2.14-5.54,4.16-7.75a49.3,49.3,0,0,1-7.64,9.68,81.21,81.21,0,0,1,6.74-8.62,64.25,64.25,0,0,1-7.67,10.9,3.48,3.48,0,0,0-1.14,2.22,46.74,46.74,0,0,1,8.2-9.71l-5.76,5.76,9.17-5.14a70.75,70.75,0,0,0-6.65,4.46,40.88,40.88,0,0,0,5.72-3.85l-2.16.48c-.36.08-.83.12-1-.19a.86.86,0,0,1,0-.78,9.78,9.78,0,0,1,3.22-4.19l-1.9,1.49a30.93,30.93,0,0,1,2-3.5l-1.55,1a3.19,3.19,0,0,1,.95-1.26,7.72,7.72,0,0,0-.4,5.37,1.41,1.41,0,0,1,2.16,1.63l-.46-2.12a2.4,2.4,0,0,1-.6,2.83,8.81,8.81,0,0,1-2.71,1.52,24.51,24.51,0,0,0-6.72,4.39,4,4,0,0,0,2-1.47L153.42,146a5.65,5.65,0,0,1,1.8-1.84,9.55,9.55,0,0,1-2.72,1.6,5.63,5.63,0,0,1,2.28-2.1,2.82,2.82,0,0,0-2,1.74"/><rect class="cls-2" x="133.91" y="154.24" width="17.62" height="98.52" transform="translate(368.76 306.88) rotate(149.62)"/><rect class="cls-1" x="17.45" y="188.23" width="126.34" height="103.33" transform="translate(271.49 406.08) rotate(149.62)"/><rect class="cls-1" x="131.71" y="146.78" width="53.89" height="26.4" transform="translate(376.44 217.75) rotate(149.62)"/><rect class="cls-1" x="128.59" y="145.93" width="51.81" height="6.48" transform="translate(363.21 199.74) rotate(149.62)"/><rect class="cls-1" x="149.88" y="135.85" width="26.21" height="5.01" transform="translate(373.56 175.29) rotate(149.62)"/><rect class="cls-1" x="161" y="131.57" width="14.23" height="7.36" transform="translate(381.54 166.92) rotate(149.62)"/><circle class="cls-2" cx="102.66" cy="180.52" r="7.35"/><rect class="cls-2" x="170.37" y="124.54" width="0.46" height="0.88" transform="translate(380.99 146.52) rotate(149.62)"/><text class="cls-3" transform="translate(346.93 52.21) rotate(149.62)">1</text></g></g></svg>