<svg xmlns="http://www.w3.org/2000/svg" viewBox="0 0 422.58 317.2"><defs><style>.cls-1{fill:#f1f6e5;}.cls-2,.cls-3{fill:#18190f;}.cls-3{font-size:86.88px;font-family:HelveticaNeueLTStd-Md, Helvetica Neue LT Std;font-weight:500;}</style></defs><g id="Layer_2" data-name="Layer 2"><g id="Layer_1-2" data-name="Layer 1"><rect class="cls-1" x="22.5" y="124.72" width="216.61" height="147.7" transform="translate(-82.74 93.98) rotate(-30.53)"/><rect class="cls-1" x="271.11" y="63.9" width="17.62" height="98.52" transform="translate(-18.67 157.89) rotate(-30.53)"/><rect class="cls-2" x="278.76" y="24.93" width="126.34" height="103.33" transform="translate(8.5 184.31) rotate(-30.53)"/><circle class="cls-1" cx="321.75" cy="135.03" r="7.35"/><path class="cls-2" d="M246,179c17-3.49,29.94-17.89,46.74-22.06"/><path class="cls-2" d="M203.13,105.52a355,355,0,0,1,45.06-26.08"/><path class="cls-2" d="M236.61,85.88,218.5,89c-1.91.33-3.82.66-5.7,1.13-5.69,1.44-11,4.17-16.08,7"/><path class="cls-2" d="M248.48,79.21c-6.63,3.56-13.91,5.71-21.13,7.83C215.19,90.61,203,94.2,190.4,95.79c-4.87.61-9.79.93-14.59,1.95-6.6,1.39-12.84,4.08-19,6.75-15.63,6.75-32.07,14.12-41.88,28.05-3.39,4.81-5.84,10.22-9.14,15.1-3.44,5.09-7.83,9.66-10,15.41s-1.24,13.36,4.09,16.4a12.94,12.94,0,0,0,6.18,1.49c8.95.19,17.14-5.16,23.38-11.58s11.14-14,17.49-20.34,14.79-11.38,23.71-10.71c4.92.36,9.52,2.43,14.21,3.93,19.08,6.11,42.06,2,55.24-13.11"/><path class="cls-2" d="M164.9,138.17a26.82,26.82,0,0,0,19-16"/><path class="cls-2" d="M293.34,155.92a39.52,39.52,0,0,1-9.5,6.6c-3.12,1.55-6.48,2.69-9.31,4.73-5.12,3.67-7.88,9.71-11.71,14.72a39.82,39.82,0,0,1-10.69,9.64"/><rect class="cls-2" x="221.01" y="86.43" width="54.72" height="88.86" transform="translate(-32.04 144.31) rotate(-30.53)"/><path class="cls-2" d="M280.61,165.64c3.84-3.7,9-5.84,12.84-9.51.22-.21.4-.65.12-.75-1.24.9-2.29,2.06-3.51,3a25,25,0,0,1-3.5,2.14l-16,8.56a18.12,18.12,0,0,0-2.28,1.37,30.6,30.6,0,0,0-2.62,2.34,46.86,46.86,0,0,1-5.3,4"/><path class="cls-2" d="M252.78,190a.48.48,0,0,1-.09.37,56.48,56.48,0,0,0-4.41-7.56l.11.34"/><path class="cls-2" d="M253,190.24c1.2-1.84,3.21-3,5-4.25a39.76,39.76,0,0,0,5.19-4.69,44.44,44.44,0,0,0,5.49-6.68,27.58,27.58,0,0,0,2.8-5.72"/><path class="cls-2" d="M252.94,190.43a42.7,42.7,0,0,0,3.87-3.1c4.75-4.13,9.5-8.27,13.83-12.84q3.23-3.41,6.13-7.12"/><path class="cls-2" d="M253.44,188.08a61,61,0,0,0-3.52-5.94l2.72,4.12A11,11,0,0,1,250,180a14.54,14.54,0,0,1,5,6.75c-.41.21-.86-.19-1.16-.55a12.37,12.37,0,0,1-2.92-5,11.1,11.1,0,0,1,4.26,5.73,16.93,16.93,0,0,1-2.7-6.57,8.75,8.75,0,0,1,3.65,3.63c.26.48.4,1.19-.07,1.46a13.91,13.91,0,0,1-3.07-6.56,18.46,18.46,0,0,1,4.51,5.58,2.37,2.37,0,0,1,.23,2.39,10.61,10.61,0,0,1-2.93-7.65.66.66,0,0,1,.11-.44c.27-.32.78,0,1,.37,1.34,1.76,2.76,3.86,2.25,6a19.31,19.31,0,0,1-1.4-7.88.9.9,0,0,1,.16-.6c.35-.4,1,0,1.3.41a6.43,6.43,0,0,1,.44,6.8,5.59,5.59,0,0,1,1-3.62,15.14,15.14,0,0,1,4.18-4.62c-.1,3-2.12,5.54-4.14,7.76a49,49,0,0,1,7.62-9.7,81.14,81.14,0,0,1-6.72,8.63,64.64,64.64,0,0,1,7.64-10.92,3.46,3.46,0,0,0,1.14-2.22,47.06,47.06,0,0,1-8.18,9.73l5.74-5.77-9.15,5.16a70.17,70.17,0,0,0,6.64-4.48,40.92,40.92,0,0,0-5.71,3.87l2.16-.49c.36-.08.82-.12,1,.19a.9.9,0,0,1,0,.78,9.7,9.7,0,0,1-3.21,4.19l1.89-1.48a29.4,29.4,0,0,1-2,3.5l1.55-1a3.24,3.24,0,0,1-.94,1.26,7.77,7.77,0,0,0,.38-5.37,1.41,1.41,0,0,1-2.16-1.63l.46,2.12a2.4,2.4,0,0,1,.6-2.83,8.67,8.67,0,0,1,2.7-1.53,24.35,24.35,0,0,0,6.71-4.4,4,4,0,0,0-2,1.47l3.51-1.66a5.52,5.52,0,0,1-1.79,1.84A10.17,10.17,0,0,1,270.3,171a5.62,5.62,0,0,1-2.27,2.11,2.8,2.8,0,0,0,2-1.74"/><rect class="cls-2" x="237.16" y="143.52" width="53.89" height="26.4" transform="translate(-43 155.89) rotate(-30.53)"/><rect class="cls-2" x="242.39" y="164.27" width="51.81" height="6.48" transform="translate(-47.9 159.52) rotate(-30.53)"/><rect class="cls-2" x="246.73" y="175.85" width="26.21" height="5.01" transform="translate(-54.58 156.72) rotate(-30.53)"/><rect class="cls-2" x="247.6" y="177.79" width="14.23" height="7.36" transform="translate(-56.87 154.55) rotate(-30.53)"/><rect class="cls-2" x="249.11" y="182.26" width="13.86" height="3.61" transform="translate(-58.01 155.58) rotate(-30.53)"/><rect class="cls-2" x="249.94" y="183.89" width="7.53" height="4.91" transform="matrix(0.86, -0.51, 0.51, 0.86, -59.49, 154.71)"/><path class="cls-2" d="M253.69,186.93a58.3,58.3,0,0,0,5.46-4.58c1.14-1.14,2.19-2.38,3.23-3.61"/><path class="cls-2" d="M252.67,190c.12-.05.25-.07.37-.11a2.08,2.08,0,0,0,.79-.45"/><path class="cls-2" d="M253.14,190l-.49.38a.09.09,0,0,1-.05,0s0,0-.07-.06l-.22-.39"/><rect class="cls-2" x="251.92" y="189.96" width="1.04" height="1.27" transform="translate(-61.82 154.66) rotate(-30.53)"/><rect class="cls-2" x="252.62" y="189.57" width="0.94" height="1.13" transform="translate(-61.5 154.93) rotate(-30.53)"/><rect class="cls-2" x="252.29" y="191.26" width="0.26" height="0.13" transform="translate(-62.2 154.75) rotate(-30.53)"/><rect class="cls-2" x="252.53" y="189.01" width="3" height="0.99" transform="translate(-61.05 155.32) rotate(-30.53)"/><rect class="cls-2" x="253.81" y="184.83" width="10.02" height="0.99" transform="translate(-56.49 229.09) rotate(-43.51)"/><rect class="cls-2" x="260.59" y="182.44" width="1.52" height="1.04" transform="translate(-52.91 237.88) rotate(-44.91)"/><rect class="cls-1" x="251.93" y="190.81" width="0.56" height="1.92" transform="translate(-62.45 154.71) rotate(-30.53)"/><text class="cls-3" transform="matrix(0.86, -0.51, 0.51, 0.86, 72.19, 267.31)">2</text></g></g></svg>