<svg xmlns="http://www.w3.org/2000/svg" viewBox="0 0 307.41 109.67"><defs><style>.cls-1,.cls-3{fill:#f1f6e5;}.cls-2{fill:#18190f;}.cls-3{font-size:60px;font-family:HelveticaNeueLTStd-Md, Helvetica Neue LT Std;font-weight:500;}</style></defs><g id="Layer_2" data-name="Layer 2"><g id="Layer_1-2" data-name="Layer 1"><rect class="cls-1" x="160.26" y="91.54" width="10.25" height="2.67" transform="translate(0.25 -0.44) rotate(0.15)"/><rect class="cls-1" x="160.26" y="91.63" width="5.57" height="3.63" transform="translate(0.25 -0.43) rotate(0.15)"/><path class="cls-1" d="M162.56,96.32c3.21,0,3.22-5,0-5s-3.23,5,0,5Z"/><path class="cls-1" d="M162.81,96.31c1.67-.2,3.34-.39,5-.74a38.46,38.46,0,0,0,4.3-1.27,2.5,2.5,0,0,0-1.33-4.83c-1.13.39-2.26.78-3.42,1.08a35.58,35.58,0,0,1-3.57.65l.67-.09-1.64.2a2.77,2.77,0,0,0-1.77.74,2.5,2.5,0,0,0,0,3.53,2.4,2.4,0,0,0,1.77.73Z"/><path class="cls-1" d="M160.84,96l.24.06a1.78,1.78,0,0,0,.39.07,2,2,0,0,0,.65,0,.6.6,0,0,0,.37-.29.67.67,0,0,0,.07-.48.64.64,0,0,0-.29-.37.66.66,0,0,0-.48-.06l-.13,0,.17,0a2.54,2.54,0,0,1-.39,0l.16,0c-.14,0-.28-.08-.43-.1a.43.43,0,0,0-.25,0,.48.48,0,0,0-.23.07.69.69,0,0,0-.29.38.63.63,0,0,0,.07.48.55.55,0,0,0,.37.28Z"/><path class="cls-1" d="M161.31,94.92l-.25,0-.12,0h-.11l.16,0h0l.15.06h0l.13.09h0l.09.12h0l.06.15v0l0,.17a1,1,0,0,1,0-.17v-.18a.47.47,0,0,0,0-.24.57.57,0,0,0-.13-.21.47.47,0,0,0-.2-.12.53.53,0,0,0-.24-.06l-.17,0a.71.71,0,0,0-.28.16l-.09.13a.59.59,0,0,0-.09.32v.25a1.27,1.27,0,0,0,0,.27l0,.09a.43.43,0,0,0,.13.21.67.67,0,0,0,.3.18.62.62,0,0,0,.27,0l.13,0,.25,0a.6.6,0,0,0,.24,0,.53.53,0,0,0,.2-.13.46.46,0,0,0,.13-.21.39.39,0,0,0,.05-.24l0-.16a.61.61,0,0,0-.16-.28l-.13-.1a.65.65,0,0,0-.31-.08Z"/><rect class="cls-1" x="160.25" y="95.21" width="0.77" height="0.94" transform="translate(0.26 -0.43) rotate(0.15)"/><rect class="cls-1" x="160.25" y="96.08" width="0.19" height="0.1" transform="translate(0.26 -0.43) rotate(0.15)"/><rect class="cls-2" x="159.91" y="96.02" width="0.34" height="0.29" transform="translate(0.26 -0.43) rotate(0.15)"/><circle class="cls-2" cx="224.24" cy="86.48" r="5.44"/><rect class="cls-2" x="0.15" y="0.21" width="160.21" height="109.24" transform="translate(0.15 -0.21) rotate(0.15)"/><path class="cls-1" d="M160.9,85.81C173,90,186.7,85.74,199,89.42"/><path class="cls-1" d="M161.38,23a261.79,261.79,0,0,1,38.5.41"/><path class="cls-1" d="M190.09,23.09,177.4,18.23c-1.34-.51-2.68-1-4.06-1.43a50.61,50.61,0,0,0-12.87-1.61"/><path class="cls-1" d="M200.16,23.33c-5.57-.24-11-1.62-16.4-3C174.68,18,165.55,15.68,157,12c-3.33-1.45-6.58-3.1-10-4.27A75.07,75.07,0,0,0,132.29,4.8c-12.5-1.61-25.74-3.12-37.23,2-4,1.78-7.58,4.3-11.52,6.16-4.1,1.94-8.62,3.19-12.17,6s-5.83,8-3.58,12a9.63,9.63,0,0,0,3.37,3.28c5.62,3.49,12.85,3.18,19.23,1.45S102.78,31,109.2,29.4s13.7-1.66,19.13,2.13c3,2.09,5.13,5.14,7.55,7.87,9.83,11.09,26,17.13,40.08,12.5"/><path class="cls-1" d="M124.73,29.29a19.86,19.86,0,0,0,18.12-3"/><path class="cls-1" d="M199.74,89.05a29.13,29.13,0,0,1-8.53.61c-2.57-.19-5.14-.73-7.71-.5-4.65.4-8.68,3.2-13,4.94a29.4,29.4,0,0,1-10.44,2.1"/><rect class="cls-1" x="160.36" y="23.27" width="40.47" height="65.73" transform="translate(0.15 -0.48) rotate(0.15)"/><path class="cls-1" d="M188,90.43c3.84-.9,7.91-.33,11.76-1.2.22,0,.5-.26.36-.44-1.13.11-2.23.45-3.36.59a19.27,19.27,0,0,1-3,0l-13.38-.58a13,13,0,0,0-2,0,22.26,22.26,0,0,0-2.56.5,33.14,33.14,0,0,1-4.87.54"/><path class="cls-1" d="M161.09,95.4a.38.38,0,0,1-.2.21,42.48,42.48,0,0,0,.05-6.48l-.06.26"/><path class="cls-1" d="M161.1,95.65c1.45-.73,3.15-.67,4.77-.83a29.22,29.22,0,0,0,5.07-1,32.75,32.75,0,0,0,6-2.17A20.5,20.5,0,0,0,180.89,89"/><path class="cls-1" d="M161,95.76a31.72,31.72,0,0,0,3.63-.52c4.58-.83,9.16-1.67,13.64-2.94q3.35-.94,6.59-2.22"/><path class="cls-1" d="M162.22,94.45a43.56,43.56,0,0,0,0-5.11L162.4,93a8.11,8.11,0,0,1,.71-5,10.84,10.84,0,0,1,.64,6.19c-.34,0-.48-.45-.53-.79a9.1,9.1,0,0,1,.05-4.31,8.21,8.21,0,0,1,.54,5.26,12.78,12.78,0,0,1,.76-5.2,6.45,6.45,0,0,1,1,3.68c0,.4-.2.91-.6.9a10.25,10.25,0,0,1,.52-5.32,13.56,13.56,0,0,1,.77,5.25c0,.62-.19,1.35-.76,1.61a7.9,7.9,0,0,1,1-6,.45.45,0,0,1,.24-.23c.3-.11.48.31.52.62.18,1.62.29,3.49-.84,4.67a14.12,14.12,0,0,1,2.08-5.54c.09-.14.18-.28.33-.32.37-.12.63.37.67.75a4.74,4.74,0,0,1-2.28,4.49,4.15,4.15,0,0,1,2-1.94,11.35,11.35,0,0,1,4.4-1.36c-1.19,1.87-3.44,2.73-5.56,3.38a36.7,36.7,0,0,1,8.51-3.3,61.59,61.59,0,0,1-7.53,3,47.76,47.76,0,0,1,9-4.07,2.56,2.56,0,0,0,1.56-1,34.5,34.5,0,0,1-8.87,3.1L176.5,90l-7.78-.17a50.84,50.84,0,0,0,5.92-.35,29.87,29.87,0,0,0-5.09.31l1.55.5c.26.09.58.24.58.51s-.16.36-.32.48a7.17,7.17,0,0,1-3.62,1.46l1.76-.24A20.59,20.59,0,0,1,166.92,94l1.38-.07a2.28,2.28,0,0,1-1.08.44,5.72,5.72,0,0,0,2.27-3.26,1,1,0,0,1-.76-1.86l-.51,1.53a1.78,1.78,0,0,1,1.45-1.58,6.6,6.6,0,0,1,2.3.05,17.84,17.84,0,0,0,5.92-.27,3,3,0,0,0-1.84.17l2.86.27a4.21,4.21,0,0,1-1.84.49,7.29,7.29,0,0,1,2.33,0,4.23,4.23,0,0,1-2.24.48,2.1,2.1,0,0,0,1.93-.36"/><rect class="cls-2" x="200.83" y="20.35" width="13.04" height="72.87" transform="translate(0.15 -0.55) rotate(0.15)"/><rect class="cls-1" x="213.86" y="18.72" width="93.45" height="76.43" transform="translate(0.15 -0.69) rotate(0.15)"/><rect class="cls-1" x="160.91" y="68.76" width="39.86" height="19.52" transform="translate(0.21 -0.48) rotate(0.15)"/><rect class="cls-1" x="160.27" y="84.58" width="38.32" height="4.8" transform="translate(0.23 -0.48) rotate(0.15)"/><rect class="cls-1" x="160.27" y="88.82" width="19.39" height="3.71" transform="translate(0.24 -0.45) rotate(0.15)"/><rect class="cls-1" x="160.27" y="88" width="10.52" height="5.45" transform="translate(0.24 -0.44) rotate(0.15)"/><circle class="cls-2" cx="224.24" cy="86.48" r="5.44"/><rect class="cls-2" x="159.91" y="96.01" width="0.34" height="0.65" transform="translate(0.26 -0.43) rotate(0.15)"/><text class="cls-3" transform="translate(21.89 76.05) rotate(-0.31)">5</text></g></g></svg>