<svg xmlns="http://www.w3.org/2000/svg" viewBox="0 0 389.76 139.05"><defs><style>.cls-1,.cls-3{fill:#f1f6e5;}.cls-2{fill:#18190f;}.cls-3{font-size:76px;font-family:HelveticaNeueLTStd-Md, Helvetica Neue LT Std;font-weight:500;}</style></defs><g id="Layer_2" data-name="Layer 2"><g id="Layer_1-2" data-name="Layer 1"><rect class="cls-1" x="203.19" y="116.07" width="13" height="3.39" transform="translate(0.31 -0.56) rotate(0.15)"/><rect class="cls-1" x="203.19" y="116.17" width="7.07" height="4.6" transform="matrix(1, 0, 0, 1, 0.32, -0.55)"/><path class="cls-1" d="M206.1,121.45c3.22,0,3.23-5,0-5s-3.22,5,0,5Z"/><path class="cls-1" d="M206.43,121.44c2-.25,4.11-.49,6.14-.91a44.87,44.87,0,0,0,5.45-1.62,2.5,2.5,0,1,0-1.33-4.82,45.87,45.87,0,0,1-5.25,1.57q-1.32.28-2.67.48c-.24,0-.48.08-.73.1l-.16,0c-.48.07-1,.13-1.45.18a2.77,2.77,0,0,0-1.77.74,2.52,2.52,0,0,0-.73,1.76c0,1.22,1.11,2.67,2.5,2.5Z"/><path class="cls-1" d="M204,121.54c.1,0,.2,0,.31.07a3.54,3.54,0,0,0,.45.08,2.29,2.29,0,0,0,.78-.06.68.68,0,0,0,.37-.28.65.65,0,0,0,.06-.49.63.63,0,0,0-.29-.37.66.66,0,0,0-.48-.06l-.15,0,.16,0a1.35,1.35,0,0,1-.49,0l.16,0c-.18,0-.36-.1-.55-.13a.42.42,0,0,0-.25,0,.48.48,0,0,0-.23.07.69.69,0,0,0-.29.38.67.67,0,0,0,.07.48.6.6,0,0,0,.37.29Z"/><path class="cls-1" d="M204.52,120.51l-.31,0h-.15l-.15,0,.17,0h0l.15.06h0l.13.1h0l.09.12h0l.06.15s0,0,0,0l0,.17v-.45a.5.5,0,0,0-.06-.24.44.44,0,0,0-.13-.2.46.46,0,0,0-.2-.13.39.39,0,0,0-.24,0l-.17,0a.63.63,0,0,0-.27.16.65.65,0,0,0-.18.44V121a1,1,0,0,0,0,.3s0,0,0,.09a.59.59,0,0,0,.14.22.75.75,0,0,0,.31.18.71.71,0,0,0,.29,0l.16,0,.32,0a.66.66,0,0,0,.44-.18.37.37,0,0,0,.13-.2.48.48,0,0,0,.06-.24l0-.17a.65.65,0,0,0-.17-.27l-.12-.1a.59.59,0,0,0-.32-.09Z"/><rect class="cls-1" x="203.18" y="120.71" width="0.97" height="1.19" transform="matrix(1, 0, 0, 1, 0.32, -0.54)"/><rect class="cls-1" x="203.18" y="121.82" width="0.24" height="0.12" transform="translate(0.33 -0.54) rotate(0.15)"/><rect class="cls-2" x="202.75" y="121.74" width="0.43" height="0.36" transform="translate(0.33 -0.54) rotate(0.15)"/><circle class="cls-2" cx="284.31" cy="109.65" r="6.89"/><rect class="cls-2" x="0.18" y="0.27" width="203.14" height="138.51" transform="translate(0.19 -0.27) rotate(0.15)"/><path class="cls-1" d="M204,108.8c15.34,5.3,32.7-.1,48.25,4.58"/><path class="cls-1" d="M204.61,29.09a332.87,332.87,0,0,1,48.82.53"/><path class="cls-1" d="M241,29.27l-16.09-6.15c-1.7-.65-3.4-1.3-5.14-1.82-5.28-1.56-10.83-1.87-16.33-2"/><path class="cls-1" d="M253.78,29.58c-7.06-.3-14-2.06-20.8-3.8-11.51-2.94-23.08-5.9-34-10.63-4.22-1.84-8.34-3.93-12.7-5.41-6-2-12.31-2.85-18.57-3.66-15.84-2-32.63-3.95-47.21,2.58-5,2.26-9.6,5.45-14.6,7.81-5.2,2.46-10.93,4-15.43,7.64S83.1,34.3,86,39.3a12.07,12.07,0,0,0,4.27,4.16c7.12,4.43,16.29,4,24.39,1.85s15.71-6,23.84-8,17.38-2.11,24.25,2.7c3.79,2.65,6.52,6.51,9.58,10,12.46,14.06,33,21.73,50.82,15.86"/><path class="cls-1" d="M158.15,37.13a25.17,25.17,0,0,0,23-3.8"/><path class="cls-1" d="M253.24,112.91a37,37,0,0,1-10.81.78c-3.26-.25-6.52-.93-9.77-.65-5.89.51-11,4.07-16.5,6.27A37.24,37.24,0,0,1,202.93,122"/><rect class="cls-1" x="203.32" y="29.51" width="51.31" height="83.34" transform="translate(0.19 -0.61) rotate(0.15)"/><path class="cls-1" d="M238.32,114.66c4.88-1.15,10-.42,14.92-1.53.28-.06.63-.33.45-.55-1.43.13-2.83.57-4.26.74a23.56,23.56,0,0,1-3.85,0l-17-.73a17.38,17.38,0,0,0-2.5,0,30.36,30.36,0,0,0-3.24.63,42.65,42.65,0,0,1-6.18.69"/><path class="cls-1" d="M204.24,121a.46.46,0,0,1-.25.26,53.58,53.58,0,0,0,.06-8.21l-.07.33"/><path class="cls-1" d="M204.25,121.27c1.85-.92,4-.85,6.06-1a38.39,38.39,0,0,0,6.43-1.31,41,41,0,0,0,7.62-2.76,25.4,25.4,0,0,0,5-3.27"/><path class="cls-1" d="M204.15,121.41a37.88,37.88,0,0,0,4.61-.65c5.8-1.06,11.61-2.12,17.29-3.74,2.83-.8,5.61-1.74,8.35-2.8"/><path class="cls-1" d="M205.68,119.75a58.36,58.36,0,0,0,0-6.48l.23,4.63a10.4,10.4,0,0,1,.89-6.33,13.62,13.62,0,0,1,.82,7.85c-.43,0-.61-.56-.67-1A11.49,11.49,0,0,1,207,113a10.46,10.46,0,0,1,.69,6.66,15.92,15.92,0,0,1,1-6.59,8.18,8.18,0,0,1,1.21,4.67c0,.51-.25,1.16-.76,1.14a13.05,13.05,0,0,1,.66-6.75,17.14,17.14,0,0,1,1,6.66c0,.79-.23,1.72-1,2a10,10,0,0,1,1.3-7.58.72.72,0,0,1,.3-.3c.38-.13.61.4.66.79.23,2.06.37,4.43-1.07,5.92a18.26,18.26,0,0,1,2.64-7,.9.9,0,0,1,.43-.41c.46-.15.79.47.84,1a6,6,0,0,1-2.9,5.69,5.33,5.33,0,0,1,2.52-2.46,14.29,14.29,0,0,1,5.59-1.72c-1.52,2.36-4.37,3.45-7.05,4.27a46.77,46.77,0,0,1,10.78-4.18,76.63,76.63,0,0,1-9.55,3.76,60.2,60.2,0,0,1,11.39-5.16,3.26,3.26,0,0,0,2-1.24A44.1,44.1,0,0,1,216.39,116l7.39-1.91-9.86-.21a64.78,64.78,0,0,0,7.5-.44,38.67,38.67,0,0,0-6.45.39l2,.64c.33.11.73.29.74.64a.85.85,0,0,1-.41.61,9.07,9.07,0,0,1-4.6,1.84l2.24-.29a27.15,27.15,0,0,1-3.27,1.88l1.74-.08a3.07,3.07,0,0,1-1.37.56,7.29,7.29,0,0,0,2.89-4.15,1.31,1.31,0,0,1-1-2.34l-.64,1.93a2.23,2.23,0,0,1,1.83-2,8,8,0,0,1,2.92.06,22.56,22.56,0,0,0,7.51-.34,3.76,3.76,0,0,0-2.34.22l3.63.34a5.29,5.29,0,0,1-2.33.62,9.42,9.42,0,0,1,3,0,5.28,5.28,0,0,1-2.84.61,2.67,2.67,0,0,0,2.44-.46"/><rect class="cls-2" x="254.63" y="25.81" width="16.53" height="92.39" transform="translate(0.19 -0.7) rotate(0.15)"/><rect class="cls-1" x="271.15" y="23.73" width="118.48" height="96.9" transform="translate(0.19 -0.88) rotate(0.15)"/><rect class="cls-1" x="204.01" y="87.18" width="50.54" height="24.75" transform="translate(0.27 -0.61) rotate(0.15)"/><rect class="cls-1" x="203.21" y="107.23" width="48.59" height="6.08" transform="translate(0.29 -0.61) rotate(0.15)"/><rect class="cls-1" x="203.2" y="112.62" width="24.58" height="4.7" transform="translate(0.31 -0.57) rotate(0.15)"/><rect class="cls-1" x="203.2" y="111.58" width="13.34" height="6.91" transform="translate(0.31 -0.56) rotate(0.15)"/><circle class="cls-2" cx="284.31" cy="109.65" r="6.89"/><rect class="cls-2" x="202.75" y="121.73" width="0.43" height="0.82" transform="translate(0.33 -0.54) rotate(0.15)"/><text class="cls-3" transform="translate(22.22 93.92) rotate(-0.31)">4</text></g></g></svg>