<svg xmlns="http://www.w3.org/2000/svg" viewBox="0 0 389.69 139.17"><defs><style>.cls-1{fill:#f1f6e5;}.cls-2,.cls-3{fill:#18190f;}.cls-3{font-size:76px;font-family:HelveticaNeueLTStd-Md, Helvetica Neue LT Std;font-weight:500;}</style></defs><g id="Layer_2" data-name="Layer 2"><g id="Layer_1-2" data-name="Layer 1"><rect class="cls-1" x="0.25" y="0.36" width="203.04" height="138.45" transform="translate(0.25 -0.36) rotate(0.2)"/><rect class="cls-1" x="254.57" y="26.03" width="16.52" height="92.35" transform="translate(0.26 -0.94) rotate(0.2)"/><rect class="cls-2" x="271.09" y="24.02" width="118.43" height="96.86" transform="translate(0.26 -1.18) rotate(0.2)"/><circle class="cls-1" cx="286.05" cy="109.86" r="6.89"/><path class="cls-2" d="M203.94,108.94c15.34,5.31,32.69-.07,48.23,4.62"/><path class="cls-2" d="M204.62,29.26a333.86,333.86,0,0,1,48.79.57"/><path class="cls-2" d="M241,29.48l-16.08-6.17c-1.69-.65-3.39-1.3-5.14-1.82-5.27-1.57-10.82-1.88-16.31-2"/><path class="cls-2" d="M253.76,29.79c-7-.3-13.94-2.06-20.78-3.81-11.51-2.95-23.07-5.92-34-10.66-4.22-1.84-8.33-3.94-12.69-5.42-6-2-12.29-2.86-18.56-3.67-15.83-2.05-32.61-4-47.18,2.53-5,2.25-9.61,5.44-14.6,7.8-5.21,2.45-10.94,4-15.43,7.62S83.16,34.36,86,39.36a12.13,12.13,0,0,0,4.26,4.16c7.12,4.44,16.28,4,24.38,1.87s15.71-6,23.84-8,17.37-2.08,24.24,2.73c3.78,2.65,6.5,6.51,9.56,10,12.45,14.07,32.94,21.75,50.79,15.9"/><path class="cls-2" d="M158.17,37.26a25.14,25.14,0,0,0,23-3.78"/><path class="cls-2" d="M253.15,113.09a37,37,0,0,1-10.81.76c-3.26-.25-6.51-.93-9.77-.65-5.88.51-11,4-16.49,6.25a37.23,37.23,0,0,1-13.23,2.65"/><rect class="cls-2" x="203.28" y="29.7" width="51.29" height="83.3" transform="translate(0.26 -0.82) rotate(0.2)"/><path class="cls-2" d="M238.24,114.82c4.87-1.14,10-.4,14.91-1.51.28-.07.63-.33.45-.55-1.44.13-2.83.56-4.26.73a22.48,22.48,0,0,1-3.85,0l-17-.75a19,19,0,0,0-2.5,0,32.31,32.31,0,0,0-3.23.63,43,43,0,0,1-6.19.69"/><path class="cls-2" d="M204.16,121.09a.43.43,0,0,1-.25.26,52.34,52.34,0,0,0,.07-8.21l-.07.33"/><path class="cls-2" d="M204.18,121.4c1.84-.92,4-.85,6-1a37.2,37.2,0,0,0,6.43-1.3,42,42,0,0,0,7.62-2.75,25.7,25.7,0,0,0,5-3.27"/><path class="cls-2" d="M204.08,121.54a38,38,0,0,0,4.6-.65c5.8-1,11.61-2.11,17.29-3.71,2.82-.8,5.61-1.74,8.35-2.8"/><path class="cls-2" d="M205.61,119.88a60.71,60.71,0,0,0,0-6.47l.22,4.62a10.44,10.44,0,0,1,.9-6.32,13.58,13.58,0,0,1,.81,7.84c-.43,0-.6-.56-.67-1a11.44,11.44,0,0,1,.07-5.46,10.42,10.42,0,0,1,.68,6.65,15.86,15.86,0,0,1,1-6.58,8.18,8.18,0,0,1,1.21,4.67c0,.51-.26,1.15-.76,1.14a13,13,0,0,1,.66-6.75,17.47,17.47,0,0,1,1,6.65c0,.8-.24,1.72-1,2a10,10,0,0,1,1.31-7.57.72.72,0,0,1,.3-.3c.37-.12.61.4.65.79.24,2.06.38,4.43-1.07,5.92a18.11,18.11,0,0,1,2.65-7,.86.86,0,0,1,.43-.41c.46-.15.79.47.84,1a6,6,0,0,1-2.9,5.69,5.31,5.31,0,0,1,2.51-2.46,14.44,14.44,0,0,1,5.59-1.71c-1.52,2.36-4.37,3.44-7,4.26a46.75,46.75,0,0,1,10.78-4.17,75.06,75.06,0,0,1-9.55,3.75,60.4,60.4,0,0,1,11.39-5.14,3.27,3.27,0,0,0,2-1.25,44.07,44.07,0,0,1-11.25,3.92l7.39-1.9-9.85-.22a64.9,64.9,0,0,0,7.5-.43,37.74,37.74,0,0,0-6.46.38l2,.64c.34.11.73.3.74.65a.84.84,0,0,1-.41.6,9,9,0,0,1-4.59,1.84l2.24-.29a28.07,28.07,0,0,1-3.28,1.88l1.74-.08a3.07,3.07,0,0,1-1.37.56,7.25,7.25,0,0,0,2.89-4.14,1.37,1.37,0,0,1-1.37-.81,1.35,1.35,0,0,1,.41-1.54l-.65,1.93a2.25,2.25,0,0,1,1.84-2,8.15,8.15,0,0,1,2.91.07,22.83,22.83,0,0,0,7.51-.34,3.73,3.73,0,0,0-2.33.22l3.62.34a5.16,5.16,0,0,1-2.33.62,9.42,9.42,0,0,1,2.95,0,5.28,5.28,0,0,1-2.84.61,2.67,2.67,0,0,0,2.44-.45"/><rect class="cls-2" x="203.96" y="87.35" width="50.52" height="24.74" transform="translate(0.36 -0.82) rotate(0.2)"/><rect class="cls-2" x="203.14" y="107.39" width="48.57" height="6.08" transform="translate(0.4 -0.81) rotate(0.2)"/><rect class="cls-2" x="203.13" y="112.76" width="24.57" height="4.7" transform="translate(0.41 -0.77) rotate(0.2)"/><rect class="cls-2" x="203.13" y="111.72" width="13.34" height="6.9" transform="translate(0.41 -0.75) rotate(0.2)"/><rect class="cls-2" x="203.12" y="116.21" width="12.99" height="3.39" transform="translate(0.42 -0.75) rotate(0.2)"/><rect class="cls-2" x="203.12" y="116.31" width="7.06" height="4.6" transform="translate(0.43 -0.74) rotate(0.2)"/><path class="cls-2" d="M206.35,119.08A54.68,54.68,0,0,0,213,118c1.46-.37,2.9-.86,4.33-1.36"/><path class="cls-2" d="M204.06,121.06c.12,0,.23.06.35.09a1.88,1.88,0,0,0,.85,0"/><path class="cls-2" d="M204.45,121.27l-.58.07h-.05a.08.08,0,0,1,0-.08v-.42"/><rect class="cls-2" x="203.11" y="120.84" width="0.97" height="1.19" transform="translate(0.44 -0.73) rotate(0.2)"/><rect class="cls-2" x="203.89" y="120.84" width="0.88" height="1.06" transform="translate(0.44 -0.73) rotate(0.2)"/><rect class="cls-2" x="203.1" y="121.94" width="0.24" height="0.12" transform="translate(0.44 -0.73) rotate(0.2)"/><rect class="cls-2" x="203.99" y="120.85" width="2.81" height="0.93" transform="translate(0.43 -0.73) rotate(0.2)"/><rect class="cls-2" x="206.56" y="119.77" width="9.39" height="0.93" transform="translate(-21.36 49.68) rotate(-12.77)"/><rect class="cls-2" x="213.71" y="119.05" width="1.42" height="0.98" transform="translate(-22.74 56.14) rotate(-14.17)"/><rect class="cls-1" x="202.58" y="121.37" width="0.52" height="1.8" transform="translate(0.44 -0.72) rotate(0.2)"/><text class="cls-3" transform="translate(22.59 93.79) rotate(-0.31)">3</text></g></g></svg>