<svg xmlns="http://www.w3.org/2000/svg" viewBox="0 0 187.43 121.7"><defs><style>.cls-1{fill:#f5e6f1;}</style></defs><g id="Layer_2" data-name="Layer 2"><g id="graphics"><ellipse class="cls-1" cx="150.25" cy="79.29" rx="37.18" ry="42.41"/><ellipse class="cls-1" cx="37.18" cy="79.29" rx="37.18" ry="42.41"/><rect class="cls-1" x="39.28" y="64.63" width="108.42" height="19.91" rx="9.4"/><path class="cls-1" d="M91.25,47.9,41.84,80.44c-4.16,2.74-9.52,1.1-11.92-3.65h0c-2.4-4.74-1-10.86,3.19-13.6L82.52,30.65c4.16-2.73,9.52-1.09,11.92,3.65h0C96.84,39,95.4,45.16,91.25,47.9Z"/><path class="cls-1" d="M141.52,65.93,86.41,49.08c-4.63-1.41-7.41-6.9-6.17-12.19h0c1.24-5.29,6.05-8.46,10.69-7L146,46.69c4.63,1.42,7.41,6.91,6.17,12.2h0C151,64.18,146.15,67.34,141.52,65.93Z"/><rect class="cls-1" x="130.92" width="11.82" height="83.55" rx="5.91"/><rect class="cls-1" x="62.18" y="19.83" width="44.64" height="17.05" rx="8.05"/><rect class="cls-1" x="120.63" width="22.11" height="10.06" rx="4.75"/></g></g></svg>