<svg xmlns="http://www.w3.org/2000/svg" viewBox="0 0 75.9 130.87"><defs><style>.cls-1{fill:#f5e6f1;}</style></defs><g id="Layer_2" data-name="Layer 2"><g id="graphics"><path class="cls-1" d="M30.08,84.29C21.49,80.5,16.61,68.14,39,39.22c0,0,1.77,10.25,9.08,23.21,5.21,9.24,3,17.68-3.5,21.32,16.13-4.46,23.06-21.94,12.14-41.33C43.32,18.73,40.09,0,40.09,0-6,59.57,11.19,80.71,30.08,84.29Z"/><path class="cls-1" d="M30.08,84.29a19.23,19.23,0,0,1-2.24-3.48c-6.55-13.14,4.4-29.92,6.5-33a43.74,43.74,0,0,0,6.37,10.59c2.58,3.14,4.13,4.08,6.53,7.76,2.17,3.32,3.73,5.71,3.59,8.9-.19,4.06-3,6.94-4.31,8.09,3-1.71,11.79-7.15,12.73-15.82.53-4.85-1.82-8.73-6.55-16.3-8.36-13.36-14.06-16.1-19-26.65a52.08,52.08,0,0,1-4.22-13.9C10.09,38.38,5.9,65.86,17.21,77.82,19.48,80.21,23.31,83,30.08,84.29Z"/><path class="cls-1" d="M71.91,104.61,10,84C6,82.66,1.62,86.33.35,92.2a14.89,14.89,0,0,0,.42,8,7.94,7.94,0,0,0,4.64,5.12l61.91,20.61a3.47,3.47,0,0,0,1.15.19c3,0,5.83-3.67,7-8.91C76.74,111.12,75.23,105.7,71.91,104.61Zm-1,11.08c-.65,3-2,4.5-2.42,4.63-.35-.4-.89-2.51-.24-5.51s2-4.58,2.38-4.66h0C71,110.47,71.61,112.6,70.94,115.69Z"/><path class="cls-1" d="M3.12,123.18c2,5,5.4,8.13,8.32,7.64a3.63,3.63,0,0,0,1.11-.37L70.23,100A8,8,0,0,0,74,94.14a14.85,14.85,0,0,0-.9-7.94c-2.21-5.58-7.1-8.49-10.87-6.5L4.52,110.18C1.43,111.81.83,117.4,3.12,123.18Zm3.53-7.72h0c.34,0,1.94,1.25,3.12,4.2s.94,5,.66,5.48c-.47,0-2-1.31-3.15-4.17S6.36,115.82,6.65,115.46Z"/><ellipse class="cls-1" cx="8.87" cy="120.36" rx="4.8" ry="6.55"/><ellipse class="cls-1" cx="68.99" cy="115.67" rx="3.12" ry="7.74"/></g></g></svg>