<svg xmlns="http://www.w3.org/2000/svg" viewBox="0 0 166.02 123.61"><defs><style>.cls-1{fill:#f5e6f1;}</style></defs><g id="Layer_2" data-name="Layer 2"><g id="graphics"><path class="cls-1" d="M100,15.06c-36.47,0-66,24.3-66,54.27s29.56,54.28,66,54.28,66-24.3,66-54.28S136.46,15.06,100,15.06Zm22,52.4c-6.58,0-11.92-5.06-11.92-11.29s5.34-11.3,11.92-11.3,11.91,5.06,11.91,11.3S128.6,67.46,122,67.46Z"/><path class="cls-1" d="M79.78,1.63a15.09,15.09,0,0,1,2.14,10.71c-1.4,7.43-8.15,10.58-8.79,10.86l53.53-2.82a39,39,0,0,0-12.59-14C99.23-3.51,82.61.84,79.78,1.63Z"/><path class="cls-1" d="M0,109.51A309.9,309.9,0,0,0,29.06,98.07,309,309,0,0,0,76.42,71.3,261.72,261.72,0,0,0,31.89,49.21,261.38,261.38,0,0,0,0,39.3a94.77,94.77,0,0,1,6.75,34A94.87,94.87,0,0,1,0,109.51Z"/></g></g></svg>