<svg xmlns="http://www.w3.org/2000/svg" viewBox="0 0 182.39 146.41"><defs><style>.cls-1{fill:#f5e6f1;}</style></defs><g id="Layer_2" data-name="Layer 2"><g id="graphics"><path class="cls-1" d="M68,82.2A10.55,10.55,0,0,1,57.47,71.69v-5.3A10.55,10.55,0,0,1,68,55.88h1.42V50.35H42.59C17.59,53.43,0,61.88,0,69.13S17.63,84.75,42.59,87.74H69.41V82.2Z"/><path class="cls-1" d="M139.8,50.35H113v5.53h1.43a10.54,10.54,0,0,1,10.51,10.51v5.3A10.54,10.54,0,0,1,114.4,82.2H113v5.54H139.8c25-3.09,42.6-11.54,42.59-18.79S164.76,53.34,139.8,50.35Z"/><polygon class="cls-1" points="95.03 55.88 97.56 50.35 69.41 50.35 69.41 55.88 95.03 55.88"/><polygon class="cls-1" points="112.97 55.88 112.97 50.35 102.3 50.35 99.77 55.88 112.97 55.88"/><polygon class="cls-1" points="87.75 82.2 85.22 87.74 112.97 87.74 112.97 82.2 87.75 82.2"/><polygon class="cls-1" points="69.41 82.2 69.41 87.74 80.49 87.74 83.02 82.2 69.41 82.2"/><polygon class="cls-1" points="110.09 33.27 106.17 31.48 97.56 50.35 102.3 50.35 110.09 33.27"/><polygon class="cls-1" points="68.92 113.06 72.84 114.85 85.22 87.74 80.49 87.74 68.92 113.06"/><polygon class="cls-1" points="99.77 55.88 102.3 50.35 97.56 50.35 95.03 55.88 99.77 55.88"/><polygon class="cls-1" points="83.02 82.2 80.49 87.74 85.22 87.74 87.75 82.2 83.02 82.2"/><polygon class="cls-1" points="95.03 55.88 83.02 82.2 87.75 82.2 99.77 55.88 95.03 55.88"/><path class="cls-1" d="M113,21.76A2.15,2.15,0,0,1,114,24.62l-4,8.65.58.26a4,4,0,0,0,5.27-2L126.8,7.79a4,4,0,0,0-2-5.27L120.1.36a4,4,0,0,0-5.27,2L104,26.1a4,4,0,0,0,2,5.27l.23.11,4-8.65A2.17,2.17,0,0,1,113,21.76Z"/><path class="cls-1" d="M114,24.62a2.15,2.15,0,1,0-3.92-1.79l-4,8.65,3.92,1.79Z"/><path class="cls-1" d="M66.07,124.5A2.15,2.15,0,0,1,65,121.65l3.91-8.59-.4-.18a4,4,0,0,0-5.27,2L52.39,138.62a4,4,0,0,0,2,5.27l4.73,2.16a4,4,0,0,0,5.27-2l10.86-23.78a4,4,0,0,0-2-5.27l-.41-.19-3.92,8.59A2.16,2.16,0,0,1,66.07,124.5Z"/><path class="cls-1" d="M65,121.65a2.15,2.15,0,1,0,3.91,1.79l3.92-8.59-3.92-1.79Z"/></g></g></svg>